<?xml version="1.0" encoding="iso-8859-1"?>
<!-- Generator: Adobe Illustrator 19.0.0, SVG Export Plug-In . SVG Version: 6.00 Build 0)  -->
<svg version="1.1" id="Capa_1" xmlns="http://www.w3.org/2000/svg" xmlns:xlink="http://www.w3.org/1999/xlink" x="0px" y="0px"
	 viewBox="0 0 512 512" style="enable-background:new 0 0 512 512;" xml:space="preserve">
<path style="fill:#303C42;" d="M405.333,0H106.667C83.135,0,64,19.135,64,42.667v426.667C64,492.865,83.135,512,106.667,512h234.667
	C400.146,512,448,464.146,448,405.333V42.667C448,19.135,428.865,0,405.333,0z"/>
<path style="fill:#F2F2F2;" d="M426.667,405.333c0,47.052-38.281,85.333-85.333,85.333H106.667c-11.76,0-21.333-9.573-21.333-21.333
	V42.667c0-11.76,9.573-21.333,21.333-21.333h298.667c11.76,0,21.333,9.573,21.333,21.333V405.333z"/>
<linearGradient id="SVGID_1_" gradientUnits="userSpaceOnUse" x1="-36.914" y1="639.1965" x2="-25.1266" y2="627.4061" gradientTransform="matrix(21.3333 0 0 -21.3333 996.3334 13791.667)">
	<stop  offset="0" style="stop-color:#000000;stop-opacity:0.1"/>
	<stop  offset="1" style="stop-color:#000000;stop-opacity:0"/>
</linearGradient>
<path style="fill:url(#SVGID_1_);" d="M149.333,362.667h-32c-2.698,0-5.091-1.086-6.969-2.734l41.703,41.703
	c-1.648-1.878-2.734-4.271-2.734-6.969V362.667z M109.139,358.707l0.262,0.262c-0.079-0.091-0.125-0.207-0.202-0.301
	L109.139,358.707z M402.549,46.292c1.682,1.885,2.784,4.313,2.784,7.042V224c0,17.646-14.354,32-32,32h-256
	c-2.527,0-4.751-1.005-6.578-2.471l38.578,38.578V288c0-5.896,4.771-10.667,10.667-10.667h21.333
	c5.896,0,10.667,4.771,10.667,10.667v32h32c5.896,0,10.667,4.771,10.667,10.667V352c0,5.896-4.771,10.667-10.667,10.667h-32v32
	c0,5.896-4.771,10.667-10.667,10.667H160c-2.698,0-5.091-1.086-6.969-2.734l88.068,88.068h100.234
	c47.052,0,85.333-38.281,85.333-85.333V70.409L402.549,46.292z"/>
<path style="fill:#303C42;" d="M394.667,42.667H117.333c-5.896,0-10.667,4.771-10.667,10.667v192
	c0,5.896,4.771,10.667,10.667,10.667h256c17.646,0,32-14.354,32-32V53.333C405.333,47.438,400.563,42.667,394.667,42.667z"/>
<path style="fill:#7CB342;" d="M384,224c0,5.885-4.781,10.667-10.667,10.667H128V64h256V224z"/>
<path style="fill:#303C42;" d="M224,362.667c5.896,0,10.667-4.771,10.667-10.667v-21.333c0-5.896-4.771-10.667-10.667-10.667h-32
	v-32c0-5.896-4.771-10.667-10.667-10.667H160c-5.896,0-10.667,4.771-10.667,10.667v32h-32c-5.896,0-10.667,4.771-10.667,10.667V352
	c0,5.896,4.771,10.667,10.667,10.667h32v32c0,5.896,4.771,10.667,10.667,10.667h21.333c5.896,0,10.667-4.771,10.667-10.667v-32H224z
	"/>
<g>
	<path style="fill:#D32F2F;" d="M384,298.667c-11.76,0-21.333,9.573-21.333,21.333c0,11.76,9.573,21.333,21.333,21.333
		c11.76,0,21.333-9.573,21.333-21.333C405.333,308.24,395.76,298.667,384,298.667z"/>
	<path style="fill:#D32F2F;" d="M320,341.333c-11.76,0-21.333,9.573-21.333,21.333c0,11.76,9.573,21.333,21.333,21.333
		c11.76,0,21.333-9.573,21.333-21.333C341.333,350.906,331.76,341.333,320,341.333z"/>
</g>
<g>
	<path style="fill:#303C42;" d="M240.563,417.125l-21.333,10.667c-5.271,2.635-7.406,9.042-4.771,14.313
		c1.875,3.74,5.635,5.896,9.552,5.896c1.604,0,3.229-0.365,4.76-1.125l21.333-10.667c5.271-2.635,7.406-9.042,4.771-14.313
		C252.219,416.615,245.823,414.5,240.563,417.125z"/>
	<path style="fill:#303C42;" d="M283.229,417.125l-21.333,10.667c-5.271,2.635-7.406,9.042-4.771,14.313
		c1.875,3.74,5.635,5.896,9.552,5.896c1.604,0,3.229-0.365,4.76-1.125l21.333-10.667c5.271-2.635,7.406-9.042,4.771-14.313
		C294.896,416.615,288.49,414.5,283.229,417.125z"/>
</g>
<g>
	<polygon style="opacity:0.3;fill:#FFFFFF;enable-background:new    ;" points="128,160 224,64 266.667,64 128,202.667 	"/>
	<polygon style="opacity:0.3;fill:#FFFFFF;enable-background:new    ;" points="128,234.667 298.667,64 352,64 181.333,234.667 	"/>
</g>
<linearGradient id="SVGID_2_" gradientUnits="userSpaceOnUse" x1="-46.0957" y1="639.7963" x2="-24.2051" y2="629.5895" gradientTransform="matrix(21.3333 0 0 -21.3333 996.3334 13791.667)">
	<stop  offset="0" style="stop-color:#FFFFFF;stop-opacity:0.2"/>
	<stop  offset="1" style="stop-color:#FFFFFF;stop-opacity:0"/>
</linearGradient>
<path style="fill:url(#SVGID_2_);" d="M405.333,0H106.667C83.135,0,64,19.135,64,42.667v426.667C64,492.865,83.135,512,106.667,512
	h234.667C400.146,512,448,464.146,448,405.333V42.667C448,19.135,428.865,0,405.333,0z"/>
<g>
</g>
<g>
</g>
<g>
</g>
<g>
</g>
<g>
</g>
<g>
</g>
<g>
</g>
<g>
</g>
<g>
</g>
<g>
</g>
<g>
</g>
<g>
</g>
<g>
</g>
<g>
</g>
<g>
</g>
</svg>
