<?xml version="1.0" encoding="iso-8859-1"?>
<!-- Generator: Adobe Illustrator 19.0.0, SVG Export Plug-In . SVG Version: 6.00 Build 0)  -->
<svg version="1.1" id="Capa_1" xmlns="http://www.w3.org/2000/svg" xmlns:xlink="http://www.w3.org/1999/xlink" x="0px" y="0px"
	 viewBox="0 0 469.333 469.333" style="enable-background:new 0 0 469.333 469.333;" xml:space="preserve">
<circle style="fill:#303C42;" cx="85.333" cy="234.667" r="85.333"/>
<circle style="fill:#454F55;" cx="85.333" cy="234.667" r="64"/>
<circle style="fill:#303C42;" cx="234.667" cy="85.333" r="85.333"/>
<circle style="fill:#454F55;" cx="234.667" cy="85.333" r="64"/>
<circle style="fill:#303C42;" cx="234.667" cy="384" r="85.333"/>
<circle style="fill:#454F55;" cx="234.667" cy="384" r="64"/>
<circle style="fill:#303C42;" cx="384" cy="234.667" r="85.333"/>
<circle style="fill:#454F55;" cx="384" cy="234.667" r="64"/>
<path style="fill:#CE93D8;" d="M117.333,192h-64c-5.896,0-10.667,4.771-10.667,10.667v64c0,5.896,4.771,10.667,10.667,10.667h64
	c5.896,0,10.667-4.771,10.667-10.667v-64C128,196.771,123.229,192,117.333,192z"/>
<rect x="64" y="213.333" style="fill:#454F55;" width="42.667" height="42.667"/>
<path style="fill:#C8E6C9;" d="M202.667,117.333h64c3.698,0,7.125-1.917,9.073-5.063s2.125-7.073,0.469-10.375l-32-64
	c-3.625-7.229-15.458-7.229-19.083,0l-32,64c-1.656,3.302-1.479,7.229,0.469,10.375
	C195.542,115.417,198.969,117.333,202.667,117.333z"/>
<polygon style="fill:#454F55;" points="234.667,66.521 249.406,96 219.927,96 "/>
<circle style="fill:#FFCDD2;" cx="384" cy="234.667" r="42.667"/>
<circle style="fill:#454F55;" cx="384" cy="234.667" r="21.333"/>
<path style="fill:#B2EBF2;" d="M274.208,344.458c-4.167-4.167-10.917-4.167-15.083,0l-24.458,24.458l-24.458-24.458
	c-4.167-4.167-10.917-4.167-15.083,0c-4.167,4.167-4.167,10.917,0,15.083L219.583,384l-24.458,24.458
	c-4.167,4.167-4.167,10.917,0,15.083c2.083,2.083,4.813,3.125,7.542,3.125s5.458-1.042,7.542-3.125l24.458-24.458l24.458,24.458
	c2.083,2.083,4.813,3.125,7.542,3.125c2.729,0,5.458-1.042,7.542-3.125c4.167-4.167,4.167-10.917,0-15.083L249.75,384l24.458-24.458
	C278.375,355.375,278.375,348.625,274.208,344.458z"/>
<linearGradient id="SVGID_1_" gradientUnits="userSpaceOnUse" x1="-57.0586" y1="620.9052" x2="-54.0554" y2="617.902" gradientTransform="matrix(21.3333 0 0 -21.3333 1430.1112 13315.2227)">
	<stop  offset="0" style="stop-color:#000000;stop-opacity:0.1"/>
	<stop  offset="1" style="stop-color:#000000;stop-opacity:0"/>
</linearGradient>
<path style="fill:url(#SVGID_1_);" d="M244.208,37.896l32,64c1.656,3.302,1.479,7.229-0.469,10.375s-5.375,5.063-9.073,5.063h-64
	c-3.698,0-7.125-1.917-9.073-5.063l36.612,36.612c1.501,0.105,2.934,0.451,4.461,0.451c33.108,0,60.103-25.359,63.355-57.624
	L244.208,37.896z"/>
<linearGradient id="SVGID_2_" gradientUnits="userSpaceOnUse" x1="-63.026" y1="613.1315" x2="-60.919" y2="611.0315" gradientTransform="matrix(21.3333 0 0 -21.3333 1430.1112 13315.2227)">
	<stop  offset="0" style="stop-color:#000000;stop-opacity:0.1"/>
	<stop  offset="1" style="stop-color:#000000;stop-opacity:0"/>
</linearGradient>
<path style="fill:url(#SVGID_2_);" d="M146.635,217.294l-20.9-20.898c1.329,1.779,2.264,3.876,2.264,6.271v64
	c0,5.896-4.771,10.667-10.667,10.667h-64c-2.814,0-5.332-1.138-7.237-2.915l21.408,21.408c5.697,1.667,11.6,2.841,17.829,2.841
	c35.292,0,64-28.708,64-64C149.333,228.605,148.217,222.854,146.635,217.294z"/>
<linearGradient id="SVGID_3_" gradientUnits="userSpaceOnUse" x1="-64.9015" y1="611.314" x2="-64.8995" y2="611.312" gradientTransform="matrix(21.3333 0 0 -21.3333 1430.1112 13315.2227)">
	<stop  offset="0" style="stop-color:#000000;stop-opacity:0.1"/>
	<stop  offset="1" style="stop-color:#000000;stop-opacity:0"/>
</linearGradient>
<polygon style="fill:url(#SVGID_3_);" points="45.543,273.846 45.534,273.855 45.582,273.904 "/>
<linearGradient id="SVGID_4_" gradientUnits="userSpaceOnUse" x1="-56.0365" y1="606.1511" x2="-53.9161" y2="604.0307" gradientTransform="matrix(21.3333 0 0 -21.3333 1430.1112 13315.2227)">
	<stop  offset="0" style="stop-color:#000000;stop-opacity:0.1"/>
	<stop  offset="1" style="stop-color:#000000;stop-opacity:0"/>
</linearGradient>
<path style="fill:url(#SVGID_4_);" d="M295.784,366.034l-21.576-21.576c4.167,4.167,4.167,10.917,0,15.083L249.75,384l24.458,24.458
	c4.167,4.167,4.167,10.917,0,15.083c-2.083,2.083-4.813,3.125-7.542,3.125c-2.729,0-5.458-1.042-7.542-3.125l-24.458-24.458
	l-24.458,24.458c-2.083,2.083-4.813,3.125-7.542,3.125s-5.458-1.042-7.542-3.125l21.574,21.574
	c5.738,1.693,11.688,2.884,17.967,2.884c35.292,0,64-28.708,64-64C298.667,377.72,297.477,371.772,295.784,366.034z"/>
<linearGradient id="SVGID_5_" gradientUnits="userSpaceOnUse" x1="-49.0052" y1="613.1223" x2="-46.9152" y2="611.0423" gradientTransform="matrix(21.3333 0 0 -21.3333 1430.1112 13315.2227)">
	<stop  offset="0" style="stop-color:#000000;stop-opacity:0.1"/>
	<stop  offset="1" style="stop-color:#000000;stop-opacity:0"/>
</linearGradient>
<path style="fill:url(#SVGID_5_);" d="M414.794,205.197l-0.04,0.035c7.339,7.667,11.913,18.007,11.913,29.435
	c0,23.531-19.135,42.667-42.667,42.667c-10.922,0-20.792-4.242-28.345-11.013l31.979,31.979c32.427-1.862,58.285-27.78,60.023-60.24
	L414.794,205.197z"/>
<linearGradient id="SVGID_6_" gradientUnits="userSpaceOnUse" x1="-65.411" y1="617.5228" x2="-46.6619" y2="608.7792" gradientTransform="matrix(21.3333 0 0 -21.3333 1430.1112 13315.2227)">
	<stop  offset="0" style="stop-color:#FFFFFF;stop-opacity:0.2"/>
	<stop  offset="1" style="stop-color:#FFFFFF;stop-opacity:0"/>
</linearGradient>
<path style="fill:url(#SVGID_6_);" d="M85.333,149.333C38.281,149.333,0,187.615,0,234.667S38.281,320,85.333,320
	s85.333-38.281,85.333-85.333S132.385,149.333,85.333,149.333z M234.667,170.667c47.052,0,85.333-38.281,85.333-85.333
	S281.719,0,234.667,0s-85.333,38.281-85.333,85.333S187.615,170.667,234.667,170.667z M234.667,298.667
	c-47.052,0-85.333,38.281-85.333,85.333s38.281,85.333,85.333,85.333S320,431.052,320,384S281.719,298.667,234.667,298.667z
	 M384,149.333c-47.052,0-85.333,38.281-85.333,85.333S336.948,320,384,320s85.333-38.281,85.333-85.333S431.052,149.333,384,149.333
	z"/>
<g>
</g>
<g>
</g>
<g>
</g>
<g>
</g>
<g>
</g>
<g>
</g>
<g>
</g>
<g>
</g>
<g>
</g>
<g>
</g>
<g>
</g>
<g>
</g>
<g>
</g>
<g>
</g>
<g>
</g>
</svg>
