<?xml version="1.0" encoding="iso-8859-1"?>
<!-- Generator: Adobe Illustrator 19.0.0, SVG Export Plug-In . SVG Version: 6.00 Build 0)  -->
<svg version="1.1" id="Capa_1" xmlns="http://www.w3.org/2000/svg" xmlns:xlink="http://www.w3.org/1999/xlink" x="0px" y="0px"
	 viewBox="0 0 512 512" style="enable-background:new 0 0 512 512;" xml:space="preserve">
<path style="fill:#303C42;" d="M511.24,346.281l-25.333-164.698C475.427,113.448,417.792,64,348.854,64H163.146
	C94.208,64,36.573,113.448,26.094,181.583L0.76,346.26C0.25,349.531,0,352.833,0,356.146v26.99C0,418.906,29.094,448,64.865,448
	c22.979,0,44.448-12.333,56.042-32.188L176.792,320h158.417l55.896,95.813C402.688,435.667,424.156,448,447.135,448
	C482.906,448,512,418.906,512,383.135v-26.99C512,352.833,511.75,349.531,511.24,346.281z"/>
<path style="fill:#F2F2F2;" d="M490.667,383.135c0,24-19.531,43.531-43.531,43.531c-15.427,0-29.833-8.281-37.615-21.604
	l-58.969-101.104c-1.917-3.281-5.427-5.292-9.219-5.292H170.667c-3.792,0-7.302,2.01-9.219,5.292l-58.969,101.104
	c-7.781,13.323-22.188,21.604-37.615,21.604c-24,0-43.531-19.531-43.531-43.531v-26.99c0-2.208,0.167-4.406,0.51-6.615
	l25.333-164.698c8.865-57.656,57.635-99.5,115.969-99.5h185.708c58.333,0,107.104,41.844,115.969,99.5l25.333,164.719
	c0.344,2.188,0.51,4.385,0.51,6.594V383.135z"/>
<g>
	<path style="fill:#303C42;" d="M202.667,170.667h-32v-32c0-5.896-4.771-10.667-10.667-10.667h-21.333
		c-5.896,0-10.667,4.771-10.667,10.667v32H96c-5.896,0-10.667,4.771-10.667,10.667v21.333c0,5.896,4.771,10.667,10.667,10.667h32v32
		c0,5.896,4.771,10.667,10.667,10.667H160c5.896,0,10.667-4.771,10.667-10.667v-32h32c5.896,0,10.667-4.771,10.667-10.667v-21.333
		C213.333,175.438,208.563,170.667,202.667,170.667z"/>
	<path style="fill:#303C42;" d="M362.667,170.667c11.76,0,21.333-9.573,21.333-21.333c0-11.76-9.573-21.333-21.333-21.333
		c-11.76,0-21.333,9.573-21.333,21.333C341.333,161.094,350.906,170.667,362.667,170.667z"/>
	<path style="fill:#303C42;" d="M320,170.667c-11.76,0-21.333,9.573-21.333,21.333c0,11.76,9.573,21.333,21.333,21.333
		c11.76,0,21.333-9.573,21.333-21.333C341.333,180.24,331.76,170.667,320,170.667z"/>
</g>
<linearGradient id="SVGID_1_" gradientUnits="userSpaceOnUse" x1="-29.6849" y1="639.4661" x2="-23.4005" y2="633.1816" gradientTransform="matrix(21.3333 0 0 -21.3333 996.3334 13791.667)">
	<stop  offset="0" style="stop-color:#000000;stop-opacity:0.1"/>
	<stop  offset="1" style="stop-color:#000000;stop-opacity:0"/>
</linearGradient>
<path style="fill:url(#SVGID_1_);" d="M384,149.333c0,11.76-9.573,21.333-21.333,21.333c-5.678,0-10.784-2.311-14.612-5.943
	l134.264,133.872l-10.833-70.444l-92.819-92.819l-0.125,0.105C381.828,139.193,384,143.966,384,149.333z"/>
<linearGradient id="SVGID_2_" gradientUnits="userSpaceOnUse" x1="-31.6849" y1="637.4661" x2="-23.0513" y2="628.8325" gradientTransform="matrix(21.3333 0 0 -21.3333 996.3334 13791.667)">
	<stop  offset="0" style="stop-color:#000000;stop-opacity:0.1"/>
	<stop  offset="1" style="stop-color:#000000;stop-opacity:0"/>
</linearGradient>
<path style="fill:url(#SVGID_2_);" d="M490.156,349.552l-3.161-20.557L336,178l-0.125,0.105c3.286,3.754,5.458,8.527,5.458,13.895
	c0,11.76-9.573,21.333-21.333,21.333c-5.678,0-10.784-2.311-14.612-5.943L489.84,391.305c0.507-2.652,0.827-5.372,0.827-8.169
	v-26.99C490.667,353.938,490.5,351.74,490.156,349.552z"/>
<g>
	<path style="fill:#303C42;" d="M405.333,170.667C393.573,170.667,384,180.24,384,192c0,11.76,9.573,21.333,21.333,21.333
		s21.333-9.573,21.333-21.333C426.667,180.24,417.094,170.667,405.333,170.667z"/>
	<path style="fill:#303C42;" d="M362.667,213.333c-11.76,0-21.333,9.573-21.333,21.333S350.906,256,362.667,256
		c11.76,0,21.333-9.573,21.333-21.333S374.427,213.333,362.667,213.333z"/>
</g>
<linearGradient id="SVGID_3_" gradientUnits="userSpaceOnUse" x1="-40.6984" y1="638.4797" x2="-32.8504" y2="630.6317" gradientTransform="matrix(21.3333 0 0 -21.3333 996.3334 13791.667)">
	<stop  offset="0" style="stop-color:#000000;stop-opacity:0.1"/>
	<stop  offset="1" style="stop-color:#000000;stop-opacity:0"/>
</linearGradient>
<path style="fill:url(#SVGID_3_);" d="M128,213.333H96c-2.896,0-5.504-1.172-7.424-3.042l42.466,42.466
	c-1.87-1.921-3.042-4.529-3.042-7.424V213.333z M170.667,170.667h32c2.896,0,5.504,1.172,7.424,3.042l-42.436-42.436l-0.005,0.005
	c1.853,1.918,3.017,4.509,3.017,7.389V170.667z M210.292,173.909c1.87,1.921,3.042,4.529,3.042,7.424v21.333
	c0,5.896-4.771,10.667-10.667,10.667h-32v32c0,5.896-4.771,10.667-10.667,10.667h-21.333c-2.896,0-5.504-1.172-7.424-3.042
	l45.708,45.708h158.099L210.292,173.909z"/>
<linearGradient id="SVGID_4_" gradientUnits="userSpaceOnUse" x1="-45.4729" y1="638.6153" x2="-22.6464" y2="627.9729" gradientTransform="matrix(21.3333 0 0 -21.3333 996.3334 13791.667)">
	<stop  offset="0" style="stop-color:#FFFFFF;stop-opacity:0.2"/>
	<stop  offset="1" style="stop-color:#FFFFFF;stop-opacity:0"/>
</linearGradient>
<path style="fill:url(#SVGID_4_);" d="M511.24,346.281l-25.333-164.698C475.427,113.448,417.792,64,348.854,64H163.146
	C94.208,64,36.573,113.448,26.094,181.583L0.76,346.26C0.25,349.531,0,352.833,0,356.146v26.99C0,418.906,29.094,448,64.865,448
	c22.979,0,44.448-12.333,56.042-32.188L176.792,320h158.417l55.896,95.813C402.688,435.667,424.156,448,447.135,448
	C482.906,448,512,418.906,512,383.135v-26.99C512,352.833,511.75,349.531,511.24,346.281z"/>
<g>
</g>
<g>
</g>
<g>
</g>
<g>
</g>
<g>
</g>
<g>
</g>
<g>
</g>
<g>
</g>
<g>
</g>
<g>
</g>
<g>
</g>
<g>
</g>
<g>
</g>
<g>
</g>
<g>
</g>
</svg>
