<?xml version="1.0" encoding="iso-8859-1"?>
<!-- Generator: Adobe Illustrator 19.0.0, SVG Export Plug-In . SVG Version: 6.00 Build 0)  -->
<svg version="1.1" id="Capa_1" xmlns="http://www.w3.org/2000/svg" xmlns:xlink="http://www.w3.org/1999/xlink" x="0px" y="0px"
	 viewBox="0 0 512 512" style="enable-background:new 0 0 512 512;" xml:space="preserve">
<path style="fill:#303C42;" d="M469.333,64H42.667C19.135,64,0,83.135,0,106.667V384c0,19.844,13.615,36.573,32,41.313v12.021
	C32,443.229,36.771,448,42.667,448h426.667c5.896,0,10.667-4.771,10.667-10.667v-12.021c18.385-4.74,32-21.469,32-41.313V106.667
	C512,83.135,492.865,64,469.333,64z"/>
<path style="fill:#6D4C41;" d="M490.667,384c0,11.76-9.573,21.333-21.333,21.333c-5.896,0-10.667,4.771-10.667,10.667v10.667H53.333
	V416c0-5.896-4.771-10.667-10.667-10.667c-11.76,0-21.333-9.573-21.333-21.333V106.667c0-11.76,9.573-21.333,21.333-21.333h426.667
	c11.76,0,21.333,9.573,21.333,21.333V384z"/>
<path style="fill:#303C42;" d="M367.615,114.938c-23.125-3.094-72.521-8.271-143.615-8.271s-120.49,5.177-143.615,8.271
	c-14.865,2-26.323,12.042-29.177,25.573c-3.896,18.448-8.542,51.594-8.542,104.823s4.646,86.375,8.542,104.813
	c2.854,13.542,14.313,23.583,29.177,25.583C103.51,378.823,152.906,384,224,384s120.49-5.177,143.615-8.271
	c14.865-2,26.323-12.042,29.177-25.573c3.896-18.448,8.542-51.594,8.542-104.823s-4.646-86.375-8.542-104.813
	C393.938,126.979,382.479,116.938,367.615,114.938z"/>
<g>
	<path id="SVGCleanerId_0" style="fill:#2E7D32;" d="M375.917,345.75c-0.969,4.583-5.344,8.052-11.135,8.833
		c-22.583,3.021-70.917,8.083-140.781,8.083s-118.198-5.063-140.781-8.083c-5.792-0.781-10.167-4.25-11.135-8.844
		C68.396,328.292,64,296.719,64,245.333s4.396-82.958,8.083-100.417c0.969-4.583,5.344-8.052,11.135-8.833
		C105.802,133.063,154.135,128,224,128s118.198,5.063,140.781,8.083c5.792,0.781,10.167,4.25,11.135,8.844
		c3.688,17.448,8.083,49.021,8.083,100.406S379.604,328.292,375.917,345.75z"/>
</g>
<g>
	
		<linearGradient id="SVGCleanerId_0_3_" gradientUnits="userSpaceOnUse" x1="-43.8657" y1="638.5566" x2="-28.5406" y2="631.4122" gradientTransform="matrix(21.3333 0 0 -21.3333 996.3334 13791.667)">
		<stop  offset="0" style="stop-color:#FFFFFF;stop-opacity:0.2"/>
		<stop  offset="1" style="stop-color:#FFFFFF;stop-opacity:0"/>
	</linearGradient>
	<path id="SVGCleanerId_0_1_" style="fill:url(#SVGCleanerId_0_3_);" d="M375.917,345.75c-0.969,4.583-5.344,8.052-11.135,8.833
		c-22.583,3.021-70.917,8.083-140.781,8.083s-118.198-5.063-140.781-8.083c-5.792-0.781-10.167-4.25-11.135-8.844
		C68.396,328.292,64,296.719,64,245.333s4.396-82.958,8.083-100.417c0.969-4.583,5.344-8.052,11.135-8.833
		C105.802,133.063,154.135,128,224,128s118.198,5.063,140.781,8.083c5.792,0.781,10.167,4.25,11.135,8.844
		c3.688,17.448,8.083,49.021,8.083,100.406S379.604,328.292,375.917,345.75z"/>
</g>
<g>
	
		<linearGradient id="SVGCleanerId_0_4_" gradientUnits="userSpaceOnUse" x1="-42.1686" y1="640.9499" x2="-30.2376" y2="629.0189" gradientTransform="matrix(21.3333 0 0 -21.3333 996.3334 13791.667)">
		<stop  offset="0" style="stop-color:#FFFFFF;stop-opacity:0.2"/>
		<stop  offset="1" style="stop-color:#FFFFFF;stop-opacity:0"/>
	</linearGradient>
	<path id="SVGCleanerId_0_2_" style="fill:url(#SVGCleanerId_0_4_);" d="M375.917,345.75c-0.969,4.583-5.344,8.052-11.135,8.833
		c-22.583,3.021-70.917,8.083-140.781,8.083s-118.198-5.063-140.781-8.083c-5.792-0.781-10.167-4.25-11.135-8.844
		C68.396,328.292,64,296.719,64,245.333s4.396-82.958,8.083-100.417c0.969-4.583,5.344-8.052,11.135-8.833
		C105.802,133.063,154.135,128,224,128s118.198,5.063,140.781,8.083c5.792,0.781,10.167,4.25,11.135,8.844
		c3.688,17.448,8.083,49.021,8.083,100.406S379.604,328.292,375.917,345.75z"/>
</g>
<linearGradient id="SVGID_1_" gradientUnits="userSpaceOnUse" x1="-43.9011" y1="629.3455" x2="-43.8351" y2="629.2835" gradientTransform="matrix(21.3333 0 0 -21.3333 996.3334 13791.667)">
	<stop  offset="0" style="stop-color:#000000;stop-opacity:0.1"/>
	<stop  offset="1" style="stop-color:#000000;stop-opacity:0"/>
</linearGradient>
<path style="fill:url(#SVGID_1_);" d="M59.848,365.533l-0.145,0.105l1.401,1.401C60.611,366.599,60.311,366,59.848,365.533z"/>
<linearGradient id="SVGID_2_" gradientUnits="userSpaceOnUse" x1="-37.1548" y1="635.936" x2="-26.4531" y2="625.2344" gradientTransform="matrix(21.3333 0 0 -21.3333 996.3334 13791.667)">
	<stop  offset="0" style="stop-color:#000000;stop-opacity:0.1"/>
	<stop  offset="1" style="stop-color:#000000;stop-opacity:0"/>
</linearGradient>
<path style="fill:url(#SVGID_2_);" d="M388.305,125.036l-0.146,0.107c4.195,4.232,7.367,9.374,8.633,15.378
	c3.896,18.438,8.542,51.583,8.542,104.813s-4.646,86.375-8.542,104.823c-2.854,13.531-14.313,23.573-29.177,25.573
	C344.49,378.823,295.094,384,224,384s-120.49-5.177-143.615-8.271c-7.388-0.993-13.922-3.987-18.988-8.397l59.335,59.335h337.935
	V416c0-5.896,4.771-10.667,10.667-10.667c11.76,0,21.333-9.573,21.333-21.333V227.398L388.305,125.036z"/>
<g>
	<circle style="fill:#303C42;" cx="448" cy="213.333" r="21.333"/>
	<circle style="fill:#303C42;" cx="448" cy="277.333" r="21.333"/>
	<circle style="fill:#303C42;" cx="448" cy="341.333" r="21.333"/>
	<path style="fill:#303C42;" d="M96,192c-5.896,0-10.667,4.771-10.667,10.667v42.667C85.333,251.229,90.104,256,96,256
		c5.896,0,10.667-4.771,10.667-10.667v-42.667C106.667,196.771,101.896,192,96,192z"/>
	<path style="fill:#303C42;" d="M352,256c-5.896,0-10.667,4.771-10.667,10.667v42.667c0,5.896,4.771,10.667,10.667,10.667
		c5.896,0,10.667-4.771,10.667-10.667v-42.667C362.667,260.771,357.896,256,352,256z"/>
	<path style="fill:#303C42;" d="M224,149.333c-5.896,0-10.667,4.771-10.667,10.667v170.667c0,5.896,4.771,10.667,10.667,10.667
		c5.896,0,10.667-4.771,10.667-10.667V160C234.667,154.104,229.896,149.333,224,149.333z"/>
	<circle style="fill:#303C42;" cx="181.333" cy="224" r="10.667"/>
</g>
<linearGradient id="SVGID_3_" gradientUnits="userSpaceOnUse" x1="-47.3811" y1="640.4738" x2="-22.3489" y2="628.8007" gradientTransform="matrix(21.3333 0 0 -21.3333 996.3334 13791.667)">
	<stop  offset="0" style="stop-color:#FFFFFF;stop-opacity:0.2"/>
	<stop  offset="1" style="stop-color:#FFFFFF;stop-opacity:0"/>
</linearGradient>
<path style="fill:url(#SVGID_3_);" d="M469.333,64H42.667C19.135,64,0,83.135,0,106.667V384c0,19.844,13.615,36.573,32,41.313
	v12.021C32,443.229,36.771,448,42.667,448h426.667c5.896,0,10.667-4.771,10.667-10.667v-12.021c18.385-4.74,32-21.469,32-41.313
	V106.667C512,83.135,492.865,64,469.333,64z"/>
<g>
</g>
<g>
</g>
<g>
</g>
<g>
</g>
<g>
</g>
<g>
</g>
<g>
</g>
<g>
</g>
<g>
</g>
<g>
</g>
<g>
</g>
<g>
</g>
<g>
</g>
<g>
</g>
<g>
</g>
</svg>
