<?xml version="1.0" encoding="iso-8859-1"?>
<!-- Generator: Adobe Illustrator 19.0.0, SVG Export Plug-In . SVG Version: 6.00 Build 0)  -->
<svg version="1.1" id="Capa_1" xmlns="http://www.w3.org/2000/svg" xmlns:xlink="http://www.w3.org/1999/xlink" x="0px" y="0px"
	 viewBox="0 0 512 512" style="enable-background:new 0 0 512 512;" xml:space="preserve">
<path style="fill:#303C42;" d="M469.333,192H285.656l-8.646-34.583c-1.188-4.75-5.448-8.083-10.344-8.083v-48
	c0-8.823,7.177-16,16-16c8.823,0,16,7.177,16,16v16c0,17.646,14.354,32,32,32c17.646,0,32-14.354,32-32V74.667
	C362.667,68.771,357.896,64,352,64c-5.896,0-10.667,4.771-10.667,10.667v42.667c0,5.885-4.781,10.667-10.667,10.667
	c-5.885,0-10.667-4.781-10.667-10.667v-16C320,80.75,303.25,64,282.667,64c-20.583,0-37.333,16.75-37.333,37.333v48
	c-4.896,0-9.156,3.333-10.344,8.083L226.344,192H42.667C19.135,192,0,211.135,0,234.667v170.667C0,428.865,19.135,448,42.667,448
	h426.667C492.865,448,512,428.865,512,405.333V234.667C512,211.135,492.865,192,469.333,192z"/>
<path style="fill:#E6E6E6;" d="M490.667,405.333c0,11.76-9.573,21.333-21.333,21.333H42.667c-11.76,0-21.333-9.573-21.333-21.333
	V234.667c0-11.76,9.573-21.333,21.333-21.333h426.667c11.76,0,21.333,9.573,21.333,21.333V405.333z"/>
<path style="fill:#303C42;" d="M181.333,298.667h-32v-32c0-5.896-4.771-10.667-10.667-10.667h-21.333
	c-5.896,0-10.667,4.771-10.667,10.667v32h-32c-5.896,0-10.667,4.771-10.667,10.667v21.333c0,5.896,4.771,10.667,10.667,10.667h32v32
	c0,5.896,4.771,10.667,10.667,10.667h21.333c5.896,0,10.667-4.771,10.667-10.667v-32h32c5.896,0,10.667-4.771,10.667-10.667v-21.333
	C192,303.438,187.229,298.667,181.333,298.667z"/>
<linearGradient id="SVGID_1_" gradientUnits="userSpaceOnUse" x1="-41.6984" y1="632.4797" x2="-33.8504" y2="624.6317" gradientTransform="matrix(21.3333 0 0 -21.3333 996.3334 13791.667)">
	<stop  offset="0" style="stop-color:#000000;stop-opacity:0.1"/>
	<stop  offset="1" style="stop-color:#000000;stop-opacity:0"/>
</linearGradient>
<path style="fill:url(#SVGID_1_);" d="M106.667,341.333h-32c-2.896,0-5.504-1.172-7.424-3.042l42.466,42.466
	c-1.87-1.921-3.042-4.529-3.042-7.424V341.333z M149.333,298.667h32c2.896,0,5.504,1.172,7.424,3.042l-42.436-42.436l-0.005,0.005
	c1.853,1.918,3.017,4.509,3.017,7.389V298.667z M188.958,301.909c1.87,1.921,3.042,4.529,3.042,7.424v21.333
	c0,5.896-4.771,10.667-10.667,10.667h-32v32c0,5.896-4.771,10.667-10.667,10.667h-21.333c-2.896,0-5.504-1.172-7.424-3.042
	l45.708,45.708h158.099L188.958,301.909z"/>
<g>
	<path style="fill:#303C42;" d="M216.458,365.792l-21.333,21.333c-4.167,4.167-4.167,10.917,0,15.083
		c2.083,2.083,4.813,3.125,7.542,3.125s5.458-1.042,7.542-3.125l21.333-21.333c4.167-4.167,4.167-10.917,0-15.083
		C227.375,361.625,220.625,361.625,216.458,365.792z"/>
	<path style="fill:#303C42;" d="M280.458,365.792l-21.333,21.333c-4.167,4.167-4.167,10.917,0,15.083
		c2.083,2.083,4.813,3.125,7.542,3.125c2.729,0,5.458-1.042,7.542-3.125l21.333-21.333c4.167-4.167,4.167-10.917,0-15.083
		C291.375,361.625,284.625,361.625,280.458,365.792z"/>
	<path style="fill:#303C42;" d="M384,298.667c11.76,0,21.333-9.573,21.333-21.333S395.76,256,384,256
		c-11.76,0-21.333,9.573-21.333,21.333S372.24,298.667,384,298.667z"/>
	<path style="fill:#303C42;" d="M341.333,298.667C329.573,298.667,320,308.24,320,320c0,11.76,9.573,21.333,21.333,21.333
		s21.333-9.573,21.333-21.333C362.667,308.24,353.094,298.667,341.333,298.667z"/>
</g>
<linearGradient id="SVGID_2_" gradientUnits="userSpaceOnUse" x1="-28.6849" y1="633.4661" x2="-23.0739" y2="627.855" gradientTransform="matrix(21.3333 0 0 -21.3333 996.3334 13791.667)">
	<stop  offset="0" style="stop-color:#000000;stop-opacity:0.1"/>
	<stop  offset="1" style="stop-color:#000000;stop-opacity:0"/>
</linearGradient>
<path style="fill:url(#SVGID_2_);" d="M490.667,405.333V354L400,263.333l-0.125,0.105c3.286,3.754,5.458,8.527,5.458,13.895
	c0,11.76-9.573,21.333-21.333,21.333c-5.678,0-10.784-2.311-14.612-5.943l119.878,119.527
	C490.031,410.056,490.667,407.785,490.667,405.333z"/>
<linearGradient id="SVGID_3_" gradientUnits="userSpaceOnUse" x1="-30.6849" y1="631.4661" x2="-25.0685" y2="625.8497" gradientTransform="matrix(21.3333 0 0 -21.3333 996.3334 13791.667)">
	<stop  offset="0" style="stop-color:#000000;stop-opacity:0.1"/>
	<stop  offset="1" style="stop-color:#000000;stop-opacity:0"/>
</linearGradient>
<path style="fill:url(#SVGID_3_);" d="M476.54,425.207L357.333,306l-0.125,0.105c3.286,3.754,5.458,8.527,5.458,13.895
	c0,11.76-9.573,21.333-21.333,21.333c-5.678,0-10.784-2.311-14.612-5.943l91.543,91.276h51.069
	C471.888,426.667,474.268,426.035,476.54,425.207z"/>
<g>
	<path style="fill:#303C42;" d="M426.667,298.667c-11.76,0-21.333,9.573-21.333,21.333c0,11.76,9.573,21.333,21.333,21.333
		c11.76,0,21.333-9.573,21.333-21.333C448,308.24,438.427,298.667,426.667,298.667z"/>
	<path style="fill:#303C42;" d="M384,341.333c-11.76,0-21.333,9.573-21.333,21.333c0,11.76,9.573,21.333,21.333,21.333
		c11.76,0,21.333-9.573,21.333-21.333C405.333,350.906,395.76,341.333,384,341.333z"/>
</g>
<linearGradient id="SVGID_4_" gradientUnits="userSpaceOnUse" x1="-45.6343" y1="638.2205" x2="-22.5154" y2="627.444" gradientTransform="matrix(21.3333 0 0 -21.3333 996.3334 13791.667)">
	<stop  offset="0" style="stop-color:#FFFFFF;stop-opacity:0.2"/>
	<stop  offset="1" style="stop-color:#FFFFFF;stop-opacity:0"/>
</linearGradient>
<path style="fill:url(#SVGID_4_);" d="M469.333,192H285.656l-8.646-34.583c-1.188-4.75-5.448-8.083-10.344-8.083v-48
	c0-8.823,7.177-16,16-16c8.823,0,16,7.177,16,16v16c0,17.646,14.354,32,32,32c17.646,0,32-14.354,32-32V74.667
	C362.667,68.771,357.896,64,352,64c-5.896,0-10.667,4.771-10.667,10.667v42.667c0,5.885-4.781,10.667-10.667,10.667
	c-5.885,0-10.667-4.781-10.667-10.667v-16C320,80.75,303.25,64,282.667,64c-20.583,0-37.333,16.75-37.333,37.333v48
	c-4.896,0-9.156,3.333-10.344,8.083L226.344,192H42.667C19.135,192,0,211.135,0,234.667v170.667C0,428.865,19.135,448,42.667,448
	h426.667C492.865,448,512,428.865,512,405.333V234.667C512,211.135,492.865,192,469.333,192z"/>
<g>
</g>
<g>
</g>
<g>
</g>
<g>
</g>
<g>
</g>
<g>
</g>
<g>
</g>
<g>
</g>
<g>
</g>
<g>
</g>
<g>
</g>
<g>
</g>
<g>
</g>
<g>
</g>
<g>
</g>
</svg>
