<?xml version="1.0" encoding="iso-8859-1"?>
<!-- Generator: Adobe Illustrator 19.0.0, SVG Export Plug-In . SVG Version: 6.00 Build 0)  -->
<svg version="1.1" id="Capa_1" xmlns="http://www.w3.org/2000/svg" xmlns:xlink="http://www.w3.org/1999/xlink" x="0px" y="0px"
	 viewBox="0 0 512 512" style="enable-background:new 0 0 512 512;" xml:space="preserve">
<path style="fill:#303C42;" d="M448,256c0-15.723-8.645-29.329-21.333-36.73V42.667C426.667,19.135,407.521,0,384,0H128
	c-23.521,0-42.667,19.135-42.667,42.667V219.27C72.645,226.671,64,240.277,64,256s8.645,29.329,21.333,36.73v176.603
	C85.333,492.865,104.479,512,128,512h256c23.521,0,42.667-19.135,42.667-42.667V292.73C439.355,285.329,448,271.723,448,256z"/>
<g>
	<path style="fill:#F2F2F2;" d="M106.667,42.667c0-11.76,9.563-21.333,21.333-21.333h256c11.771,0,21.333,9.573,21.333,21.333
		v170.667H106.667V42.667z"/>
	<path style="fill:#F2F2F2;" d="M405.333,469.333c0,11.76-9.563,21.333-21.333,21.333H128c-11.771,0-21.333-9.573-21.333-21.333
		V298.667h298.667V469.333z"/>
	<path style="fill:#F2F2F2;" d="M405.333,277.333H106.667c-11.771,0-21.333-9.573-21.333-21.333c0-11.76,9.563-21.333,21.333-21.333
		h298.667c11.771,0,21.333,9.573,21.333,21.333C426.667,267.76,417.104,277.333,405.333,277.333z"/>
</g>
<path style="opacity:0.1;enable-background:new    ;" d="M405.333,234.667h-3.279c1.896,3.186,3.279,6.698,3.279,10.667
	c0,11.76-9.563,21.333-21.333,21.333H88.612c3.721,6.258,10.257,10.667,18.055,10.667h298.667c11.771,0,21.333-9.573,21.333-21.333
	C426.667,244.24,417.104,234.667,405.333,234.667z"/>
<path style="fill:#303C42;" d="M373.333,42.667H138.667c-5.896,0-10.667,4.771-10.667,10.667v128
	c0,5.896,4.771,10.667,10.667,10.667h234.667c5.896,0,10.667-4.771,10.667-10.667v-128C384,47.438,379.229,42.667,373.333,42.667z"
	/>
<linearGradient id="SVGID_1_" gradientUnits="userSpaceOnUse" x1="-38.2031" y1="635.9844" x2="-26.9963" y2="624.7776" gradientTransform="matrix(21.3333 0 0 -21.3333 996.3334 13791.667)">
	<stop  offset="0" style="stop-color:#000000;stop-opacity:0.1"/>
	<stop  offset="1" style="stop-color:#000000;stop-opacity:0"/>
</linearGradient>
<path style="fill:url(#SVGID_1_);" d="M384,490.667c11.771,0,21.333-9.573,21.333-21.333V298.667H106.667l192,192H384z"/>
<rect x="149.333" y="64" style="fill:#7CB342;" width="213.333" height="106.667"/>
<path style="fill:#303C42;" d="M138.667,405.333h32v32c0,5.896,4.771,10.667,10.667,10.667h21.333
	c5.896,0,10.667-4.771,10.667-10.667v-32h32c5.896,0,10.667-4.771,10.667-10.667v-21.333c0-5.896-4.771-10.667-10.667-10.667h-32
	v-32c0-5.896-4.771-10.667-10.667-10.667h-21.333c-5.896,0-10.667,4.771-10.667,10.667v32h-32c-5.896,0-10.667,4.771-10.667,10.667
	v21.333C128,400.563,132.771,405.333,138.667,405.333z"/>
<g>
	<path style="fill:#E53935;" d="M320,384c11.771,0,21.333-9.573,21.333-21.333c0-11.76-9.563-21.333-21.333-21.333
		c-11.771,0-21.333,9.573-21.333,21.333C298.667,374.427,308.229,384,320,384z"/>
	<path style="fill:#E53935;" d="M362.667,426.667c11.771,0,21.333-9.573,21.333-21.333S374.438,384,362.667,384
		c-11.771,0-21.333,9.573-21.333,21.333S350.896,426.667,362.667,426.667z"/>
</g>
<g>
	<polygon style="opacity:0.3;fill:#FFFFFF;enable-background:new    ;" points="149.333,117.333 202.667,64 234.667,64 
		149.333,149.333 	"/>
	<polygon style="opacity:0.3;fill:#FFFFFF;enable-background:new    ;" points="149.333,170.667 256,64 298.667,64 192,170.667 	"/>
</g>
<linearGradient id="SVGID_2_" gradientUnits="userSpaceOnUse" x1="-45.2742" y1="639.4139" x2="-24.132" y2="629.5548" gradientTransform="matrix(21.3333 0 0 -21.3333 996.3334 13791.667)">
	<stop  offset="0" style="stop-color:#FFFFFF;stop-opacity:0.2"/>
	<stop  offset="1" style="stop-color:#FFFFFF;stop-opacity:0"/>
</linearGradient>
<path style="fill:url(#SVGID_2_);" d="M448,256c0-15.723-8.645-29.329-21.333-36.73V42.667C426.667,19.135,407.521,0,384,0H128
	c-23.521,0-42.667,19.135-42.667,42.667V219.27C72.645,226.671,64,240.277,64,256s8.645,29.329,21.333,36.73v176.603
	C85.333,492.865,104.479,512,128,512h256c23.521,0,42.667-19.135,42.667-42.667V292.73C439.355,285.329,448,271.723,448,256z"/>
<g>
</g>
<g>
</g>
<g>
</g>
<g>
</g>
<g>
</g>
<g>
</g>
<g>
</g>
<g>
</g>
<g>
</g>
<g>
</g>
<g>
</g>
<g>
</g>
<g>
</g>
<g>
</g>
<g>
</g>
</svg>
