<?xml version="1.0" encoding="iso-8859-1"?>
<!-- Generator: Adobe Illustrator 19.0.0, SVG Export Plug-In . SVG Version: 6.00 Build 0)  -->
<svg version="1.1" id="Capa_1" xmlns="http://www.w3.org/2000/svg" xmlns:xlink="http://www.w3.org/1999/xlink" x="0px" y="0px"
	 viewBox="0 0 469.333 469.333" style="enable-background:new 0 0 469.333 469.333;" xml:space="preserve">
<path style="fill:#303C42;" d="M469.333,42.667C469.333,19.135,450.188,0,426.667,0h-384C19.146,0,0,19.135,0,42.667V96
	c0,0.996,0.311,1.893,0.566,2.807l-0.171,0.047l51.836,186.609L2.479,345.167l0.105,0.087C1.042,347.104,0,349.4,0,352v74.667
	c0,23.531,19.146,42.667,42.667,42.667h384c23.521,0,42.667-19.135,42.667-42.667V352c0-2.6-1.042-4.896-2.585-6.746l0.105-0.087
	l-49.753-59.703l51.836-186.609l-0.171-0.047c0.255-0.914,0.566-1.811,0.566-2.807V42.667z"/>
<path style="fill:#78909C;" d="M21.333,42.667c0-11.76,9.563-21.333,21.333-21.333h384c11.771,0,21.333,9.573,21.333,21.333v42.667
	H21.333V42.667z"/>
<path style="opacity:0.2;fill:#FFFFFF;enable-background:new    ;" d="M42.667,64c0-11.76,9.563-21.333,21.333-21.333h384
	c0-11.76-9.563-21.333-21.333-21.333h-384c-11.771,0-21.333,9.573-21.333,21.333v42.667h21.333V64z"/>
<g>
	<path id="SVGCleanerId_0" style="fill:#757575;" d="M364.298,106.667l28.445,170.667H160v-24.611
		c6.259-3.724,10.667-10.262,10.667-18.056c0-11.76-9.563-21.333-21.333-21.333c-11.771,0-21.333,9.573-21.333,21.333
		c0,7.794,4.408,14.332,10.667,18.056v24.611H76.59l28.445-170.667H364.298z"/>
</g>
<g>
	
		<linearGradient id="SVGCleanerId_0_3_" gradientUnits="userSpaceOnUse" x1="-62.6788" y1="617.9375" x2="-48.537" y2="611.3431" gradientTransform="matrix(21.3333 0 0 -21.3333 1430.1112 13315.2227)">
		<stop  offset="0" style="stop-color:#FFFFFF;stop-opacity:0.2"/>
		<stop  offset="1" style="stop-color:#FFFFFF;stop-opacity:0"/>
	</linearGradient>
	<path id="SVGCleanerId_0_1_" style="fill:url(#SVGCleanerId_0_3_);" d="M364.298,106.667l28.445,170.667H160v-24.611
		c6.259-3.724,10.667-10.262,10.667-18.056c0-11.76-9.563-21.333-21.333-21.333c-11.771,0-21.333,9.573-21.333,21.333
		c0,7.794,4.408,14.332,10.667,18.056v24.611H76.59l28.445-170.667H364.298z"/>
</g>
<g>
	
		<linearGradient id="SVGCleanerId_0_4_" gradientUnits="userSpaceOnUse" x1="-61.4078" y1="619.8561" x2="-50.6653" y2="609.1126" gradientTransform="matrix(21.3333 0 0 -21.3333 1430.1112 13315.2227)">
		<stop  offset="0" style="stop-color:#FFFFFF;stop-opacity:0.2"/>
		<stop  offset="1" style="stop-color:#FFFFFF;stop-opacity:0"/>
	</linearGradient>
	<path id="SVGCleanerId_0_2_" style="fill:url(#SVGCleanerId_0_4_);" d="M364.298,106.667l28.445,170.667H160v-24.611
		c6.259-3.724,10.667-10.262,10.667-18.056c0-11.76-9.563-21.333-21.333-21.333c-11.771,0-21.333,9.573-21.333,21.333
		c0,7.794,4.408,14.332,10.667,18.056v24.611H76.59l28.445-170.667H364.298z"/>
</g>
<polygon style="fill:#546E7A;" points="61.396,238.76 24.694,106.667 83.41,106.667 "/>
<polygon style="opacity:0.1;enable-background:new    ;" points="61.396,238.76 24.694,106.667 83.41,106.667 "/>
<path style="fill:#90A4AE;" d="M69,298.667h69.667v10.667c0,5.896,4.771,10.667,10.667,10.667c5.896,0,10.667-4.771,10.667-10.667
	v-10.667h85.333c-5.896,0-10.667,4.771-10.667,10.667S239.438,320,245.333,320h21.333c5.896,0,10.667-4.771,10.667-10.667
	s-4.771-10.667-10.667-10.667h42.667c-5.896,0-10.667,4.771-10.667,10.667S303.438,320,309.333,320h21.333
	c5.896,0,10.667-4.771,10.667-10.667s-4.771-10.667-10.667-10.667h69.667l35.56,42.667H33.44L69,298.667z"/>
<polygon style="fill:#546E7A;" points="385.923,106.667 444.639,106.667 407.938,238.76 "/>
<path style="fill:#78909C;" d="M448,426.667c0,11.76-9.563,21.333-21.333,21.333h-384c-11.771,0-21.333-9.573-21.333-21.333v-64H448
	V426.667z"/>
<path style="opacity:0.1;enable-background:new    ;" d="M405.333,362.667v32c0,11.76-9.563,21.333-21.333,21.333H21.333v10.667
	c0,11.76,9.563,21.333,21.333,21.333h384c11.771,0,21.333-9.573,21.333-21.333v-64H405.333z"/>
<linearGradient id="SVGID_1_" gradientUnits="userSpaceOnUse" x1="-59.3056" y1="621.9584" x2="-48.5624" y2="611.2152" gradientTransform="matrix(21.3333 0 0 -21.3333 1430.1112 13315.2227)">
	<stop  offset="0" style="stop-color:#000000;stop-opacity:0.1"/>
	<stop  offset="1" style="stop-color:#000000;stop-opacity:0"/>
</linearGradient>
<polygon style="fill:url(#SVGID_1_);" points="364.298,106.667 105.035,106.667 102.22,123.553 256,277.333 392.743,277.333 "/>
<path style="fill:#303C42;" d="M405.333,426.667c11.771,0,21.333-9.573,21.333-21.333S417.104,384,405.333,384
	S384,393.573,384,405.333S393.563,426.667,405.333,426.667z"/>
<linearGradient id="SVGID_2_" gradientUnits="userSpaceOnUse" x1="-68.6887" y1="619.0511" x2="-43.3842" y2="607.2509" gradientTransform="matrix(21.3333 0 0 -21.3333 1430.1112 13315.2227)">
	<stop  offset="0" style="stop-color:#FFFFFF;stop-opacity:0.2"/>
	<stop  offset="1" style="stop-color:#FFFFFF;stop-opacity:0"/>
</linearGradient>
<path style="fill:url(#SVGID_2_);" d="M469.333,42.667C469.333,19.135,450.188,0,426.667,0h-384C19.146,0,0,19.135,0,42.667V96
	c0,0.996,0.311,1.893,0.566,2.807l-0.171,0.047l51.836,186.609L2.479,345.167l0.105,0.087C1.042,347.104,0,349.4,0,352v74.667
	c0,23.531,19.146,42.667,42.667,42.667h384c23.521,0,42.667-19.135,42.667-42.667V352c0-2.6-1.042-4.896-2.585-6.746l0.105-0.087
	l-49.753-59.703l51.836-186.609l-0.171-0.047c0.255-0.914,0.566-1.811,0.566-2.807V42.667z"/>
<g>
</g>
<g>
</g>
<g>
</g>
<g>
</g>
<g>
</g>
<g>
</g>
<g>
</g>
<g>
</g>
<g>
</g>
<g>
</g>
<g>
</g>
<g>
</g>
<g>
</g>
<g>
</g>
<g>
</g>
</svg>
