<?xml version="1.0" encoding="iso-8859-1"?>
<!-- Generator: Adobe Illustrator 19.0.0, SVG Export Plug-In . SVG Version: 6.00 Build 0)  -->
<svg version="1.1" id="Capa_1" xmlns="http://www.w3.org/2000/svg" xmlns:xlink="http://www.w3.org/1999/xlink" x="0px" y="0px"
	 viewBox="0 0 469.333 469.333" style="enable-background:new 0 0 469.333 469.333;" xml:space="preserve">
<path style="fill:#303C42;" d="M458.667,384h-32v-64c0-23.531-19.146-42.667-42.667-42.667H85.333
	c-23.521,0-42.667,19.135-42.667,42.667v64h-32C4.771,384,0,388.771,0,394.667v64c0,5.896,4.771,10.667,10.667,10.667h448
	c5.896,0,10.667-4.771,10.667-10.667v-64C469.333,388.771,464.563,384,458.667,384z"/>
<path style="fill:#E53935;" d="M64,320c0-11.76,9.563-21.333,21.333-21.333H384c11.771,0,21.333,9.573,21.333,21.333v64H64V320z"/>
<path style="opacity:0.2;fill:#FFFFFF;enable-background:new    ;" d="M96,352c0-11.76,9.563-21.333,21.333-21.333h288V320
	c0-11.76-9.563-21.333-21.333-21.333H85.333C73.563,298.667,64,308.24,64,320v64h32V352z"/>
<rect x="21.333" y="405.333" style="fill:#E53935;" width="426.667" height="42.667"/>
<path style="fill:#303C42;" d="M227.125,231.542c2.083,2.083,4.813,3.125,7.542,3.125s5.458-1.042,7.542-3.125l106.667-106.667
	c3.042-3.052,3.958-7.635,2.313-11.625c-1.646-3.99-5.542-6.583-9.854-6.583h-64v-96C277.333,4.771,272.563,0,266.667,0h-64
	C196.771,0,192,4.771,192,10.667v96h-64c-4.313,0-8.208,2.594-9.854,6.583c-1.646,3.99-0.729,8.573,2.313,11.625L227.125,231.542z"
	/>
<path style="fill:#1E88E5;" d="M202.667,128c5.896,0,10.667-4.771,10.667-10.667v-96H256v96c0,5.896,4.771,10.667,10.667,10.667
	h48.917l-80.917,80.917L153.75,128H202.667z"/>
<polygon style="opacity:0.2;fill:#FFFFFF;enable-background:new    ;" points="153.75,128 234.667,208.917 192,128 "/>
<polygon style="opacity:0.1;enable-background:new    ;" points="277.333,128 234.667,208.917 315.583,128 "/>
<linearGradient id="SVGID_1_" gradientUnits="userSpaceOnUse" x1="-59.5365" y1="609.6511" x2="-49.5365" y2="599.6511" gradientTransform="matrix(21.3333 0 0 -21.3333 1430.1112 13315.2227)">
	<stop  offset="0" style="stop-color:#000000;stop-opacity:0.1"/>
	<stop  offset="1" style="stop-color:#000000;stop-opacity:0"/>
</linearGradient>
<polygon style="fill:url(#SVGID_1_);" points="106.667,448 448,448 448,405.333 64,405.333 "/>
<linearGradient id="SVGID_2_" gradientUnits="userSpaceOnUse" x1="-63.5069" y1="614.5361" x2="-43.7404" y2="605.3193" gradientTransform="matrix(21.3333 0 0 -21.3333 1430.1112 13315.2227)">
	<stop  offset="0" style="stop-color:#FFFFFF;stop-opacity:0.2"/>
	<stop  offset="1" style="stop-color:#FFFFFF;stop-opacity:0"/>
</linearGradient>
<path style="fill:url(#SVGID_2_);" d="M458.667,384h-32v-64c0-23.531-19.146-42.667-42.667-42.667H85.333
	c-23.521,0-42.667,19.135-42.667,42.667v64h-32C4.771,384,0,388.771,0,394.667v64c0,5.896,4.771,10.667,10.667,10.667h448
	c5.896,0,10.667-4.771,10.667-10.667v-64C469.333,388.771,464.563,384,458.667,384z M227.125,231.542
	c2.083,2.083,4.813,3.125,7.542,3.125s5.458-1.042,7.542-3.125l106.667-106.667c3.042-3.052,3.958-7.635,2.313-11.625
	c-1.646-3.99-5.542-6.583-9.854-6.583h-64v-96C277.333,4.771,272.563,0,266.667,0h-64C196.771,0,192,4.771,192,10.667v96h-64
	c-4.313,0-8.208,2.594-9.854,6.583c-1.646,3.99-0.729,8.573,2.313,11.625L227.125,231.542z"/>
<g>
</g>
<g>
</g>
<g>
</g>
<g>
</g>
<g>
</g>
<g>
</g>
<g>
</g>
<g>
</g>
<g>
</g>
<g>
</g>
<g>
</g>
<g>
</g>
<g>
</g>
<g>
</g>
<g>
</g>
</svg>
