<svg id="Capa_1" enable-background="new 0 0 512 512" height="512" viewBox="0 0 512 512" width="512" xmlns="http://www.w3.org/2000/svg"><g><path d="m495.71 58.71-42.42-42.42c-5.63-5.63-13.26-8.79-21.22-8.79l27.43 497h30c8.28 0 15-6.72 15-15v-409.57c0-7.96-3.16-15.59-8.79-21.22z" fill="#2173cf"/><path d="m469.35 58.71c3.3 5.63 5.15 13.26 5.15 21.22v409.57c0 8.28-6.72 15-15 15h-15l-188.5-90-188.5 90h-45c-8.28 0-15-6.72-15-15v-467c0-8.28 6.72-15 15-15h45v15l188.5 105 128.5-120h47.57c3.2 0 6.32 1.49 9.03 4.26 1.22 1.25 2.37 2.77 3.4 4.53z" fill="#1e8aff"/><path d="m429.5 248.5h-30v135l45-60v-60c0-8.284-6.716-15-15-15z" fill="#ff4e51"/><path d="m414.5 263.5v180l-347-120v-60c0-8.284 6.716-15 15-15h317c8.284 0 15 6.716 15 15z" fill="#ff7149"/><path d="m414.5 323.5-90 83 90 98h30v-181z" fill="#dfedff"/><path d="m67.5 323.5h347v181h-347z" fill="#fff"/><path d="m127.5 22.5h-60v181h90z" fill="#2173cf"/><path d="m354.5 7.5-30 196h30c16.57 0 30-13.43 30-30v-166z" fill="#bfdcff"/><path d="m354.5 7.5v166c0 16.57-13.43 30-30 30h-167c-16.57 0-30-13.43-30-30v-166z" fill="#dfedff"/><path d="m264.5 37.5h60v136h-60z" fill="#2173cf"/><g fill="#dfedff"><path d="m414.5 376.5h-317c-4.142 0-7.5-3.358-7.5-7.5s3.358-7.5 7.5-7.5h317c4.143 0 7.5 3.358 7.5 7.5s-3.357 7.5-7.5 7.5z"/><path d="m414.5 421.5h-317c-4.142 0-7.5-3.358-7.5-7.5s3.358-7.5 7.5-7.5h317c4.143 0 7.5 3.358 7.5 7.5s-3.357 7.5-7.5 7.5z"/><path d="m414.5 466.5h-317c-4.142 0-7.5-3.358-7.5-7.5s3.358-7.5 7.5-7.5h317c4.143 0 7.5 3.358 7.5 7.5s-3.357 7.5-7.5 7.5z"/></g><path d="m501.017 53.41-42.426-42.427c-7.083-7.083-16.5-10.983-26.518-10.983h-304.573c-4.142 0-7.5 3.358-7.5 7.5v7.5h-45v-7.5c0-4.142-3.358-7.5-7.5-7.5h-45c-12.407 0-22.5 10.093-22.5 22.5v467c0 12.407 10.093 22.5 22.5 22.5h467c12.406 0 22.5-10.093 22.5-22.5v-409.574c0-10.016-3.9-19.433-10.983-26.516zm-366.017-38.41h242v158.5c0 12.407-10.094 22.5-22.5 22.5h-197c-12.407 0-22.5-10.093-22.5-22.5zm-15 15v143.5c0 8.435 2.8 16.229 7.518 22.5h-52.518v-166zm-45 301h22.5c4.142 0 7.5-3.358 7.5-7.5s-3.358-7.5-7.5-7.5h-22.5v-52.5c0-4.136 3.364-7.5 7.5-7.5h347c4.136 0 7.5 3.364 7.5 7.5v52.5h-309.5c-4.142 0-7.5 3.358-7.5 7.5s3.358 7.5 7.5 7.5h309.5v166h-362zm422 158.5c0 4.136-3.364 7.5-7.5 7.5h-37.5v-233.5c0-12.407-10.094-22.5-22.5-22.5h-347c-12.407 0-22.5 10.093-22.5 22.5v233.5h-37.5c-4.136 0-7.5-3.364-7.5-7.5v-467c0-4.136 3.364-7.5 7.5-7.5h37.5v188.5c0 4.142 3.358 7.5 7.5 7.5h287c20.678 0 37.5-16.822 37.5-37.5v-158.5h40.073c6.011 0 11.661 2.34 15.91 6.59l42.426 42.427c4.25 4.25 6.591 9.9 6.591 15.91z"/><path d="m474.5 452c-4.143 0-7.5 3.358-7.5 7.5v15c0 4.142 3.357 7.5 7.5 7.5s7.5-3.358 7.5-7.5v-15c0-4.142-3.357-7.5-7.5-7.5z"/><path d="m37.5 452c-4.142 0-7.5 3.358-7.5 7.5v15c0 4.142 3.358 7.5 7.5 7.5s7.5-3.358 7.5-7.5v-15c0-4.142-3.358-7.5-7.5-7.5z"/><path d="m264.5 181h60c4.143 0 7.5-3.358 7.5-7.5v-136c0-4.142-3.357-7.5-7.5-7.5h-60c-4.143 0-7.5 3.358-7.5 7.5v136c0 4.142 3.357 7.5 7.5 7.5zm7.5-136h45v121h-45z"/></g></svg>