<?xml version="1.0" encoding="iso-8859-1"?>
<!-- Generator: Adobe Illustrator 19.0.0, SVG Export Plug-In . SVG Version: 6.00 Build 0)  -->
<svg version="1.1" id="Capa_1" xmlns="http://www.w3.org/2000/svg" xmlns:xlink="http://www.w3.org/1999/xlink" x="0px" y="0px"
	 viewBox="0 0 512 512" style="enable-background:new 0 0 512 512;" xml:space="preserve">
<path style="fill:#FF4C4C;" d="M455.28,7.287H16.96c-4.972,0-9.003,4.03-9.003,9.003V495.71c0,4.972,4.03,9.003,9.003,9.003h478.082
	c4.972,0,9.003-4.03,9.003-9.003V62.418c0-2.157-0.775-4.244-2.183-5.878l-39.761-46.129C460.39,8.428,457.899,7.287,455.28,7.287z"
	/>
<path style="fill:#FFFCFD;" d="M83.255,283.576v161.518c0,11.572,9.381,20.953,20.953,20.953h303.585
	c11.572,0,20.953-9.381,20.953-20.953V283.576c0-11.572-9.381-20.953-20.953-20.953H104.208
	C92.637,262.623,83.255,272.004,83.255,283.576z"/>
<path style="fill:#E6E6E6;" d="M407.793,262.623h-36.615c11.572,0,20.953,9.381,20.953,20.953v161.518
	c0,11.572-9.381,20.953-20.953,20.953h36.615c11.572,0,20.953-9.381,20.953-20.953V283.576
	C428.746,272.004,419.364,262.623,407.793,262.623z"/>
<path style="fill:#F33939;" d="M501.861,56.541L462.1,10.412c-1.711-1.984-4.2-3.125-6.819-3.125h-37.003h0.001H65.164v160.364
	c0,8.285,6.716,15.001,15.001,15.001h351.673c8.285,0,15.001-6.716,15.001-15.001V35.635l18.02,20.906
	c1.408,1.635,2.183,3.72,2.183,5.878V495.71c0,4.972-4.03,9.003-9.003,9.003h37.003c4.972,0,9.003-4.03,9.003-9.003V62.418
	C504.044,60.261,503.269,58.174,501.861,56.541z"/>
<path style="fill:#2D5872;" d="M133.194,7.287v136.68c0,6.308,5.114,11.422,11.422,11.422h264.245
	c6.308,0,11.422-5.114,11.422-11.422V7.287H133.194z M388.528,115.048c0,5.011-4.062,9.072-9.072,9.072h-33.699
	c-5.011,0-9.072-4.062-9.072-9.072V44.41c0-5.011,4.062-9.072,9.072-9.072h33.699c5.011,0,9.072,4.062,9.072,9.072V115.048z"/>
<path style="fill:#1D4859;" d="M383.279,7.287v28.904c3.097,1.444,5.248,4.576,5.248,8.218v70.638c0,3.642-2.151,6.774-5.248,8.218
	v20.701c0,6.308-5.114,11.422-11.422,11.422h37.003c6.308,0,11.422-5.114,11.422-11.422V7.287H383.279z"/>
<path d="M507.38,51.783L467.619,5.654C464.521,2.061,460.024,0,455.28,0h-27.711H125.907H16.96C7.978,0,0.67,7.308,0.67,16.29
	v90.823c0,4.024,3.262,7.287,7.287,7.287s7.287-3.262,7.287-7.287V16.29c0-0.947,0.77-1.716,1.716-1.716h108.948v129.395
	c0,10.316,8.392,18.709,18.708,18.709h264.245c10.316,0,18.708-8.393,18.708-18.709V14.573h27.711c0.5,0,0.974,0.217,1.301,0.595
	l39.761,46.129c0.268,0.31,0.416,0.708,0.416,1.12V495.71c0,0.947-0.769,1.717-1.716,1.717H16.96c-0.947,0-1.716-0.77-1.716-1.717
	V144.638c0-4.024-3.262-7.287-7.287-7.287s-7.287,3.262-7.287,7.287V495.71c0,8.982,7.308,16.29,16.29,16.29h478.081
	c8.982,0,16.289-7.308,16.289-16.29V62.418C511.33,58.516,509.927,54.737,507.38,51.783z M412.996,143.967
	c0,2.28-1.855,4.136-4.135,4.136H144.616c-2.28,0-4.135-1.855-4.135-4.136V14.573h272.515V143.967z"/>
<path d="M407.793,473.334c15.571,0,28.24-12.669,28.24-28.24V283.576c0-15.571-12.669-28.24-28.24-28.24H104.208
	c-15.571,0-28.24,12.669-28.24,28.24v161.518c0,15.571,12.669,28.24,28.24,28.24L407.793,473.334L407.793,473.334z M90.541,445.094
	V283.576c0-7.535,6.131-13.666,13.667-13.666h303.585c7.536,0,13.667,6.131,13.667,13.666v161.518
	c0,7.535-6.131,13.666-13.667,13.666H104.208C96.672,458.761,90.541,452.63,90.541,445.094z"/>
<path d="M345.756,131.407h33.7c9.021,0,16.359-7.339,16.359-16.359V44.41c0-9.021-7.339-16.359-16.359-16.359h-33.7
	c-9.02,0-16.359,7.339-16.359,16.359v70.638C329.397,124.069,336.736,131.407,345.756,131.407z M343.97,44.41
	c0-0.985,0.801-1.786,1.785-1.786h33.7c0.984,0,1.786,0.801,1.786,1.786v70.638c0,0.984-0.802,1.786-1.786,1.786h-33.7
	c-0.984,0-1.785-0.801-1.785-1.786V44.41z"/>
<path d="M331.173,322.694h40.005c4.024,0,7.287-3.262,7.287-7.287s-3.261-7.287-7.287-7.287h-40.005
	c-4.024,0-7.287,3.262-7.287,7.287S327.148,322.694,331.173,322.694z"/>
<path d="M138.444,322.694h155.284c4.024,0,7.287-3.262,7.287-7.287s-3.261-7.287-7.287-7.287H138.444
	c-4.024,0-7.287,3.262-7.287,7.287S134.421,322.694,138.444,322.694z"/>
<path d="M138.444,371.621h232.734c4.024,0,7.287-3.262,7.287-7.287s-3.261-7.287-7.287-7.287H138.444
	c-4.024,0-7.287,3.262-7.287,7.287C131.158,368.36,134.421,371.621,138.444,371.621z"/>
<path d="M138.444,420.551h232.734c4.024,0,7.287-3.262,7.287-7.287c0-4.024-3.261-7.287-7.287-7.287H138.444
	c-4.024,0-7.287,3.262-7.287,7.287C131.158,417.288,134.421,420.551,138.444,420.551z"/>
<g>
</g>
<g>
</g>
<g>
</g>
<g>
</g>
<g>
</g>
<g>
</g>
<g>
</g>
<g>
</g>
<g>
</g>
<g>
</g>
<g>
</g>
<g>
</g>
<g>
</g>
<g>
</g>
<g>
</g>
</svg>
