<svg height="512" viewBox="0 0 60 60" width="512" xmlns="http://www.w3.org/2000/svg"><g id="a"><path d="m57 33-5-8h-44l-5 8z" fill="#f29c1f"/><path d="m8 43.63v-33.63c0-1.1.9-2 2-2h40c1.1 0 2 .9 2 2v33.63z" fill="#ecf0f1"/><path d="m12 4h36c1.104 0 2 .896 2 2v2h-40v-2c0-1.104.896-2 2-2z" fill="#d1d4d1"/><path d="m59 35v20c0 2.209-1.791 4-4 4h-50c-2.209 0-4-1.791-4-4v-20c0-1.105.895-2 2-2h9.301c1.054 0 2.03.553 2.572 1.457l3.087 5.145c1.265 2.108 3.544 3.399 6.002 3.399h12.073c2.459 0 4.737-1.29 6.002-3.399l3.087-5.145c.542-.904 1.519-1.457 2.572-1.457h9.301c1.105 0 2 .895 2 2z" fill="#f0c419"/><path d="m37.703 25h-2.703v-10c0-1.105-.895-2-2-2h-6c-1.105 0-2 .895-2 2v10h-2.703c-1.914 0-2.872 2.314-1.519 3.667l7.703 7.703c.839.839 2.199.839 3.038 0l7.703-7.703c1.353-1.353.395-3.667-1.519-3.667z" fill="#4fba6f"/><rect fill="#f9eab0" height="8" rx="2" width="34" x="13" y="47"/></g></svg>