<svg id="Layer_1" enable-background="new 0 0 512 512" viewBox="0 0 512 512" xmlns="http://www.w3.org/2000/svg"><g><g clip-rule="evenodd" fill-rule="evenodd"><path d="m31 163.8h343.1v263.5c-114.4 0-228.8 0-343.1 0 0-87.8 0-175.6 0-263.5z" fill="#fcb13b"/><path d="m419.9 384.1c-18.7 56-71.5 96.4-133.8 96.4-71.2 0-130.1-52.8-139.7-121.4h249.4c.1-13.4 5.2-26.8 15.5-37.1 12.6-12.6 29.9-17.5 46.2-14.8 2.1 12.6-.3 25.8-7.4 37 12.6 3 23.5 10.5 30.8 20.8-9.6 13.5-25.3 22.3-43.1 22.3-6.3-.1-12.3-1.2-17.9-3.2z" fill="#6abdc8"/><path d="m197.8 277h60.9v60.9h-60.9z" fill="#6abdc8"/><path d="m283.4 277h60.9v60.9h-60.9z" fill="#6abdc8"/><path d="m240.6 193.5h60.9v60.9h-60.9z" fill="#6abdc8"/><path d="m31 31.5h343.1v132.4c-114.4 0-228.8 0-343.1 0 0-44.2 0-88.3 0-132.4z" fill="#b5b682"/></g><path d="m163.6 121.4c2.6 2 3.1 5.8 1.1 8.4s-5.8 3.1-8.4 1.1l-37.2-28.5c-3.2-2.4-3.1-7.2.1-9.6l37.1-28.4c2.6-2 6.4-1.5 8.4 1.1s1.5 6.4-1.1 8.4l-31 23.8zm52.6-59.2c1.7-2.9 5.3-3.9 8.2-2.2 2.9 1.6 3.8 5.3 2.2 8.2l-37.6 65c-1.6 2.9-5.3 3.9-8.2 2.2-2.8-1.6-3.8-5.3-2.2-8.2zm32.6 68.7c-2.6 2-6.4 1.5-8.4-1.1s-1.5-6.4 1.1-8.4l31-23.7-31-23.8c-2.6-2-3.1-5.8-1.1-8.4s5.8-3.1 8.4-1.1l37.1 28.4c3.1 2.4 3.3 7.1.1 9.6zm-176 206c-3.3 0-6-2.7-6-6s2.7-6 6-6h48.6c3.3 0 6 2.7 6 6s-2.7 6-6 6zm0-41.2c-3.3 0-6-2.7-6-6s2.7-6 6-6h97.3c3.3 0 6 2.7 6 6s-2.7 6-6 6zm0-41.2c-3.3 0-6-2.7-6-6s2.7-6 6-6h97.3c3.3 0 6 2.7 6 6s-2.7 6-6 6zm0-41.2c-3.3 0-6-2.7-6-6s2.7-6 6-6h97.3c3.3 0 6 2.7 6 6s-2.7 6-6 6zm-41.8-187.8h343.1c3.3 0 6 2.7 6 6v321.6h10.1c3.6-33.6 34.9-57.3 68.3-51.8 2.6.5 4.6 2.6 4.9 5.1 1.8 11.8.5 23.3-4.6 34.2 10.9 4.1 20.3 11.5 27 20.9 1.6 2.2 1.4 5-.1 7.1-14.6 19.6-38.3 28.9-62.2 22.9-21.4 56.7-75.9 95-137.5 95-44.9 0-85.8-20.2-113.2-53.2h-141.8c-3.3 0-6-2.7-6-6v-395.8c0-3.3 2.7-6 6-6zm337.1 12h-331.1v120.4h331.1zm-127.5 150h60.9c3.3 0 6 2.7 6 6v60.9c0 3.3-2.7 6-6 6h-60.9c-3.3 0-6-2.7-6-6v-60.9c0-3.3 2.7-6 6-6zm55 12h-49v48.9h49zm-12.2 71.5h60.9c3.3 0 6 2.7 6 6v60.9c0 3.3-2.7 6-6 6h-60.9c-3.3 0-6-2.7-6-6v-60.9c.1-3.3 2.7-6 6-6zm55 12h-49v49h49zm-140.6-12h60.9c3.3 0 6 2.7 6 6v60.9c0 3.3-2.7 6-6 6h-60.9c-3.3 0-6-2.7-6-6v-60.9c0-3.3 2.7-6 6-6zm54.9 12h-48.9v49h48.9zm-88.8 138.3c-12.1-18.1-20.3-38.9-23.4-61.4-.5-3.6 2.3-6.8 5.9-6.8h221.7v-183.2h-331.1v251.5h126.9zm201 27.8c22.7-16.4 40.1-39.6 49.2-66.6 1-3.5 4.6-5.2 7.8-4 18.2 6.6 38.8 1.2 51.5-13.5-6.4-7.4-15-12.7-24.6-15-3.9-.9-5.9-5.5-3.7-9 5.3-8.5 7.8-18.5 7.1-28.4-27.2-2-50.3 19.8-50.3 46.5 0 3.3-2.7 6-6 6h-242.4c12 62.8 67.3 109.4 132.6 109.4 29.4 0 56.6-9.4 78.8-25.4z"/></g></svg>