<svg id="Layer_1" enable-background="new 0 0 24 24" viewBox="0 0 24 24" xmlns="http://www.w3.org/2000/svg" xmlns:xlink="http://www.w3.org/1999/xlink"><linearGradient id="SVGID_1_" gradientUnits="userSpaceOnUse" x1="1.726" x2="21.241" y1="8.3" y2="17.4"><stop offset="0" stop-color="#fff" stop-opacity=".2"/><stop offset="1" stop-color="#fff" stop-opacity="0"/></linearGradient><g><path id="XMLID_1489_" d="m11 3h2.5v2.5h-2.5z" fill="#0175bc"/><path d="m11 5.25h2.5v.25h-2.5z" fill="#010101" opacity=".1"/><path d="m11 3h2.5v.25h-2.5z" fill="#fff" opacity=".2"/><path id="XMLID_1314_" d="m11 6h2.5v2.5h-2.5z" fill="#0175bc"/><path d="m11 8.25h2.5v.25h-2.5z" fill="#010101" opacity=".1"/><path d="m11 6h2.5v.25h-2.5z" fill="#fff" opacity=".2"/><path id="XMLID_1315_" d="m11 9h2.5v2.5h-2.5z" fill="#0175bc"/><path d="m11 11.25h2.5v.25h-2.5z" fill="#010101" opacity=".1"/><path d="m11 9h2.5v.25h-2.5z" fill="#fff" opacity=".2"/><path id="XMLID_1307_" d="m8 6h2.5v2.5h-2.5z" fill="#0175bc"/><path d="m8 8.25h2.5v.25h-2.5z" fill="#010101" opacity=".1"/><path d="m8 6h2.5v.25h-2.5z" fill="#fff" opacity=".2"/><path id="XMLID_1306_" d="m8 9h2.5v2.5h-2.5z" fill="#0175bc"/><path d="m8 11.25h2.5v.25h-2.5z" fill="#010101" opacity=".1"/><path d="m8 9h2.5v.25h-2.5z" fill="#fff" opacity=".2"/><path id="XMLID_1317_" d="m5 6h2.5v2.5h-2.5z" fill="#0175bc"/><path d="m5 8.25h2.5v.25h-2.5z" fill="#010101" opacity=".1"/><path d="m5 6h2.5v.25h-2.5z" fill="#fff" opacity=".2"/><path id="XMLID_1316_" d="m5 9h2.5v2.5h-2.5z" fill="#0175bc"/><path d="m5 11.25h2.5v.25h-2.5z" fill="#010101" opacity=".1"/><path d="m5 9h2.5v.25h-2.5z" fill="#fff" opacity=".2"/><path id="XMLID_1318_" d="m2 9h2.5v2.5h-2.5z" fill="#0175bc"/><path d="m2 11.25h2.5v.25h-2.5z" fill="#010101" opacity=".1"/><path d="m2 9h2.5v.25h-2.5z" fill="#fff" opacity=".2"/><path id="XMLID_1305_" d="m14 9h2.5v2.5h-2.5z" fill="#0175bc"/><path d="m14 11.25h2.5v.25h-2.5z" fill="#010101" opacity=".1"/><path d="m14 9h2.5v.25h-2.5z" fill="#fff" opacity=".2"/><path d="m23.5947266 11.223134c-.0693359-.0449219-1.4980469-.9472656-2.8486328-.7324219-.3271484-1.3691406-1.5830078-2.2216797-1.6445313-2.2626953l-.3476563-.2314453s-.2175694.2255478-.2900391.3007813c-.026474.027482-.0946941.1059952-.1760216.2478724-.2248478.3922462-.5498848 1.268816-.3698769 2.8903217.0175781.1523438-.0283203.3027344-.1259766.4111328-.0878904.0986328-.2099607.1533203-.3437498.1533203h-17.4482422v.5c0 7.671875 5.5947266 8.5 8 8.5 6.1933594 0 10.4980469-3.7617188 12.3769531-7.0771484 2.4755859-.3945313 3.3330078-1.9497175 3.3779297-2.0239363l.2451172-.4150391z" fill="#0175bc"/><path d="m17.4482422 12h-17.4482422v.25h17.4482422c.1337891 0 .2558594-.0546875.34375-.1533203.0976563-.1083984.1435547-.2587891.1259766-.4111328-.0057373-.0515747-.0048218-.0927734-.0095215-.1428833-.0093384.1130981-.0423584.2217407-.1164551.3040161-.0878906.0986328-.2099609.1533203-.34375.1533203z" fill="#fff" opacity=".2"/><path d="m23.5947266 11.2231445c-.0693359-.0449219-1.4980469-.9472656-2.8486328-.7324219-.3271484-1.3691406-1.5830078-2.2216797-1.6445313-2.2626953l-.3476562-.2314453s-.2175713.2255449-.2900391.3007813c-.0198631.0206213-.0630627.0702648-.1175747.1540194-.1881866.2891331-.5111847.9847698-.4742222 2.296176.0114746-1.5025024.5079956-2.1130981.5917969-2.2001953l.2900391-.3007813.3476563.2314453c.0615234.0410156 1.3173828.8935547 1.6445313 2.2626953 1.3505858-.2148438 3.2539061.743164 3.2539061.743164z" fill="#fff" opacity=".2"/><path d="m23.7548828 11.6489258c-.0449219.0742188-.9023438 1.6293945-3.3779297 2.0239258-1.8789062 3.3154297-6.1835937 7.0771484-12.3769531 7.0771484-2.4052734 0-8-.828125-8-8.5v.25c0 7.671875 5.5947266 8.5 8 8.5 6.1933594 0 10.4980469-3.7617188 12.3769531-7.0771484 2.4755859-.3945313 3.3330078-1.949707 3.3779297-2.0239258l.2451172-.4150391-.1069946-.0688477z" fill="#010101" opacity=".1"/><path d="m13.5 6h-2.5v2.5h2.5zm0 3h-2.5v2.5h2.5zm3 0h-2.5v2.5h2.5zm-3-6h-2.5v2.5h2.5zm-3 3h-2.5v2.5h2.5zm-6 3h-2.5v2.5h2.5zm19.0947266 2.2231445c-.0693359-.0449219-1.4980469-.9472656-2.8486328-.7324219-.3271484-1.3691406-1.5830078-2.2216797-1.6445313-2.2626953l-.3476562-.2314453s-.2175903.2255249-.2900391.3007813c-.0264893.0274658-.0946655.105957-.1760254.2478638-.2248535.3922119-.5498657 1.2687988-.369873 2.8903198.0175781.1523438-.0283203.3027344-.1259766.4111328-.0878906.0986328-.2099609.1533203-.34375.1533203h-17.4482422v.5c0 7.671875 5.5947266 8.5 8 8.5 6.1933594 0 10.4980469-3.7617188 12.3769531-7.0771484 2.4755859-.3945313 3.3330078-1.949707 3.3779297-2.0239258l.2451172-.4150391zm-13.0947266-2.2231445h-2.5v2.5h2.5zm-3-3h-2.5v2.5h2.5zm0 3h-2.5v2.5h2.5z" fill="url(#SVGID_1_)"/></g><g/><g/><g/><g/><g/><g/><g/><g/><g/><g/><g/><g/><g/><g/><g/></svg>