<svg id="Capa_1" enable-background="new 0 0 512 512" height="512" viewBox="0 0 512 512" width="512" xmlns="http://www.w3.org/2000/svg"><g><g><path d="m403.534 356.517h-251.8c-7.399 0-13.396-5.998-13.396-13.396v-322.225c0-7.399 5.998-13.396 13.396-13.396h251.8c7.399 0 13.396 5.998 13.396 13.396v322.224c0 7.399-5.997 13.397-13.396 13.397z" fill="#c8effe"/><path d="m416.93 20.9v322.22c0 7.4-6 13.4-13.4 13.4h-24.11c7.4 0 13.4-6 13.4-13.4v-322.22c0-7.4-6-13.4-13.4-13.4h24.11c7.4 0 13.4 6 13.4 13.4z" fill="#99e6fc"/><path d="m328.729 400.196h-251.8c-7.399 0-13.396-5.998-13.396-13.396v-322.225c0-7.399 5.998-13.396 13.396-13.396h251.8c7.399 0 13.396 5.998 13.396 13.396v322.224c.001 7.399-5.997 13.397-13.396 13.397z" fill="#eaf6ff"/><path d="m342.13 64.57v322.23c0 7.4-6 13.4-13.4 13.4h-23.62c7.4 0 13.4-6 13.4-13.4v-322.23c0-7.39-6-13.39-13.4-13.39h23.62c7.4 0 13.4 6 13.4 13.39z" fill="#c8effe"/><path d="m449.49 190.34v256.26c0 18.86-15.29 34.15-34.15 34.15h-350.21c-18.87 0-34.16-15.29-34.16-34.15v-196.49c0-18.86 15.29-34.15 34.16-34.15h156.94c12.79 0 24.42-7.43 29.8-19.04l6.29-13.57c5.38-11.61 17.01-19.04 29.8-19.04h135.5c14.38 0 26.03 11.65 26.03 26.03z" fill="#ffd15b"/><path d="m449.49 190.34v256.26c0 18.86-15.29 34.15-34.15 34.15h-24.78c18.86 0 34.15-15.29 34.15-34.15v-256.26c0-14.38-11.65-26.03-26.02-26.03h24.77c14.38 0 26.03 11.65 26.03 26.03z" fill="#feb137"/><path d="m449.49 306.98v139.62c0 18.86-15.29 34.15-34.15 34.15h-171.49c-2.93-5.82-4.58-12.39-4.58-19.35v-130.97c0-23.8 19.3-43.1 43.1-43.1h130.96c15.16 0 28.48 7.82 36.16 19.65z" fill="#feb137"/><path d="m437.926 504.5h-130.964c-23.804 0-43.102-19.297-43.102-43.102v-130.963c0-23.804 19.297-43.102 43.102-43.102h130.963c23.804 0 43.102 19.297 43.102 43.102v130.963c0 23.805-19.297 43.102-43.101 43.102z" fill="#0593fc"/><path d="m437.926 287.333h-24.592c23.804 0 43.102 19.297 43.102 43.102v130.963c0 23.804-19.297 43.102-43.102 43.102h24.592c23.804 0 43.102-19.297 43.102-43.102v-130.963c-.001-23.804-19.298-43.102-43.102-43.102z" fill="#0181fa"/><path d="m426.719 411.874-38.893 48.466c-7.895 9.839-22.87 9.839-30.765 0l-38.893-48.466c-9.65-11.39-.717-30.202 14.279-29.767h15.083v-48.15c0-5.436 4.407-9.843 9.843-9.843h30.139c5.436 0 9.843 4.407 9.843 9.843v48.15h15.083c14.995-.435 23.933 18.376 14.281 29.767z" fill="#c8effe"/><path d="m426.719 411.874-38.893 48.466c-7.895 9.839-22.87 9.839-30.765 0l-2.157-2.687c5.866.133 11.781-2.306 15.832-7.355l31.389-38.424c9.652-11.391.714-30.203-14.279-29.767h-6.587c-4.692 0-8.496-3.804-8.496-8.496v-39.654c0-5.436-4.407-9.843-9.843-9.843h24.592c5.436 0 9.843 4.407 9.843 9.843v48.15h15.083c14.995-.435 23.933 18.376 14.281 29.767z" fill="#99e6fc"/><path d="m195.93 328.23h-108.504c-6.832 0-12.37-5.538-12.37-12.37v-16.157c0-6.832 5.538-12.37 12.37-12.37h108.504c6.832 0 12.37 5.538 12.37 12.37v16.157c0 6.832-5.538 12.37-12.37 12.37z" fill="#eaf6ff"/><path d="m208.3 299.7v16.16c0 6.83-5.54 12.37-12.37 12.37h-19.9c6.84 0 12.37-5.54 12.37-12.37v-16.16c0-6.83-5.53-12.37-12.37-12.37h19.9c6.83 0 12.37 5.54 12.37 12.37z" fill="#c8effe"/><path d="m165.576 119.659h-47.796c-7.532 0-13.638-6.106-13.638-13.638 0-7.532 6.106-13.638 13.638-13.638h47.796c7.532 0 13.638 6.106 13.638 13.638 0 7.532-6.106 13.638-13.638 13.638z" fill="#0593fc"/><path d="m179.21 106.02c0 3.76-1.53 7.18-3.99 9.64-2.47 2.47-5.88 4-9.64 4h-20.28c3.77 0 7.18-1.53 9.65-4 2.47-2.46 3.99-5.88 3.99-9.64 0-7.53-6.1-13.64-13.64-13.64h20.28c7.53 0 13.63 6.11 13.63 13.64z" fill="#0181fa"/></g><g><path d="m456.99 283.574v-93.237c0-18.486-15.04-33.526-33.527-33.526h-73.837v-92.236c0-11.522-9.374-20.896-20.896-20.896h-182.893v-22.783c0-3.251 2.646-5.896 5.896-5.896h251.801c3.251 0 5.896 2.646 5.896 5.896v108.061c0 4.143 3.357 7.5 7.5 7.5s7.5-3.357 7.5-7.5v-108.061c.001-11.522-9.373-20.896-20.896-20.896h-251.801c-11.522 0-20.896 9.374-20.896 20.896v22.782h-53.908c-11.522 0-20.896 9.374-20.896 20.896v144.892c-18.607 4.161-32.56 20.797-32.56 40.641v196.492c0 22.968 18.686 41.653 41.653 41.653h165.505c4.143 0 7.5-3.357 7.5-7.5s-3.357-7.5-7.5-7.5h-165.505c-14.696 0-26.653-11.957-26.653-26.653v-196.491c0-14.696 11.956-26.653 26.652-26.653h156.943c15.655 0 30.024-9.178 36.606-23.382l6.29-13.574c4.135-8.923 13.162-14.688 22.997-14.688h135.501c10.216 0 18.527 8.311 18.527 18.526v89.674c-1.342-.107-2.695-.178-4.064-.178h-130.963c-27.901 0-50.602 22.7-50.602 50.602v130.964c0 27.901 22.7 50.602 50.602 50.602h130.964c27.901 0 50.602-22.7 50.602-50.602v-130.964c-.001-21.159-13.06-39.316-31.538-46.861zm-205.635-103.382-6.29 13.574c-4.135 8.923-13.162 14.688-22.997 14.688h-151.036v-143.879c0-3.251 2.646-5.896 5.896-5.896h251.801c3.251 0 5.896 2.646 5.896 5.896v92.235h-46.664c-15.654.001-30.023 9.178-36.606 23.382zm222.172 281.206c0 19.631-15.971 35.602-35.602 35.602h-130.963c-19.631 0-35.602-15.971-35.602-35.602v-130.963c0-19.631 15.971-35.602 35.602-35.602h130.964c17.938-.493 36.061 16.002 35.602 35.602v130.963z"/><path d="m412.341 374.607h-7.484v-40.65c0-9.562-7.78-17.343-17.343-17.343h-30.139c-9.563 0-17.344 7.78-17.344 17.343v40.65h-7.483c-9.866-.245-18.75 5.365-23.217 14.649-4.486 9.324-3.317 19.806 3.045 27.382l38.836 48.396c5.193 6.472 12.932 10.184 21.23 10.184h.001c8.299 0 16.038-3.712 21.232-10.184l38.835-48.396c6.363-7.576 7.533-18.058 3.047-27.382-4.467-9.283-13.341-14.909-23.216-14.649zm8.656 32.418c-.043.051-.086.103-.128.154l-38.893 48.467c-2.332 2.906-5.807 4.573-9.533 4.572-3.727 0-7.2-1.666-9.532-4.572l-38.893-48.467c-.042-.052-.084-.103-.127-.153-3.04-3.588-2.532-8.173-1.044-11.267.704-1.461 3.411-6.16 9.082-6.16.1 0 .2.002.302.005.072.002.145.003.217.003h15.083c4.143 0 7.5-3.357 7.5-7.5v-48.15c0-1.292 1.052-2.343 2.344-2.343h30.139c1.292 0 2.343 1.051 2.343 2.343v48.15c0 4.143 3.357 7.5 7.5 7.5h15.083c.072 0 .146-.001.218-.003 5.891-.199 8.667 4.67 9.383 6.157 1.488 3.093 1.995 7.677-1.044 11.264z"/><path d="m87.426 279.833c-10.956 0-19.869 8.914-19.869 19.87v16.157c0 10.956 8.913 19.869 19.869 19.869h108.505c10.956 0 19.869-8.913 19.869-19.869v-16.157c0-10.956-8.913-19.87-19.869-19.87zm113.374 19.87v16.157c0 2.685-2.185 4.869-4.869 4.869h-108.505c-2.685 0-4.869-2.185-4.869-4.869v-16.157c0-2.686 2.185-4.87 4.869-4.87h108.505c2.684 0 4.869 2.185 4.869 4.87z"/><path d="m117.78 127.159h47.796c11.655 0 21.138-9.482 21.138-21.138s-9.482-21.138-21.138-21.138h-47.796c-11.655 0-21.138 9.482-21.138 21.138s9.483 21.138 21.138 21.138zm0-27.275h47.796c3.385 0 6.138 2.753 6.138 6.138s-2.753 6.138-6.138 6.138h-47.796c-3.385 0-6.138-2.753-6.138-6.138s2.754-6.138 6.138-6.138z"/><path d="m303.396 98.521h-94.979c-4.143 0-7.5 3.357-7.5 7.5s3.357 7.5 7.5 7.5h94.979c4.143 0 7.5-3.357 7.5-7.5s-3.357-7.5-7.5-7.5z"/><path d="m223.058 141.102h-62.225c-4.143 0-7.5 3.357-7.5 7.5s3.357 7.5 7.5 7.5h62.225c4.143 0 7.5-3.357 7.5-7.5s-3.358-7.5-7.5-7.5z"/><path d="m104.143 156.102h21.2c4.143 0 7.5-3.357 7.5-7.5s-3.357-7.5-7.5-7.5h-21.2c-4.143 0-7.5 3.357-7.5 7.5s3.357 7.5 7.5 7.5z"/><path d="m223.058 171.682h-118.915c-4.143 0-7.5 3.357-7.5 7.5s3.357 7.5 7.5 7.5h118.915c4.143 0 7.5-3.357 7.5-7.5s-3.358-7.5-7.5-7.5z"/></g></g></svg>