<svg height="512" viewBox="0 0 64 64" width="512" xmlns="http://www.w3.org/2000/svg"><g id="Fill_Outline" data-name="Fill Outline"><g id="Color"><path d="m48 48v-6h-3.362a12.883 12.883 0 0 0 -1.582-3.813l2.379-2.379-4.243-4.243-2.379 2.379a12.883 12.883 0 0 0 -3.813-1.582v-3.362h-6v3.362a12.883 12.883 0 0 0 -3.813 1.582l-2.379-2.379-4.243 4.243 2.379 2.379a12.883 12.883 0 0 0 -1.582 3.813h-3.362v6h3.362a12.883 12.883 0 0 0 1.582 3.813l-2.379 2.379 4.243 4.243 2.378-2.379a12.9 12.9 0 0 0 3.814 1.582v3.362h6v-3.362a12.9 12.9 0 0 0 3.814-1.582l2.378 2.379 4.243-4.243-2.379-2.379a12.883 12.883 0 0 0 1.582-3.813zm-16 1.5a4.5 4.5 0 1 1 4.5-4.5 4.5 4.5 0 0 1 -4.5 4.5z" fill="#fcbc04"/><path d="m36 56a15.093 15.093 0 0 1 -2.927-.29l2.179-3.773a8.009 8.009 0 0 0 1.248-2.169l.16-.278a5 5 0 0 0 .327-4.319l-.581-1.487a5 5 0 0 1 .327-4.32l4.49-7.764-.031-.03-2.379 2.379a12.883 12.883 0 0 0 -3.813-1.587v-1.989l-3.459 5.991a4.993 4.993 0 0 1 -2.541 2.166 4.993 4.993 0 0 1 -2.541-2.166l-1.568-2.715-2.083-2.084-4.243 4.243 2.379 2.379a12.883 12.883 0 0 0 -1.582 3.813h-3.362v6h3.362a12.883 12.883 0 0 0 1.582 3.813l-2.379 2.379 4.243 4.243 2.378-2.379a12.9 12.9 0 0 0 3.814 1.582v3.362h6v-3.362a12.9 12.9 0 0 0 3.814-1.582l2.378 2.379 4.243-4.243-.88-.88a14.921 14.921 0 0 1 -8.555 2.688zm-14.347-12.509-.336.581a14.467 14.467 0 0 1 -.188-4.941l.134.233a5 5 0 0 1 .39 4.127zm5.847 1.509a4.5 4.5 0 1 1 4.5 4.5 4.5 4.5 0 0 1 -4.5-4.5z" fill="#e59730"/><path d="m39.635 47.43a7.968 7.968 0 0 1 -9.145 5.279l-6.154-5.219a5 5 0 0 1 -.327-4.319l.581-1.487a5 5 0 0 0 -.327-4.32l-6.8-11.775 5.2-3 6.8 11.775a5 5 0 0 0 3.577 2.443l1.579.24a5 5 0 0 1 3.577 2.443zm-11.035-.557a4 4 0 1 0 1.464-5.464 4 4 0 0 0 -1.464 5.464z" fill="#93999a"/><path d="m38.19 39.49a5.005 5.005 0 0 0 -3.58-2.44l-1.57-.24a4.942 4.942 0 0 1 -2.8-1.43l-.76.38a3 3 0 0 1 -3.91-1.14l-2.65-4.41a3 3 0 0 1 1.61-4.38l-1.87-3.24-5.2 3 6.8 11.77a5.012 5.012 0 0 1 .33 4.32l-.58 1.49a5.006 5.006 0 0 0 .33 4.32l6.15 5.22a7.969 7.969 0 0 0 9.14-5.28zm-4.13 8.85a4 4 0 1 1 1.47-5.47 3.995 3.995 0 0 1 -1.47 5.47z" fill="#656b76"/><path d="m4 10.268 12.125-7a2 2 0 0 1 2.732.732l10 17.321a22.159 22.159 0 0 0 -15.589 9l-10-17.321a2 2 0 0 1 .732-2.732zm11.33 9.625a2 2 0 1 0 .732-2.732 2 2 0 0 0 -.732 2.732z" fill="#d0d8da"/><path d="m4 10.27 1.19-.69 4.79 7.84a7.994 7.994 0 0 0 10.74 2.8l5.67-3.19 2.47 4.29a22.159 22.159 0 0 0 -15.59 9l-10-17.32a2 2 0 0 1 .73-2.73z" fill="#93999a"/><path d="m39.41 41.684a5 5 0 0 1 .327-4.32l6.8-11.775-5.2-3-6.8 11.775a5 5 0 0 1 -3.577 2.443l-1.579.24a5 5 0 0 0 -3.577 2.443l-3.8 6.58 2.356 1.36a7.967 7.967 0 0 0 9.145 5.279l2.356 1.361 3.8-6.58a5 5 0 0 0 .327-4.319zm-4.01 5.189a4 4 0 1 1 -1.465-5.464 4 4 0 0 1 1.465 5.464z" fill="#d0d8da"/><path d="m39.41 41.68a5.012 5.012 0 0 1 .33-4.32l6.8-11.77-5.2-3-2.04 3.53a5.333 5.333 0 0 1 .13 5.92l-2.81 4.41a5.346 5.346 0 0 0 -.27 5.25l.46.91a5.359 5.359 0 0 1 0 4.78l-.05.08a5.335 5.335 0 0 1 -9.04.82l-1.72-2.29-2.93-1.76-1.06 1.83 2.36 1.36a7.969 7.969 0 0 0 9.14 5.28l2.36 1.36 3.79-6.58a5.006 5.006 0 0 0 .33-4.32z" fill="#93999a"/><path d="m60 10.268-12.125-7a2 2 0 0 0 -2.732.732l-10 17.321a22.159 22.159 0 0 1 15.589 9l10-17.321a2 2 0 0 0 -.732-2.732zm-11.33 9.625a2 2 0 1 1 -.733-2.732 2 2 0 0 1 .733 2.732z" fill="#e9f1f2"/><path d="m60 10.27-1.19-.69-4.79 7.84a7.994 7.994 0 0 1 -10.74 2.8l-5.67-3.19-2.47 4.29a22.159 22.159 0 0 1 15.59 9l10-17.32a2 2 0 0 0 -.73-2.73z" fill="#d0d8da"/></g><g id="Outline_copy" fill="#323232" data-name="Outline copy"><path d="m48 41h-2.594a13.866 13.866 0 0 0 -1.1-2.649l1.836-1.836a1 1 0 0 0 -1.414-1.415l-2.379 2.378a1 1 0 0 0 -.144 1.233 11.9 11.9 0 0 1 1.46 3.518 1 1 0 0 0 .973.77h2.362v4h-2.362a1 1 0 0 0 -.973.77 11.9 11.9 0 0 1 -1.46 3.518 1 1 0 0 0 .144 1.233l1.672 1.671-2.829 2.829-1.671-1.67a1 1 0 0 0 -1.233-.144 11.965 11.965 0 0 1 -3.518 1.46 1 1 0 0 0 -.77.973v2.361h-4v-2.361a1 1 0 0 0 -.77-.973 11.965 11.965 0 0 1 -3.518-1.46 1 1 0 0 0 -1.233.144l-1.671 1.671-2.829-2.829 1.672-1.671a1 1 0 0 0 .144-1.233 11.9 11.9 0 0 1 -1.46-3.518 1 1 0 0 0 -.973-.77h-2.362v-1.252a1 1 0 0 0 -2 0v2.252a1 1 0 0 0 1 1h2.594a13.866 13.866 0 0 0 1.1 2.649l-1.836 1.836a1 1 0 0 0 0 1.414l4.242 4.243a1 1 0 0 0 1.414 0l1.836-1.835a13.916 13.916 0 0 0 2.65 1.099v2.594a1 1 0 0 0 1 1h6a1 1 0 0 0 1-1v-2.594a13.916 13.916 0 0 0 2.649-1.1l1.836 1.835a1 1 0 0 0 1.414 0l4.243-4.241a1 1 0 0 0 0-1.414l-1.836-1.836a13.866 13.866 0 0 0 1.1-2.65h2.594a1 1 0 0 0 1-1v-6a1 1 0 0 0 -1-1z"/><path d="m17.068 21.892a3 3 0 0 0 2.593-4.5 3 3 0 1 0 -2.592 4.5zm-.506-3.866a1 1 0 1 1 -.366 1.367 1 1 0 0 1 .366-1.367z"/><path d="m61.9 11.224a2.98 2.98 0 0 0 -1.4-1.824l-12.124-7a3 3 0 0 0 -4.1 1.1l-4.866 8.428a1 1 0 0 0 1.733 1l1.365-2.366 13.856 8-5.758 9.973a23.215 23.215 0 0 0 -13.856-8l2.393-4.142a1 1 0 1 0 -1.733-1l-3.133 5.427a1 1 0 0 0 .761 1.494 21.091 21.091 0 0 1 4.7 1.057l-3.738 6.466v-.837a1 1 0 0 0 -1-1h-6a1 1 0 0 0 -1 1v.837l-3.733-6.466a21.091 21.091 0 0 1 4.7-1.057 1 1 0 0 0 .761-1.494l-10-17.32a3 3 0 0 0 -4.1-1.1l-12.128 7a3 3 0 0 0 -1.1 4.1l5.513 9.549a1 1 0 0 0 1.732-1l-2.01-3.487 11.693-6.75a1 1 0 0 0 -1-1.733l-11.693 6.751-1-1.732 13.856-8 7.758 13.437a23.215 23.215 0 0 0 -13.856 8l-1.746-3.022a1 1 0 1 0 -1.732 1l2.485 4.307a1 1 0 0 0 .814.5h.053a1 1 0 0 0 .808-.412 21.094 21.094 0 0 1 3.261-3.538l3.02 5.23-2.5 2.5a1 1 0 0 0 0 1.414l1.836 1.836a13.866 13.866 0 0 0 -1.098 2.65h-2.594a1 1 0 0 0 0 2h3.362a1 1 0 0 0 .973-.77 11.9 11.9 0 0 1 1.46-3.518 1 1 0 0 0 -.144-1.233l-1.672-1.671 1.414-1.415 2 3.471a3.986 3.986 0 0 1 .324 3.239l-2.578 4.466a1 1 0 0 0 .366 1.367l2.04 1.177a9.011 9.011 0 0 0 3.645 4.4 1 1 0 0 0 1.055-1.7 7 7 0 0 1 -2.936-3.7 1.008 1.008 0 0 0 -.448-.547l-1.49-.86 2-3.464 1.829 1.048a4.992 4.992 0 0 0 8.475 4.893l1.825 1.056-2 3.464-1.49-.86a1.008 1.008 0 0 0 -.7-.114 6.9 6.9 0 0 1 -1.724.126 1.015 1.015 0 0 0 -1.046.953 1 1 0 0 0 .952 1.046 9.079 9.079 0 0 0 1.832-.1l2.04 1.178a1.014 1.014 0 0 0 .5.133 1 1 0 0 0 .866-.5l3.8-6.579a5.974 5.974 0 0 0 .393-5.183l-.581-1.488a3.974 3.974 0 0 1 .262-3.455l4.659-8.07a1 1 0 0 0 -1.733-1l-4.658 8.07a5.969 5.969 0 0 0 -.393 5.184l.581 1.487a3.981 3.981 0 0 1 -.26 3.459l-.3.517-1.82-1.051a5 5 0 0 0 -8.485-4.9l-1.82-1.05.3-.517a3.99 3.99 0 0 1 2.863-1.954l1.578-.241a5.969 5.969 0 0 0 4.293-2.931l6.2-10.743a21.186 21.186 0 0 1 8.313 6.787 1 1 0 0 0 .808.412h.053a1 1 0 0 0 .814-.5l10.003-17.319a2.973 2.973 0 0 0 .3-2.276zm-43.409-5.858-13.856 8-.5-.867a1 1 0 0 1 .365-1.364l12.125-7a1 1 0 0 1 1.366.365zm14.946 36.909a3 3 0 1 1 -4.1 1.1 2.981 2.981 0 0 1 4.1-1.1zm-7.795-4.25a5.932 5.932 0 0 0 -.513-1.161l-6.2-10.743a21.218 21.218 0 0 1 3.463-2l6.2 10.743a5.942 5.942 0 0 0 .9 1.156l-.259.04a5.956 5.956 0 0 0 -3.591 1.965zm6.352-2.6a4 4 0 0 1 -1.669-1.556l-.525-.91a1 1 0 0 0 .2-.593v-2.366h4v2.361a.993.993 0 0 0 .2.594l-.526.909a3.97 3.97 0 0 1 -1.68 1.556zm14.622-31.391a1.006 1.006 0 0 1 .759.1l12.125 7a1 1 0 0 1 .365 1.365l-.5.866-13.856-8 .5-.866a1 1 0 0 1 .607-.465zm-3.107 4.8 1-1.732 13.856 8-1 1.732z"/><path d="m46.932 21.893a3 3 0 1 0 -2.592-4.5 3 3 0 0 0 2.593 4.5zm-.86-3.5a1 1 0 1 1 .366 1.366 1 1 0 0 1 -.366-1.366z"/></g></g></svg>