<?xml version="1.0" encoding="iso-8859-1"?>
<!-- Generator: Adobe Illustrator 19.0.0, SVG Export Plug-In . SVG Version: 6.00 Build 0)  -->
<svg version="1.1" id="Capa_1" xmlns="http://www.w3.org/2000/svg" xmlns:xlink="http://www.w3.org/1999/xlink" x="0px" y="0px"
	 viewBox="0 0 512 512" style="enable-background:new 0 0 512 512;" xml:space="preserve">
<path style="fill:#303C42;" d="M384,192h-98.344l-8.646-34.583c-1.188-4.75-5.448-8.083-10.344-8.083v-48c0-8.823,7.177-16,16-16
	c8.823,0,16,7.177,16,16v16c0,17.646,14.354,32,32,32c17.646,0,32-14.354,32-32V74.667C362.667,68.771,357.896,64,352,64
	c-5.896,0-10.667,4.771-10.667,10.667v42.667c0,5.885-4.781,10.667-10.667,10.667c-5.885,0-10.667-4.781-10.667-10.667v-16
	C320,80.75,303.25,64,282.667,64c-20.583,0-37.333,16.75-37.333,37.333v48c-4.896,0-9.156,3.333-10.344,8.083L226.344,192H128
	C57.417,192,0,249.417,0,320s57.417,128,128,128c36.615,0,71.104-15.49,95.406-42.667h65.188C312.896,432.51,347.385,448,384,448
	c70.583,0,128-57.417,128-128S454.583,192,384,192z"/>
<path style="fill:#E6E6E6;" d="M384,426.667c-31.938,0-61.927-14.135-82.281-38.792c-2.031-2.458-5.042-3.875-8.229-3.875H218.51
	c-3.188,0-6.198,1.417-8.229,3.875c-20.354,24.656-50.344,38.792-82.281,38.792c-58.813,0-106.667-47.854-106.667-106.667
	S69.188,213.333,128,213.333h256c58.813,0,106.667,47.854,106.667,106.667S442.813,426.667,384,426.667z"/>
<path style="fill:#303C42;" d="M181.333,298.667h-32v-32c0-5.896-4.771-10.667-10.667-10.667h-21.333
	c-5.896,0-10.667,4.771-10.667,10.667v32h-32c-5.896,0-10.667,4.771-10.667,10.667v21.333c0,5.896,4.771,10.667,10.667,10.667h32v32
	c0,5.896,4.771,10.667,10.667,10.667h21.333c5.896,0,10.667-4.771,10.667-10.667v-32h32c5.896,0,10.667-4.771,10.667-10.667v-21.333
	C192,303.438,187.229,298.667,181.333,298.667z"/>
<linearGradient id="SVGID_1_" gradientUnits="userSpaceOnUse" x1="-43.1248" y1="631.0533" x2="-41.1342" y2="629.0627" gradientTransform="matrix(21.3333 0 0 -21.3333 996.3334 13791.667)">
	<stop  offset="0" style="stop-color:#000000;stop-opacity:0.1"/>
	<stop  offset="1" style="stop-color:#000000;stop-opacity:0"/>
</linearGradient>
<path style="fill:url(#SVGID_1_);" d="M106.667,373.333v-32h-32c-2.896,0-5.504-1.172-7.424-3.042l42.466,42.466
	C107.839,378.837,106.667,376.229,106.667,373.333z"/>
<linearGradient id="SVGID_2_" gradientUnits="userSpaceOnUse" x1="-39.7031" y1="630.4844" x2="-35.8504" y2="626.6317" gradientTransform="matrix(21.3333 0 0 -21.3333 996.3334 13791.667)">
	<stop  offset="0" style="stop-color:#000000;stop-opacity:0.1"/>
	<stop  offset="1" style="stop-color:#000000;stop-opacity:0"/>
</linearGradient>
<path style="fill:url(#SVGID_2_);" d="M188.958,301.909c1.87,1.921,3.042,4.529,3.042,7.424v21.333
	c0,5.896-4.771,10.667-10.667,10.667h-32v32c0,5.896-4.771,10.667-10.667,10.667h-21.333c-2.896,0-5.504-1.172-7.424-3.042
	l42.771,42.771c22.374-5.301,42.611-17.695,57.602-35.854c2.031-2.458,5.042-3.875,8.229-3.875h52.539L188.958,301.909z"/>
<linearGradient id="SVGID_3_" gradientUnits="userSpaceOnUse" x1="-40.2707" y1="633.9044" x2="-38.281" y2="631.9157" gradientTransform="matrix(21.3333 0 0 -21.3333 996.3334 13791.667)">
	<stop  offset="0" style="stop-color:#000000;stop-opacity:0.1"/>
	<stop  offset="1" style="stop-color:#000000;stop-opacity:0"/>
</linearGradient>
<path style="fill:url(#SVGID_3_);" d="M181.333,298.667c2.896,0,5.504,1.172,7.424,3.042l-42.436-42.436l-0.005,0.005
	c1.853,1.918,3.017,4.509,3.017,7.389v32H181.333z"/>
<g>
	<path style="fill:#303C42;" d="M384,298.667c11.76,0,21.333-9.573,21.333-21.333S395.76,256,384,256
		c-11.76,0-21.333,9.573-21.333,21.333S372.24,298.667,384,298.667z"/>
	<path style="fill:#303C42;" d="M341.333,298.667C329.573,298.667,320,308.24,320,320c0,11.76,9.573,21.333,21.333,21.333
		s21.333-9.573,21.333-21.333C362.667,308.24,353.094,298.667,341.333,298.667z"/>
</g>
<linearGradient id="SVGID_4_" gradientUnits="userSpaceOnUse" x1="-28.6849" y1="633.4661" x2="-24.1984" y2="628.9796" gradientTransform="matrix(21.3333 0 0 -21.3333 996.3334 13791.667)">
	<stop  offset="0" style="stop-color:#000000;stop-opacity:0.1"/>
	<stop  offset="1" style="stop-color:#000000;stop-opacity:0"/>
</linearGradient>
<path style="fill:url(#SVGID_4_);" d="M486.038,349.371L400,263.333l-0.125,0.105c3.286,3.754,5.458,8.527,5.458,13.895
	c0,11.76-9.573,21.333-21.333,21.333c-5.678,0-10.784-2.311-14.612-5.943l95.853,95.573
	C474.73,377.027,481.842,363.889,486.038,349.371z"/>
<linearGradient id="SVGID_5_" gradientUnits="userSpaceOnUse" x1="-30.6849" y1="631.4661" x2="-26.1977" y2="626.9789" gradientTransform="matrix(21.3333 0 0 -21.3333 996.3334 13791.667)">
	<stop  offset="0" style="stop-color:#000000;stop-opacity:0.1"/>
	<stop  offset="1" style="stop-color:#000000;stop-opacity:0"/>
</linearGradient>
<path style="fill:url(#SVGID_5_);" d="M452.449,401.116L357.333,306l-0.125,0.105c3.286,3.754,5.458,8.527,5.458,13.895
	c0,11.76-9.573,21.333-21.333,21.333c-5.678,0-10.784-2.311-14.612-5.943l86.841,86.587
	C428.07,417.755,441.197,410.626,452.449,401.116z"/>
<g>
	<path style="fill:#303C42;" d="M426.667,298.667c-11.76,0-21.333,9.573-21.333,21.333c0,11.76,9.573,21.333,21.333,21.333
		c11.76,0,21.333-9.573,21.333-21.333C448,308.24,438.427,298.667,426.667,298.667z"/>
	<path style="fill:#303C42;" d="M384,341.333c-11.76,0-21.333,9.573-21.333,21.333c0,11.76,9.573,21.333,21.333,21.333
		c11.76,0,21.333-9.573,21.333-21.333C405.333,350.906,395.76,341.333,384,341.333z"/>
</g>
<linearGradient id="SVGID_6_" gradientUnits="userSpaceOnUse" x1="-44.1629" y1="638.2616" x2="-23.4307" y2="628.5945" gradientTransform="matrix(21.3333 0 0 -21.3333 996.3334 13791.667)">
	<stop  offset="0" style="stop-color:#FFFFFF;stop-opacity:0.2"/>
	<stop  offset="1" style="stop-color:#FFFFFF;stop-opacity:0"/>
</linearGradient>
<path style="fill:url(#SVGID_6_);" d="M384,192h-98.344l-8.646-34.583c-1.188-4.75-5.448-8.083-10.344-8.083v-48
	c0-8.823,7.177-16,16-16c8.823,0,16,7.177,16,16v16c0,17.646,14.354,32,32,32c17.646,0,32-14.354,32-32V74.667
	C362.667,68.771,357.896,64,352,64c-5.896,0-10.667,4.771-10.667,10.667v42.667c0,5.885-4.781,10.667-10.667,10.667
	c-5.885,0-10.667-4.781-10.667-10.667v-16C320,80.75,303.25,64,282.667,64c-20.583,0-37.333,16.75-37.333,37.333v48
	c-4.896,0-9.156,3.333-10.344,8.083L226.344,192H128C57.417,192,0,249.417,0,320s57.417,128,128,128
	c36.615,0,71.104-15.49,95.406-42.667h65.188C312.896,432.51,347.385,448,384,448c70.583,0,128-57.417,128-128S454.583,192,384,192z
	"/>
<g>
</g>
<g>
</g>
<g>
</g>
<g>
</g>
<g>
</g>
<g>
</g>
<g>
</g>
<g>
</g>
<g>
</g>
<g>
</g>
<g>
</g>
<g>
</g>
<g>
</g>
<g>
</g>
<g>
</g>
</svg>
