<svg id="Capa_1" enable-background="new 0 0 512 512" height="512" viewBox="0 0 512 512" width="512" xmlns="http://www.w3.org/2000/svg"><g><g><g><path d="m462.225 7.5v366.27l-347.08 55.01-65.37 10.36v-366.28c0-36.1 29.27-65.36 65.37-65.36z" fill="#9dc6fb"/><path d="m115.145 7.5v421.28l-65.37 10.36v-366.28c0-36.1 29.27-65.36 65.37-65.36z" fill="#80b4fb"/><path d="m462.221 373.772h-347.079c-36.099 0-65.364 29.264-65.364 65.364 0 36.099 29.264 65.364 65.364 65.364h347.079z" fill="#80b4fb"/><path d="m429.133 403.772h33.088v70.728h-33.088z" fill="#9dc6fb"/><path d="m115.143 474.5c-19.5 0-35.364-15.864-35.364-35.364s15.864-35.364 35.364-35.364h313.991v70.728z" fill="#f9f6f9"/><path d="m216.625 7.5h-101.483v56.377c0 17.641 20.551 27.302 34.135 16.047l16.606-13.759 16.606 13.759c13.584 11.255 34.135 1.594 34.135-16.047v-56.377z" fill="#ffe07d"/></g><g><path d="m322.445 272.096h-11.501v-56.23-19.52c0-9.898-8.024-17.922-17.922-17.922h-63.241c-10.339 0-18.721 8.382-18.721 18.721 0 10.339 8.382 18.721 18.721 18.721h16.199v56.23h-16.199c-10.339 0-18.721 8.382-18.721 18.721 0 10.339 8.382 18.721 18.721 18.721h92.663c10.339 0 18.721-8.382 18.721-18.721.001-10.339-8.381-18.721-18.72-18.721z" fill="#f9f6f9"/><path d="m267.308 215.863v56.222h-16.204c-10.341 0-18.72 8.391-18.72 18.732 0 5.158 2.101 9.838 5.485 13.234 3.384 3.384 8.064 5.485 13.235 5.485h-21.324c-5.171 0-9.85-2.101-13.235-5.485-3.397-3.397-5.485-8.077-5.485-13.234 0-10.341 8.378-18.732 18.72-18.732h16.204v-56.222h-16.204c-5.171 0-9.85-2.088-13.235-5.485-3.397-3.384-5.485-8.064-5.485-13.235 0-10.341 8.378-18.72 18.72-18.72h21.324c-10.341 0-18.72 8.379-18.72 18.72 0 5.171 2.101 9.85 5.485 13.235 3.384 3.397 8.064 5.485 13.235 5.485z" fill="#dddaec"/><circle cx="278.462" cy="117.239" fill="#f9f6f9" r="32.482"/><path d="m289.597 147.759c-3.472 1.271-7.221 1.963-11.134 1.963-17.94 0-32.483-14.543-32.483-32.483s14.543-32.482 32.483-32.482c3.912 0 7.661.692 11.134 1.963-12.455 4.541-21.349 16.493-21.349 30.52 0 14.026 8.894 25.977 21.349 30.519z" fill="#dddaec"/></g></g><g><path d="m469.72 99.76c0-4.142-3.358-7.5-7.5-7.5s-7.5 3.358-7.5 7.5v266.512h-339.577c-23.562 0-44.536 11.251-57.863 28.652v-322.064c0-29.362 21.99-53.669 50.363-57.358v48.375c0 11.098 6.239 20.925 16.283 25.647 10.043 4.722 21.591 3.257 30.137-3.825l11.821-9.794 11.821 9.794c5.226 4.33 11.573 6.56 18.013 6.56 4.092 0 8.222-.901 12.124-2.735 10.043-4.721 16.283-14.549 16.283-25.647v-48.877h230.595v54.76c0 4.142 3.358 7.5 7.5 7.5s7.5-3.358 7.5-7.5v-62.26c0-4.142-3.358-7.5-7.5-7.5h-347.08c-40.175 0-72.86 32.685-72.86 72.86v366.257.019c0 40.177 32.687 72.864 72.864 72.864h347.079c4.142 0 7.5-3.358 7.5-7.5zm-260.595-35.883c0 5.303-2.865 9.816-7.664 12.072-4.8 2.256-10.102 1.583-14.186-1.8l-16.606-13.759c-2.775-2.3-6.795-2.3-9.57 0l-16.606 13.759c-4.083 3.383-9.387 4.056-14.186 1.8s-7.664-6.769-7.664-12.072v-48.877h86.482zm-93.982 433.123c-31.903 0-57.859-25.953-57.864-57.855 0-.002 0-.028 0-.028.01-31.897 25.964-57.845 57.863-57.845h339.579v14.998h-324.581c-4.142 0-7.5 3.358-7.5 7.5s3.358 7.5 7.5 7.5h291.494v55.73h-306.494c-15.362 0-27.86-12.498-27.86-27.86 0-10.871 6.406-20.825 16.32-25.359 3.767-1.723 5.424-6.173 3.701-9.94s-6.173-5.423-9.94-3.701c-15.236 6.969-25.081 22.277-25.081 39 0 23.633 19.227 42.86 42.86 42.86h339.582v15zm339.577-85.73v55.73h-18.086v-55.73z"/><path d="m229.782 264.596c-14.458 0-26.221 11.763-26.221 26.221s11.763 26.221 26.221 26.221h92.663c14.458 0 26.221-11.763 26.221-26.221s-11.763-26.221-26.221-26.221h-4.001v-68.251c0-14.017-11.404-25.421-25.421-25.421h-63.241c-14.458 0-26.221 11.763-26.221 26.221s11.763 26.221 26.221 26.221h8.699v41.23zm16.198-56.23h-16.199c-6.187 0-11.221-5.034-11.221-11.221s5.034-11.221 11.221-11.221h63.241c5.747 0 10.421 4.675 10.421 10.421v75.751c0 4.142 3.358 7.5 7.5 7.5h11.501c6.187 0 11.221 5.034 11.221 11.221s-5.034 11.221-11.221 11.221h-92.663c-6.187 0-11.221-5.034-11.221-11.221s5.034-11.221 11.221-11.221h16.199c4.142 0 7.5-3.358 7.5-7.5v-56.23c0-4.142-3.357-7.5-7.5-7.5z"/><path d="m318.444 117.239c0-22.046-17.936-39.982-39.981-39.982s-39.982 17.936-39.982 39.982 17.936 39.982 39.982 39.982 39.981-17.936 39.981-39.982zm-64.964 0c0-13.775 11.207-24.982 24.982-24.982s24.981 11.207 24.981 24.982-11.207 24.982-24.981 24.982-24.982-11.207-24.982-24.982z"/></g></g></svg>