<svg id="Layer_1" enable-background="new 0 0 512 512" viewBox="0 0 512 512" xmlns="http://www.w3.org/2000/svg"><g><g><path clip-rule="evenodd" d="m409.992 179.124c5.317 4.614 10.184 9.622 14.601 14.967l46.983-7.484 21.016 52.525-39.19 26.98c.478 6.921.422 13.926-.253 20.931l38.515 27.908-22.31 52.019-46.786-8.637c-4.614 5.289-9.622 10.184-14.967 14.573l7.483 47.011-52.525 20.988-26.98-39.19c-6.921.478-13.926.422-20.903-.253l-27.937 38.515-52.019-22.282 8.665-46.786c-5.317-4.614-10.184-9.65-14.601-14.995l-47.011 7.512-20.988-52.553 39.19-26.98c-.478-6.921-.422-13.898.253-20.903l-38.515-27.937 22.282-51.991 46.786 8.637c4.614-5.317 9.65-10.184 14.995-14.601l-7.484-46.983 52.525-21.016 26.98 39.19c6.921-.478 13.898-.394 20.903.253l27.937-38.515 51.991 22.31z" fill="#ff5ba8" fill-rule="evenodd"/></g><g><path clip-rule="evenodd" d="m402.171 425.067-39.612 15.839-15.305-22.197c18.175 5.627 36.771 7.652 54.917 6.358zm-88.874-21.691-26.558 36.602-52.019-22.282 8.665-46.786c-5.317-4.614-10.184-9.65-14.601-14.995l-47.011 7.512-20.988-52.553 39.19-26.98c-.478-6.921-.422-13.898.253-20.903l-38.515-27.937 22.282-51.991 46.786 8.637c4.614-5.317 9.65-10.184 14.995-14.601l-7.484-46.983 52.525-21.016 24.87 36.123c-26.839 15.67-49.037 39.781-62.231 70.503-29.849 69.658-3.065 149.332 59.841 187.65z" fill="#ed4593" fill-rule="evenodd"/></g><g><path clip-rule="evenodd" d="m361.462 193.866c44.817 19.215 65.579 71.122 46.364 115.938-19.215 44.789-71.122 65.551-115.939 46.336-44.789-19.215-65.551-71.122-46.336-115.91 19.216-44.817 71.122-65.58 115.911-46.364z" fill="#e4e3ff" fill-rule="evenodd"/></g><g><path clip-rule="evenodd" d="m346.129 229.652c25.067 10.747 36.658 39.753 25.911 64.792-10.747 25.067-39.753 36.658-64.791 25.911-25.067-10.719-36.658-39.753-25.911-64.792 10.718-25.068 39.752-36.659 64.791-25.911z" fill="#5b5e8b" fill-rule="evenodd"/></g><g><path clip-rule="evenodd" d="m307.783 356.14c-44.817-19.215-65.579-71.122-46.364-115.91 13.251-30.863 42.003-50.331 73.232-53.172-37.052-3.348-73.654 17.105-89.099 53.172-19.215 44.789 1.547 96.695 46.336 115.91 13.954 5.992 28.584 8.103 42.707 6.808-9.003-.816-18.063-3.038-26.812-6.808z" fill="#d0d0f7" fill-rule="evenodd"/></g><g><path clip-rule="evenodd" d="m322.384 320.354c-25.067-10.719-36.658-39.753-25.911-64.792 6.949-16.233 21.55-26.811 37.783-29.343-21.747-3.376-43.86 8.187-52.919 29.343-10.747 25.039.844 54.073 25.911 64.792 8.834 3.798 18.146 4.811 26.98 3.432-3.995-.619-7.961-1.744-11.844-3.432z" fill="#4a4d71" fill-rule="evenodd"/></g><g><path clip-rule="evenodd" d="m253.063 145.673c37.643 0 68.337-30.694 68.337-68.337 0-37.642-30.694-68.336-68.337-68.336-37.615 0-68.308 30.694-68.308 68.336 0 37.643 30.694 68.337 68.308 68.337z" fill="#3399fd" fill-rule="evenodd"/></g><g><path clip-rule="evenodd" d="m75.512 133.913c27.571-8.665 58.94-2.054 80.8 19.806 21.944 21.944 28.527 53.454 19.693 81.137l205.459 205.459c14.292 14.292 14.292 37.671 0 51.963-14.292 14.292-37.671 14.292-51.991 0l-205.43-205.459c-27.683 8.834-59.193 2.279-81.137-19.693-21.888-21.86-28.471-53.201-19.806-80.8l43.41 43.382 41.328-11.056 11.056-41.328z" fill="#e4e3ff" fill-rule="evenodd"/></g><g><path clip-rule="evenodd" d="m360.111 502.716c-10.888 1.35-22.31-2.11-30.638-10.438l-205.43-205.459c-27.683 8.834-59.193 2.279-81.137-19.693-20.34-20.341-27.486-48.896-21.381-74.976-.056 20.566 7.765 41.159 23.463 56.886 21.972 21.944 53.482 28.499 81.137 19.693z" fill="#d0d0f7" fill-rule="evenodd"/></g><g><path clip-rule="evenodd" d="m117.037 427.402 21.297-21.297c3.348-31.65 7.399-62.597 16.655-88.311l24.251 24.223 71.234-71.234c6.724-6.724 17.752-6.724 24.476 0l2.926 2.926c6.724 6.724 6.724 17.752 0 24.504l4.642-4.642c6.724-6.752 17.752-6.752 24.476 0l2.926 2.898c6.724 6.752 6.724 17.752 0 24.504l-4.642 4.642c6.724-6.752 17.752-6.752 24.505 0l2.898 2.898c6.724 6.752 6.724 17.752 0 24.504l-10.747 10.747c6.724-6.724 17.752-6.724 24.504 0l2.898 2.898c6.724 6.752 6.724 17.78 0 24.504l-60.487 60.487c-31.566 18.765-67.999 31.453-108.567 38.993z" fill="#ffbfa8" fill-rule="evenodd"/></g><g><path clip-rule="evenodd" d="m253.063 9c1.885 0 3.742.084 5.599.225-35.139 2.841-62.766 32.241-62.766 68.111s27.627 65.27 62.766 68.111c-1.857.141-3.714.225-5.599.225-37.727 0-68.308-30.581-68.308-68.337 0-37.726 30.581-68.335 68.308-68.335z" fill="#1f88f0" fill-rule="evenodd"/></g></g><path d="m496.867 308.648-34.992-25.356c.262-4.324.313-8.713.154-13.125l35.609-24.491c3.062-2.105 4.257-6.05 2.879-9.5l-21.034-52.67c-1.379-3.451-4.965-5.488-8.635-4.904l-42.719 6.802c-2.9-3.276-5.959-6.413-9.151-9.383l7.873-42.508c.677-3.655-1.268-7.291-4.684-8.756l-52.135-22.359c-3.415-1.462-7.388-.368-9.571 2.639l-25.391 35.005c-4.387-.261-8.767-.31-13.1-.147l-9.892-14.382c10.902-13.215 17.458-30.142 17.458-48.572 0-42.149-34.291-76.44-76.44-76.44s-76.44 34.291-76.44 76.44c0 35.402 24.195 65.251 56.914 73.904l3.644 22.934c-3.278 2.901-6.417 5.961-9.384 9.152l-25.677-4.745c-4.321-.794-8.466 2.056-9.264 6.374s2.056 8.466 6.374 9.263l30.058 5.554c.482.089.966.133 1.446.133 2.281 0 4.48-.983 6.005-2.741 4.266-4.916 8.996-9.53 14.059-13.714 2.169-1.792 3.23-4.598 2.788-7.377l-3.555-22.373c1.008.04 2.016.077 3.033.077 17.917 0 34.401-6.213 47.448-16.576l10.852 15.779c1.6 2.327 4.319 3.619 7.132 3.425 6.431-.473 13.038-.399 19.636.213 2.795.261 5.521-.976 7.17-3.249l24.268-33.456 40.453 17.35-7.527 40.639c-.513 2.771.478 5.607 2.607 7.453 4.922 4.271 9.536 9.002 13.715 14.06 1.793 2.171 4.598 3.224 7.38 2.789l40.839-6.501 16.321 40.867-34.043 23.412c-2.318 1.593-3.62 4.293-3.427 7.099.46 6.655.38 13.272-.236 19.667-.27 2.806.966 5.547 3.249 7.201l33.455 24.243-17.327 40.451-40.641-7.503c-2.761-.508-5.589.477-7.436 2.593-4.311 4.941-9.055 9.561-14.101 13.731-2.17 1.793-3.23 4.601-2.787 7.381l6.5 40.811-5.742 2.294c-4.079 1.629-6.063 6.255-4.435 10.333 1.243 3.11 4.229 5.004 7.386 5.004.982 0 1.98-.184 2.947-.57l11.645-4.652c3.451-1.378 5.487-4.964 4.903-8.635l-6.8-42.69c3.273-2.896 6.417-5.956 9.4-9.154l42.522 7.85c3.653.67 7.289-1.271 8.753-4.689l22.331-52.134c1.467-3.417.369-7.391-2.64-9.57zm-304.306-231.708c0-33.381 27.157-60.537 60.537-60.537s60.537 27.156 60.537 60.537-27.157 60.538-60.537 60.538-60.537-27.157-60.537-60.538zm169.935 279.505c-2.116-3.848-.711-8.682 3.137-10.798 15.91-8.746 28.094-22.182 35.235-38.852 17.498-40.812-1.462-88.253-42.265-105.76-19.769-8.475-41.657-8.743-61.632-.756-19.974 7.989-35.643 23.277-44.12 43.051-1.731 4.036-6.403 5.907-10.442 4.174-4.036-1.73-5.905-6.405-4.174-10.442 10.15-23.676 28.913-41.983 52.831-51.548 23.918-9.566 50.13-9.244 73.806.906 48.861 20.962 71.565 77.772 50.614 126.638-8.55 19.961-23.14 36.049-42.19 46.523-1.215.668-2.529.985-3.823.985-2.808.001-5.529-1.488-6.977-4.121zm2.508-65.021c4.372-10.198 4.515-21.484.4-31.778s-11.997-18.371-22.194-22.743c-18.914-8.118-41.201-.981-51.842 16.602-2.273 3.757-7.163 4.962-10.919 2.686-3.757-2.274-4.959-7.162-2.686-10.919 14.726-24.333 45.557-34.21 71.717-22.983 14.099 6.045 25 17.216 30.691 31.455 5.691 14.238 5.495 29.845-.551 43.948-4.693 10.939-12.505 20.006-22.592 26.221-1.3.802-2.741 1.183-4.163 1.183-2.668 0-5.275-1.343-6.777-3.782-2.304-3.739-1.141-8.637 2.598-10.941 7.282-4.485 12.925-11.039 16.318-18.949zm1.788 162.912c6.459 6.459 6.466 16.996.016 23.488-3.259 3.238-7.529 4.855-11.793 4.855-4.253 0-8.501-1.609-11.736-4.823-6.482-6.525-6.475-17.062-.016-23.52 6.487-6.487 17.042-6.487 23.529 0zm-14.519-54.338 2.895-2.895c4.775-4.755 7.409-11.104 7.416-17.876.007-6.786-2.623-13.157-7.404-17.939l-2.916-2.916c-2.68-2.669-5.818-4.613-9.164-5.832 4.892-9.521 3.354-21.519-4.612-29.485l-2.904-2.904c-3.575-3.575-8.037-5.947-12.895-6.914 1.367-7.848-.969-16.23-7.011-22.297l-2.905-2.904c-4.776-4.775-11.135-7.404-17.912-7.404-.009 0-.019 0-.027 0-1.478.002-2.935.128-4.36.374-.968-4.863-3.342-9.32-6.913-12.878l-2.903-2.902c-4.776-4.776-11.135-7.405-17.913-7.405-.009 0-.018 0-.027 0-6.772.007-13.121 2.641-17.865 7.405l-13.678 13.678-46.394-46.395c7.879-30.308-.736-62.344-23.056-84.636-23.366-23.366-57.465-31.712-88.99-21.783-2.651.834-4.673 2.993-5.334 5.692s.135 5.549 2.101 7.514l40.234 40.235-8.708 32.551-32.55 8.73-40.26-40.259c-1.967-1.967-4.819-2.763-7.517-2.1-2.7.662-4.859 2.688-5.691 5.341-9.9 31.532-1.541 65.629 21.811 88.98 22.293 22.324 54.33 30.939 84.638 23.061l24.194 24.206c-8.41 25.611-12.285 55.82-15.174 82.771l-19.333 19.36c-3.103 3.108-3.1 8.141.008 11.245 3.107 3.104 8.142 3.1 11.245-.008l21.316-21.345c1.285-1.286 2.09-2.974 2.281-4.782 2.549-24.097 5.801-51.112 12.393-74.492l14.092 14.092.981.982c1.553 1.553 3.588 2.33 5.624 2.33 1.78 0 3.56-.594 5.017-1.783.208-.17.411-.352.605-.546l71.405-71.404c1.753-1.761 4.106-2.732 6.624-2.735h.01c2.529 0 4.896.975 6.668 2.748l2.915 2.914c1.76 1.753 2.732 4.107 2.735 6.625.002 2.532-.973 4.905-2.747 6.678l-35.047 35.047c-3.105 3.105-3.105 8.139 0 11.245 1.553 1.552 3.587 2.329 5.622 2.329s4.07-.777 5.622-2.329l35.039-35.039c.003-.003.007-.006.01-.009l4.664-4.665c1.753-1.76 4.107-2.731 6.625-2.734h.01c2.528 0 4.896.975 6.667 2.746l2.893 2.893c3.669 3.684 3.675 9.662.011 13.325l-4.652 4.653-35.047 35.047c-3.105 3.106-3.105 8.139 0 11.245 1.553 1.552 3.587 2.329 5.622 2.329s4.07-.777 5.623-2.329l35.043-35.044c.001-.001.003-.002.004-.004 1.771-1.772 4.136-2.747 6.657-2.747s4.885.975 6.657 2.747l2.904 2.904c3.67 3.671 3.67 9.643 0 13.314l-10.771 10.771c-.001.001-.002.002-.003.003l-24.274 24.273c-3.105 3.105-3.105 8.139 0 11.245 1.553 1.553 3.587 2.329 5.622 2.329 2.034 0 4.07-.777 5.622-2.329l24.269-24.268c3.677-3.657 9.658-3.658 13.322-.009l2.904 2.905c1.774 1.774 2.749 4.145 2.747 6.677-.003 2.519-.974 4.872-2.747 6.636l-59.913 59.913c-29.705 17.501-65.132 30.148-105.316 37.593-4.318.8-7.169 4.949-6.369 9.267.709 3.829 4.051 6.504 7.809 6.504.481 0 .969-.044 1.458-.134 40.036-7.419 75.666-19.848 106.025-36.964l36.428 36.403c8.429 8.43 19.673 13.072 31.662 13.072 11.988 0 23.232-4.642 31.661-13.072 8.43-8.429 13.072-19.673 13.072-31.661s-4.642-23.232-13.072-31.661zm-173.188-69.006-49.699-49.724c-2.104-2.104-5.205-2.86-8.041-1.953-25.966 8.287-54.044 1.474-73.278-17.785-15.836-15.835-23.263-37.697-20.771-59.411l33.183 33.183c2.009 2.01 4.937 2.793 7.682 2.057l41.42-11.109c2.744-.736 4.887-2.88 5.622-5.625l11.081-41.42c.734-2.742-.051-5.669-2.059-7.677l-33.166-33.167c21.706-2.512 43.579 4.911 59.426 20.759 19.254 19.229 26.067 47.306 17.781 73.274-.904 2.834-.151 5.935 1.953 8.039l49.713 49.713zm197.05 156.191c-5.426 5.426-12.677 8.414-20.417 8.414s-14.991-2.988-20.418-8.416l-35.118-35.092 40.846-40.846 35.107 35.107c5.426 5.426 8.414 12.677 8.414 20.417s-2.988 14.99-8.414 20.416zm-89.878-410.243c0 4.392-3.56 7.952-7.951 7.952h-17.256v17.285c0 4.392-3.56 7.952-7.951 7.952s-7.951-3.56-7.951-7.952v-17.285h-17.284c-4.392 0-7.951-3.56-7.951-7.952s3.56-7.952 7.951-7.952h17.284v-17.254c0-4.392 3.56-7.952 7.951-7.952s7.951 3.56 7.951 7.952v17.255h17.256c4.391 0 7.951 3.56 7.951 7.951z"/></svg>