<svg id="Capa_1" enable-background="new 0 0 512 512" height="512" viewBox="0 0 512 512" width="512" xmlns="http://www.w3.org/2000/svg"><g><g><path d="m452.442 436.993h-392.884c-10.246 0-18.551-8.306-18.551-18.551v-324.884c0-10.246 8.306-18.551 18.551-18.551h392.884c10.246 0 18.551 8.306 18.551 18.551v324.884c0 10.245-8.306 18.551-18.551 18.551z" fill="#fee97d"/><path d="m452.442 75.007h-33.15c10.246 0 18.551 8.306 18.551 18.551v324.884c0 10.245-8.306 18.551-18.551 18.551h33.15c10.245 0 18.551-8.306 18.551-18.551v-324.884c0-10.245-8.306-18.551-18.551-18.551z" fill="#fedf30"/><path d="m74.157 403.843v-295.686h199.333c7.299 0 14.307 2.866 19.515 7.98l38.173 37.488c5.208 5.114 12.215 7.98 19.515 7.98h87.151v242.237h-363.687z" fill="#6c7fd8"/><g fill="#4f66d0"><path d="m301.169 153.626c5.208 5.115 12.215 7.98 19.515 7.98h30.008c-7.299 0-14.307-2.866-19.515-7.98l-38.173-37.488c-5.208-5.115-12.215-7.98-19.515-7.98h-30.008c7.299 0 14.307 2.866 19.515 7.98z"/><path d="m407.835 161.606h30.008v242.237h-30.008z"/></g><path d="m433.495 134.584h-17.731c-2.401 0-4.348-1.947-4.348-4.348v-17.731c0-2.401 1.947-4.348 4.348-4.348h17.731c2.401 0 4.348 1.947 4.348 4.348v17.731c0 2.401-1.947 4.348-4.348 4.348z" fill="#cb97e7"/></g><g><path d="m433.495 142.083c6.533 0 11.848-5.315 11.848-11.848v-17.73c0-6.533-5.315-11.848-11.848-11.848h-17.73c-6.533 0-11.848 5.315-11.848 11.848v17.73c0 6.533 5.315 11.848 11.848 11.848zm-14.578-26.426h11.426v11.426h-11.426z"/><path d="m336.433 148.275-38.173-37.488c-6.651-6.532-15.448-10.13-24.77-10.13h-199.333c-4.142 0-7.5 3.358-7.5 7.5v295.686c0 4.142 3.358 7.5 7.5 7.5h275.88c4.142 0 7.5-3.358 7.5-7.5s-3.358-7.5-7.5-7.5h-268.38v-280.686h191.833c5.367 0 10.431 2.071 14.26 5.832l38.173 37.488c6.651 6.532 15.448 10.129 24.77 10.129h79.651v227.237h-45.268c-4.142 0-7.5 3.358-7.5 7.5s3.358 7.5 7.5 7.5h52.768c4.142 0 7.5-3.358 7.5-7.5v-242.237c0-4.142-3.358-7.5-7.5-7.5h-87.151c-5.367 0-10.432-2.071-14.26-5.831z"/><path d="m355.368 212.907c-4.118-.227-7.9 2.35-9.177 6.282-.028.085-.054.172-.079.259l-14.082 49.398-14.597-49.476c-.026-.089-.054-.177-.083-.265-1.316-3.92-5.129-6.465-9.244-6.189-4.126.276-7.554 3.306-8.352 7.452l-12.517 69.351c-.736 4.076 1.973 7.977 6.049 8.713 4.075.732 7.978-1.972 8.713-6.049l8.098-44.87 13.312 45.119c.026.089.054.178.083.266 1.249 3.719 4.715 6.208 8.634 6.208h.048c3.939-.02 7.401-2.551 8.617-6.297.028-.086.054-.172.079-.258l12.853-45.086 8.599 44.994c.778 4.069 4.708 6.739 8.774 5.959 4.069-.777 6.736-4.706 5.959-8.774l-13.275-69.462c-.825-4.051-4.284-7.042-8.412-7.275z"/><path d="m188.314 238.9c0-14.341-12.137-26.008-27.056-26.008h-18.924c-.004 0-.008.001-.012.001s-.008-.001-.011-.001c-4.142 0-7.5 3.358-7.5 7.5v71.216c0 4.142 3.358 7.5 7.5 7.5s7.5-3.358 7.5-7.5v-23.874l25.373 28.829c1.482 1.685 3.552 2.545 5.633 2.545 1.76 0 3.527-.616 4.952-1.87 3.109-2.736 3.412-7.476.675-10.585l-19.626-22.299c12.26-2.472 21.496-12.944 21.496-25.454zm-27.056 11.009c-2.621 0-7.297.02-11.335.041-.021-3.959-.042-8.511-.042-11.049 0-2.145-.012-6.868-.024-11.008h11.401c6.535 0 12.056 5.041 12.056 11.008s-5.521 11.008-12.056 11.008z"/><path d="m239.343 212.892c-23.77 0-43.107 19.338-43.107 43.108s19.338 43.108 43.107 43.108c23.77 0 43.108-19.338 43.108-43.108s-19.338-43.108-43.108-43.108zm0 71.216c-15.499 0-28.107-12.609-28.107-28.108s12.609-28.108 28.107-28.108 28.108 12.609 28.108 28.108-12.609 28.108-28.108 28.108z"/><path d="m504.5 154.395c4.142 0 7.5-3.358 7.5-7.5s-3.358-7.5-7.5-7.5h-26.007v-21.369h26.007c4.142 0 7.5-3.358 7.5-7.5s-3.358-7.5-7.5-7.5h-26.007v-9.468c0-14.365-11.687-26.051-26.051-26.051h-7.099v-26.007c0-4.142-3.358-7.5-7.5-7.5s-7.5 3.358-7.5 7.5v26.007h-21.369v-26.007c0-4.142-3.358-7.5-7.5-7.5s-7.5 3.358-7.5 7.5v26.007h-21.369v-26.007c0-4.142-3.358-7.5-7.5-7.5s-7.5 3.358-7.5 7.5v26.007h-21.369v-26.007c0-4.142-3.358-7.5-7.5-7.5s-7.5 3.358-7.5 7.5v26.007h-21.368v-26.007c0-4.142-3.358-7.5-7.5-7.5s-7.5 3.358-7.5 7.5v26.007h-21.368v-26.007c0-4.142-3.358-7.5-7.5-7.5s-7.5 3.358-7.5 7.5v26.007h-21.369v-26.007c0-4.142-3.358-7.5-7.5-7.5s-7.5 3.358-7.5 7.5v26.007h-21.368v-26.007c0-4.142-3.358-7.5-7.5-7.5s-7.5 3.358-7.5 7.5v26.007h-21.369v-26.007c0-4.142-3.358-7.5-7.5-7.5s-7.5 3.358-7.5 7.5v26.007h-21.369v-26.007c0-4.142-3.358-7.5-7.5-7.5s-7.5 3.358-7.5 7.5v33.507c0 4.142 3.358 7.5 7.5 7.5h341.916c6.094 0 11.051 4.958 11.051 11.051v324.884c0 6.094-4.958 11.051-11.051 11.051h-392.883c-6.094 0-11.051-4.958-11.051-11.051v-324.884c0-6.094 4.958-11.051 11.051-11.051h14.599c4.142 0 7.5-3.358 7.5-7.5v-33.507c0-4.142-3.358-7.5-7.5-7.5s-7.5 3.358-7.5 7.5v26.007h-7.099c-14.365 0-26.051 11.687-26.051 26.051v9.468h-26.007c-4.142 0-7.5 3.358-7.5 7.5s3.358 7.5 7.5 7.5h26.007v21.369h-26.007c-4.142 0-7.5 3.358-7.5 7.5s3.358 7.5 7.5 7.5h26.007v21.369h-26.007c-4.142 0-7.5 3.358-7.5 7.5s3.358 7.5 7.5 7.5h26.007v21.368h-26.007c-4.142 0-7.5 3.358-7.5 7.5s3.358 7.5 7.5 7.5h26.007v21.368h-26.007c-4.142 0-7.5 3.358-7.5 7.5s3.358 7.5 7.5 7.5h26.007v21.369h-26.007c-4.142 0-7.5 3.358-7.5 7.5s3.358 7.5 7.5 7.5h26.007v21.368h-26.007c-4.142 0-7.5 3.358-7.5 7.5s3.358 7.5 7.5 7.5h26.007v21.369h-26.007c-4.142 0-7.5 3.358-7.5 7.5s3.358 7.5 7.5 7.5h26.007v21.369h-26.007c-4.142 0-7.5 3.358-7.5 7.5s3.358 7.5 7.5 7.5h26.007v9.468c0 14.365 11.687 26.051 26.051 26.051h7.099v26.006c0 4.142 3.358 7.5 7.5 7.5s7.5-3.358 7.5-7.5v-26.007h21.369v26.007c0 4.142 3.358 7.5 7.5 7.5s7.5-3.358 7.5-7.5v-26.007h21.369v26.007c0 4.142 3.358 7.5 7.5 7.5s7.5-3.358 7.5-7.5v-26.007h21.369v26.007c0 4.142 3.358 7.5 7.5 7.5s7.5-3.358 7.5-7.5v-26.007h21.368v26.007c0 4.142 3.358 7.5 7.5 7.5s7.5-3.358 7.5-7.5v-26.007h21.368v26.007c0 4.142 3.358 7.5 7.5 7.5s7.5-3.358 7.5-7.5v-26.007h21.369v26.007c0 4.142 3.358 7.5 7.5 7.5s7.5-3.358 7.5-7.5v-26.007h21.368v26.007c0 4.142 3.358 7.5 7.5 7.5s7.5-3.358 7.5-7.5v-26.007h21.369v26.007c0 4.142 3.358 7.5 7.5 7.5s7.5-3.358 7.5-7.5v-26.007h21.369v26.007c0 4.142 3.358 7.5 7.5 7.5s7.5-3.358 7.5-7.5v-26.007h21.369v26.007c0 4.142 3.358 7.5 7.5 7.5s7.5-3.358 7.5-7.5v-26.007h7.099c14.365 0 26.051-11.687 26.051-26.051v-9.468h26.006c4.142 0 7.5-3.358 7.5-7.5s-3.358-7.5-7.5-7.5h-26.007v-21.369h26.007c4.142 0 7.5-3.358 7.5-7.5s-3.358-7.5-7.5-7.5h-26.007v-21.369h26.007c4.142 0 7.5-3.358 7.5-7.5s-3.358-7.5-7.5-7.5h-26.007v-21.368h26.007c4.142 0 7.5-3.358 7.5-7.5s-3.358-7.5-7.5-7.5h-26.007v-21.368h26.007c4.142 0 7.5-3.358 7.5-7.5s-3.358-7.5-7.5-7.5h-26.007v-21.369h26.007c4.142 0 7.5-3.358 7.5-7.5s-3.358-7.5-7.5-7.5h-26.007v-21.368h26.007c4.142 0 7.5-3.358 7.5-7.5s-3.358-7.5-7.5-7.5h-26.007v-21.369h26.007z"/><path d="m282.451 328.737c0-4.142-3.358-7.5-7.5-7.5h-132.64c-4.142 0-7.5 3.358-7.5 7.5s3.358 7.5 7.5 7.5h132.64c4.142 0 7.5-3.358 7.5-7.5z"/><path d="m142.311 348.122c-4.142 0-7.5 3.358-7.5 7.5s3.358 7.5 7.5 7.5h40.952c4.142 0 7.5-3.358 7.5-7.5s-3.358-7.5-7.5-7.5z"/></g></g></svg>