<svg clip-rule="evenodd" fill-rule="evenodd" height="512" image-rendering="optimizeQuality" shape-rendering="geometricPrecision" text-rendering="geometricPrecision" viewBox="0 0 43.3492 43.3492" width="512" xmlns="http://www.w3.org/2000/svg"><g id="Layer_x0020_1"><g id="_629877728"><path id="_629880752" d="m28.1906 22.0549c.0022 0 .0044-.0001.0066-.0001zm-4.4826.5089c.062.062.1405.0978.2213.1079-.0006-.0001-.0013-.0001-.0019-.0002-.0806-.0105-.1583-.0464-.2194-.1077zm-4.3315-4.1659c-.0018 0-.0037 0-.0055 0zm.3742-.3526c-.0062.0876-.0426.1735-.1095.241.0634-.0648.1023-.1511.1095-.241zm-.1103-.2959c.0855.0855.1186.1931.1103.2959.0001-.0004.0001-.0008.0001-.0012.0072-.1057-.0296-.2139-.1104-.2947zm8.17 3.5449v-1.7585-2.1379-1.8597h-1.4794l.0001 3.2024c0 .101-.0397.1981-.111.2694l-.6208.6198c-.0742.0743-.1713.1119-.2683.1119-.0114 0-.0227-.0005-.0341-.0015-.0858-.0076-.1695-.0445-.2353-.1104-.1485-.1485-.1485-.3891 0-.5376l.509-.509v-3.045h-1.7573-.0003-1.7586v3.5599c0 .2098-.1703.3802-.3802.3801-.21 0-.3803-.1702-.3803-.3801l.0001-3.5599h-1.7573-.0003-2.1385-.0003-1.8597v1.4795h-.3735-.0067c-.2075 0-.3762.1663-.3802.373 0 .0024-.0001.0048-.0001.0072 0 .0025.0001.005.0001.0074.004.2065.1728.3728.3802.3728h.3802v1.7577 2.1388 2.1388 1.7577h3.03l.509-.509c.1486-.1486.3891-.1485.5377 0 .1485.1485.1485.3891 0 .5377l-.6208.6208c-.0713.0713-.1675.1109-.2684.1109h-3.1875v1.4794h1.8596 2.1388 1.7576l.0001-3.5598c0-.21.1702-.3802.3802-.3802.2099-.0001.3802.1703.3802.3802v3.5598h1.3783l.0001-3.0558-.5089-.509c-.1486-.1485-.1486-.389-.0001-.5376s.3891-.1485.5376 0l.62.6208c.0713.0713.1118.1674.1118.2684v3.2132h1.7576 1.8596v-1.8596-2.1379c0-.2109.1703-.3802.3802-.3802h.3802v-1.3784h-.3736c.2069-.0035.3737-.1726.3736-.3802 0-.2068-.1652-.3752-.3708-.3802l-.0093-.0001z" fill="#6b809b"/><path id="_629880368" d="m33.6358 42.5887v-6.0799c0-.6773-.5507-1.2278-1.228-1.2278h-21.4673c-.6773 0-1.2278.5506-1.2278 1.2279v6.0798zm-7.1146-1.8725c-.0004 0-.0007 0-.001 0zm-.3427-.2138c.0387.0802.1019.1403.1763.1763-.0802-.0387-.1404-.1019-.1763-.1763zm-1.0258-2.1204.0001 2.763c0 .2099-.1704.3803-.3803.3802-.2099 0-.3802-.1702-.3802-.3802v-4.4203c.0001-.0545.0118-.1083.034-.1574.0354-.0783.0974-.145.1809-.185.0499-.0242.106-.0377.1652-.0377.2101-.0001.3803.1702.3803.3802zm2.8212-1.8972c.0004-.0004.0007-.0008.001-.0012.0174-.0213.0369-.0403.0581-.057.0007-.0005.0013-.0011.002-.0016-.0225.0176-.043.0377-.0611.0598zm-6.783-.1402c1.428-.0001 2.5904 1.1614 2.5904 2.5903 0 1.4279-1.1625 2.5904-2.5903 2.5903-1.4289 0-2.5914-1.1624-2.5914-2.5903.0001-1.4289 1.1625-2.5903 2.5913-2.5903zm-3.2468 4.6331c.098.1851.0287.4149-.1564.5139-.0575.0307-.1189.0456-.1792.0455-.1357 0-.2674-.0732-.3358-.2019l-1.0855-2.032h-.7275v1.8299c0 .21-.1703.3803-.3802.3803-.21 0-.3803-.1703-.3803-.3802l.0001-2.2008c0-.0032-.0001-.0063-.0001-.0094l.0001-2.2102c0-.2099.1702-.3802.3802-.3802h1.2605c.8199 0 1.4853.6665 1.4853 1.4854 0 .5923-.3483 1.105-.8514 1.3432z" fill="#8dd8fa"/><path id="_629880632" d="m17.3975 27.8109c.21 0 .3803.1704.3803.3803v.3802h1.3783v-.3802c0-.21.1693-.3803.3802-.3803zm8.9335.7605.0001 2.1576c0 .2099-.1694.3803-.3803.3802-.2098 0-.3803-.1702-.3803-.3801l.0001-2.1577h-1.3774v2.1576c0 .2099-.1703.3803-.3802.3802-.2098 0-.3803-.1702-.3803-.3801l.0001-2.1577h-1.3784v2.1576c0 .2099-.1703.3803-.3802.3802-.21 0-.3803-.1702-.3803-.3801l.0001-2.1577h-1.3774v-.3802c0-.2099-.1703-.3803-.3803-.3803h1.7576l.0001-3.5598c0-.21.1702-.3802.3802-.3802.2099-.0001.3802.1703.3802.3802v3.5598h1.3783l.0001-3.0558-.5089-.509c-.1486-.1485-.1486-.389-.0001-.5376s.3891-.1485.5376 0l.62.6208c.0713.0713.1118.1674.1118.2684v3.2132h1.7576c.2109 0 .3802.1704.3802.3803zm1.4794-7.2771v-1.7585-2.1379-1.8597h-1.4794l.0001 3.2024c0 .101-.0397.1981-.111.2694l-.6208.6198c-.0742.0743-.1713.1119-.2683.1119-.0971 0-.1951-.0376-.2694-.1119-.1485-.1485-.1485-.3891 0-.5376l.509-.509v-3.045h-1.7573c-.0001 0-.0002 0-.0003 0h-1.7586v3.5599c0 .2098-.1703.3802-.3802.3801-.21 0-.3803-.1702-.3803-.3801l.0001-3.5599h-1.7573c-.0001 0-.0002 0-.0003 0h-2.1385c-.0001 0-.0002 0-.0003 0h-1.8597v1.4795l3.2133-.0001c.101 0 .1969.0397.2682.111l.621.6208c.1484.1486.1484.3892-.0001.5377-.0743.0743-.1713.1109-.2693.1108-.0971 0-.1941-.0365-.2684-.1108l-.5089-.509h-3.0558v1.7577 2.1388 2.1388 1.7577h3.03l.509-.509c.1486-.1486.3891-.1485.5377 0 .1485.1485.1485.3891 0 .5377l-.6208.6208c-.0713.0713-.1675.1109-.2684.1109h-3.1875v1.4794h1.8596c-.2099 0-.3802.1703-.3802.3803v.3802h-1.8596c-.2098 0-.3803-.1703-.3803-.3802v-1.8597h-2.1575c-.21 0-.3803-.1702-.3803-.3802.0001-.21.1703-.3802.3802-.3802h2.1577v-1.3775h-2.1576c-.21 0-.3803-.1702-.3803-.3802.0001-.2109.1703-.3802.3802-.3802h2.1577v-1.3784h-2.1576c-.21 0-.3803-.1703-.3803-.3802.0001-.21.1703-.3802.3802-.3802l2.1577-.0001v-1.3783h-2.1576c-.21 0-.3803-.1703-.3803-.3802.0001-.2101.1703-.3802.3802-.3802l2.1577-.0001v-1.3774h-2.1576c-.21 0-.3803-.1702-.3803-.3802.0001-.21.1703-.3802.3802-.3802l2.1577-.0001v-1.8596c0-.2099.1703-.3802.3802-.3802h1.8596v-2.1587c0-.2099.1703-.3802.3802-.3802.21-.0001.3803.1703.3803.3803v2.1586h1.3783v-2.1587c0-.2099.1693-.3802.3802-.3802.21-.0001.3803.1703.3803.3803v2.1586h1.3773l.0001-2.1587c0-.2099.1702-.3802.3802-.3802.2099-.0001.3802.1703.3802.3803v2.1586h1.3783l.0001-2.1587c0-.2099.1703-.3802.3802-.3802.2099-.0001.3802.1703.3802.3803v2.1586h1.3773l.0001-2.1587c0-.2099.1703-.3802.3802-.3802.2109-.0001.3802.1703.3802.3803l.0001 2.1586h1.8596c.2098 0 .3801.1703.3801.3803v1.8596l2.1587-.0001c.2099 0 .3802.1704.3802.3803s-.1703.3803-.3802.3802h-2.1587v1.3774l2.1587-.0001c.2099 0 .3802.1704.3802.3804 0 .2098-.1703.3802-.3802.3802h-2.1587v1.3784l2.1587-.0001c.2099 0 .3802.1704.3802.3803 0 .2098-.1703.3803-.3802.3802h-2.1587v1.3784l2.1587-.0001c.2099 0 .3802.1695.3802.3803 0 .2099-.1703.3803-.3802.3802h-2.1587l.0001 1.3775h2.1586c.2099 0 .3802.1703.3802.3802s-.1703.3802-.3802.3802h-2.1586-.3802c-.21 0-.3803-.1702-.3803-.3802v-2.1379-1.7585l-3.0547-.0001-.509.509c-.0742.0743-.1723.1109-.2694.1109-.097 0-.1951-.0366-.2693-.1109-.1475-.1485-.1475-.3891 0-.5377l.6209-.6209c.0713-.0713.1683-.1108.2683-.1108zm9.7366 21.2944v-31.9956h-8.2652c-.8644 0-1.5685-.7029-1.5685-1.5684v-8.2642h-21.9109v41.8282h3.1498v-6.0799c0-1.0971.8921-1.9882 1.9883-1.9882l21.4673-.0001c1.0963 0 1.9883.8913 1.9883 1.9884v6.0798z" fill="#ffcc80"/><g><path id="_629880824" d="m37.9272 43.3492h-32.505c-.21 0-.3803-.1703-.3803-.3802v-42.5888c0-.2099.1703-.3802.3802-.3802h22.6716c.2098 0 .3801.1703.3801.3802.0001.2099-.1703.3803-.3802.3803h-22.2912v41.8282h31.7446v-32.3757c0-.21.1702-.3803.3801-.3803.2101 0 .3803.1704.3803.3803l.0001 32.7559c0 .21-.1704.3804-.3803.3803z"/><path id="_629880464" d="m15.4597 38.5427h.8803c.4001 0 .7248-.3247.7248-.7247 0-.3992-.3248-.7249-.7248-.7249h-.8803zm.8803.7605h-1.2605c-.2099 0-.3803-.1702-.3803-.3802l.0001-2.2102c0-.2099.1703-.3802.3802-.3802h1.2605c.8199 0 1.4853.6664 1.4853 1.4854.0001.8188-.6654 1.4853-1.4853 1.4852z"/><path id="_629880176" d="m15.0795 41.5134c-.2099 0-.3803-.1703-.3803-.3802l.0001-2.2103c0-.2098.1703-.3801.3802-.3801.2099-.0001.3802.1703.3802.3802v2.2101c0 .21-.1703.3803-.3802.3803z"/><path id="_629880728" d="m17.6085 41.5371c-.1357 0-.2674-.0732-.3358-.2019l-1.194-2.235c-.0991-.1852-.0288-.4158.1563-.5148.1852-.0992.4159-.0288.5149.1564l1.1942 2.2359c.098.1851.0287.4149-.1564.5139-.0575.0307-.1189.0456-.1792.0455z"/><path id="_629880560" d="m21.191 37.1049c-1.0091 0-1.8309.821-1.8309 1.83.0001 1.009.8218 1.8299 1.8309 1.8299 1.009 0 1.8298-.8209 1.8298-1.8299.0001-1.0091-.8208-1.8299-1.8298-1.83zm0 4.4203c-1.4289 0-2.5914-1.1624-2.5914-2.5903.0001-1.429 1.1625-2.5904 2.5914-2.5904 1.4278 0 2.5903 1.1615 2.5903 2.5904 0 1.4279-1.1625 2.5904-2.5903 2.5903z"/><path id="_629879624" d="m26.5212 40.7162c-.1416 0-.2773-.0781-.3427-.2138l-1.7476-3.6124c-.0921-.189-.0129-.4167.1762-.5078.1892-.0912.4169-.0129.508.1762l1.7478 3.6122c.092.1892.0127.417-.1764.508-.0535.0257-.1099.0377-.1653.0376z"/><path id="_629879480" d="m26.5202 40.7162c-.0555 0-.1119-.0118-.1654-.0376-.1891-.091-.2674-.3188-.1763-.5079l1.7487-3.6123c.0911-.1881.3189-.2673.508-.1762.1891.091.2683.3188.1762.5079l-1.7485 3.6122c-.0654.1357-.2012.214-.3427.2139z"/><path id="_629879816" d="m24.7725 41.5252c-.2099 0-.3803-.1702-.3803-.3802l.0001-4.4203c0-.2099.1702-.3802.3802-.3802s.3802.1703.3802.3803l.0001 4.4202c0 .2099-.1704.3803-.3803.3802zm3.4964 0c-.2099 0-.3803-.1702-.3803-.3802l.0001-4.4203c0-.2099.1702-.3802.3801-.3802s.3803.1703.3803.3803v4.4202c0 .2099-.1704.3803-.3802.3802z"/><path id="_629880056" d="m28.4739 1.2981v7.7266c0 .4456.3623.808.8079.808h7.7275l-8.5354-8.5346zm9.4533 9.295h-8.6454c-.8644 0-1.5685-.7029-1.5685-1.5684l.0001-8.6445c0-.1536.093-.2921.2346-.3515.1426-.0585.306-.0257.4149.0822l9.8326 9.8337c.109.1079.1416.2723.0822.4139-.0584.1426-.1971.2347-.3505.2346z"/><path id="_629880104" d="m9.7127 42.5887h23.9231v-6.0799c0-.6773-.5507-1.2278-1.228-1.2278h-21.4673c-.6773 0-1.2278.5506-1.2278 1.2279zm24.3032.7605h-24.6834c-.21 0-.3803-.1703-.3803-.3802v-6.4602c0-1.0971.8921-1.9882 1.9883-1.9882l21.4673-.0001c1.0963 0 1.9883.8913 1.9883 1.9884v6.46c0 .21-.1703.3804-.3802.3803z"/><path id="_629879912" d="m15.5379 27.8109h12.2725v-12.2727h-12.2725zm12.6528.7605h-13.033c-.2098 0-.3802-.1703-.3802-.3802v-13.0332c0-.2099.1703-.3802.3802-.3802h13.033c.2099 0 .3801.1703.3801.3803l.0001 13.0331c0 .2098-.1704.3802-.3802.3802z"/><path id="_629879408" d="m17.3976 15.5382c-.21 0-.3803-.1702-.3803-.3801v-2.5389c0-.21.1703-.3803.3802-.3803.21-.0001.3802.1704.3802.3803l.0001 2.5388c0 .2099-.1704.3803-.3802.3802z"/><path id="_629879528" d="m19.5364 15.5382c-.211 0-.3803-.1702-.3803-.3801v-2.5389c0-.21.1693-.3803.3802-.3803.21-.0001.3803.1704.3803.3803v2.5388c0 .2099-.1704.3803-.3802.3802z"/><path id="_629879504" d="m21.6742 15.5382c-.21 0-.3803-.1702-.3803-.3801l.0001-2.5389c0-.21.1702-.3803.3802-.3803.2099-.0001.3802.1704.3802.3803v2.5388c0 .2099-.1703.3803-.3802.3802z"/><path id="_629880032" d="m23.813 15.5382c-.2098 0-.3803-.1702-.3803-.3801l.0001-2.5389c0-.21.1702-.3803.3802-.3803.2099-.0001.3802.1704.3802.3803v2.5388c0 .2099-.1703.3803-.3802.3802z"/><path id="_629878856" d="m25.9508 15.5382c-.2098 0-.3802-.1702-.3802-.3801v-2.5389c0-.21.1703-.3803.3802-.3803.2109-.0001.3802.1704.3802.3803v2.5388c0 .2099-.1693.3803-.3802.3802z"/><path id="_629879192" d="m17.3976 31.1093c-.21 0-.3803-.1703-.3803-.3802v-2.5379c0-.21.1703-.3803.3802-.3803.21 0 .3802.1704.3802.3803l.0001 2.5378c0 .2099-.1704.3803-.3802.3803z"/><path id="_629878808" d="m19.5364 31.1093c-.211 0-.3803-.1703-.3803-.3802v-2.5379c0-.21.1693-.3803.3802-.3803.21 0 .3803.1704.3803.3803v2.5378c0 .2099-.1704.3803-.3802.3803z"/><path id="_629879240" d="m21.6742 31.1093c-.21 0-.3803-.1703-.3803-.3802l.0001-2.5379c0-.21.1702-.3803.3802-.3803.2099 0 .3802.1704.3802.3803v2.5378c0 .2099-.1703.3803-.3802.3803z"/><path id="_629879216" d="m23.813 31.1093c-.2098 0-.3803-.1703-.3803-.3802l.0001-2.5379c0-.21.1702-.3803.3802-.3803.2099 0 .3802.1704.3802.3803v2.5378c0 .2099-.1703.3803-.3802.3803z"/><path id="_629879072" d="m25.9508 31.1093c-.2098 0-.3802-.1703-.3802-.3802v-2.5379c0-.21.1703-.3803.3802-.3803.2109 0 .3802.1704.3802.3803v2.5378c0 .2099-.1693.3803-.3802.3803z"/><path id="_629879000" d="m15.1577 17.7781h-2.5378c-.21 0-.3803-.1702-.3803-.3802.0001-.21.1703-.3802.3802-.3802l2.5379-.0001c.21 0 .3802.1704.3802.3803s-.1703.3803-.3802.3802z"/><path id="_629879048" d="m15.1577 19.916h-2.5378c-.21 0-.3803-.1703-.3803-.3802.0001-.21.1703-.3803.3802-.3803l2.5379-.0001c.21 0 .3802.1704.3802.3804 0 .2098-.1703.3802-.3802.3802z"/><path id="_629878976" d="m15.1577 22.0548h-2.5378c-.21 0-.3803-.1703-.3803-.3802.0001-.21.1703-.3802.3802-.3802l2.5379-.0001c.21 0 .3802.1704.3802.3803s-.1703.3803-.3802.3802z"/><path id="_629878928" d="m15.1577 24.1936h-2.5378c-.21 0-.3803-.1702-.3803-.3801.0001-.211.1703-.3803.3802-.3803l2.5379-.0001c.21 0 .3802.1694.3802.3804 0 .2098-.1703.3802-.3802.3801z"/><path id="_629878616" d="m15.1577 26.3315h-2.5378c-.21 0-.3803-.1703-.3803-.3802.0001-.21.1703-.3802.3802-.3802h2.5379c.21 0 .3802.1703.3802.3802s-.1703.3802-.3802.3802z"/><path id="_629878352" d="m30.7295 17.7781h-2.5388c-.21 0-.3803-.1702-.3803-.3802s.1703-.3802.3802-.3802l2.5389-.0001c.2099 0 .3802.1704.3802.3803s-.1703.3803-.3802.3802z"/><path id="_629878232" d="m30.7295 19.916h-2.5388c-.21 0-.3803-.1703-.3803-.3802 0-.21.1703-.3803.3802-.3803l2.5389-.0001c.2099 0 .3802.1704.3802.3804 0 .2098-.1703.3802-.3802.3802z"/><path id="_629878160" d="m30.7295 22.0548h-2.5388c-.21 0-.3803-.1703-.3803-.3802 0-.21.1703-.3802.3802-.3802l2.5389-.0001c.2099 0 .3802.1704.3802.3803s-.1703.3803-.3802.3802z"/><path id="_629878208" d="m30.7295 24.1936h-2.5388c-.21 0-.3803-.1702-.3803-.3801 0-.211.1703-.3803.3802-.3803l2.5389-.0001c.2099 0 .3802.1694.3802.3804 0 .2098-.1703.3802-.3802.3801z"/><path id="_629878472" d="m30.7295 26.3315h-2.5388c-.21 0-.3803-.1703-.3803-.3802 0-.21.1703-.3802.3802-.3802h2.5389c.2099 0 .3802.1703.3802.3802s-.1703.3802-.3802.3802z"/><path id="_629878424" d="m19.371 18.3979c-.0971 0-.1941-.0365-.2684-.1108l-.5088-.509h-3.4361c-.2098 0-.3802-.1702-.3802-.3802s.1703-.3802.3802-.3802l3.5935-.0001c.101 0 .1969.0397.2682.111l.6209.6208c.1485.1486.1485.3892 0 .5377-.0743.0743-.1713.1109-.2693.1108z"/><path id="_629878328" d="m25.331 19.7417c-.0971 0-.1951-.0376-.2694-.1119-.1485-.1485-.1485-.3891 0-.5376l.509-.509v-3.4351c0-.2099.1703-.3802.3802-.3802.2109 0 .3802.1703.3802.3803v3.5924c0 .101-.0396.1981-.1109.2694l-.6208.6198c-.0742.0743-.1713.1119-.2683.1119z"/><path id="_629877896" d="m21.6742 28.5714c-.21 0-.3803-.1703-.3803-.3802l.0001-3.9401c0-.21.1702-.3802.3802-.3802.2099-.0001.3802.1703.3802.3802v3.9401c0 .2098-.1703.3802-.3802.3802z"/><path id="_629878088" d="m21.6742 19.4783c-.21 0-.3803-.1703-.3803-.3802l.0001-3.9401c0-.2099.1702-.3802.3802-.3802.2099 0 .3802.1703.3802.3803v3.94c0 .2098-.1703.3802-.3802.3802z"/><path id="_629878064" d="m23.813 28.5714c-.2098 0-.3803-.1703-.3803-.3802l.0001-3.4361-.5089-.509c-.1487-.1485-.1487-.3891-.0001-.5376.1486-.1486.3891-.1485.5376 0l.62.6208c.0713.0713.1118.1674.1118.2684v3.5935c0 .2098-.1703.3802-.3802.3802z"/><path id="_629877272" d="m18.7254 26.3315h-3.5934c-.2099 0-.3803-.1703-.3803-.3802.0001-.21.1703-.3802.3803-.3802h3.4359l.509-.509c.1486-.1486.3891-.1485.5376 0 .1486.1485.1486.3891 0 .5377l-.6207.6208c-.0713.0713-.1674.1109-.2684.1109z"/><path id="_629877224" d="m23.9773 22.6747c-.097 0-.195-.0366-.2693-.1109-.1475-.1485-.1475-.3891 0-.5377l.6209-.6209c.0713-.0713.1683-.1108.2683-.1108l3.5935-.0001c.2099 0 .3801.1704.3801.3803.0001.2099-.1703.3803-.3802.3803l-3.4349-.0001-.509.509c-.0742.0743-.1723.1109-.2694.1109z"/></g><path id="_629877104" d="m37.0093 9.8327-8.5354-8.5346v7.7266c0 .4456.3623.808.8079.808z" fill="#e6b873"/><path id="_629877752" d="m21.1909 40.7648c1.0091 0 1.8299-.8209 1.8299-1.8299.0001-1.0091-.8209-1.8299-1.8298-1.83-1.0091 0-1.8309.821-1.8309 1.83.0001 1.009.8218 1.8299 1.8308 1.8299z" fill="#8dd8fa"/><path id="_629877656" d="m17.0648 37.818c0-.3992-.3248-.7249-.7248-.7249h-.8803v1.4496h.8803c.4001 0 .7248-.3247.7248-.7247z" fill="#8dd8fa"/><path id="_629877584" d="m19.7508 18.0441c0 .0004 0 .0008-.0001.0012.0001-.0004.0001-.0008.0001-.0012zm-.1104-.2947c.0852.0852.1184.1923.1104.2947.0001-.0002.0001-.0005.0001-.0007.0069-.1055-.0299-.2133-.1105-.294zm.1103.2959c-.0062.0876-.0426.1735-.1095.241.0005-.0006.001-.0011.0016-.0016.0003-.0003.0006-.0007.0009-.001.0616-.0642.0996-.1489.107-.2372 0-.0004 0-.0008 0-.0012zm-.3742.3526c-.0018 0-.0037 0-.0055 0zm4.5509 4.2736c-.0042-.0006-.0085-.0012-.0127-.0019.0042.0007.0085.0013.0127.0019zm3.883-3.1357v-2.1379-1.8597h-1.4794l.0001 3.2024c0 .101-.0397.1981-.111.2694l-.6208.6198c-.0742.0743-.1713.1119-.2683.1119-.0114 0-.0227-.0005-.0341-.0015-.0858-.0076-.1695-.0445-.2353-.1104-.1485-.1485-.1485-.3891 0-.5376l.509-.509v-3.045h-1.7573-.0003-1.7586v3.5599c0 .2098-.1703.3802-.3802.3801-.21 0-.3803-.1702-.3803-.3801l.0001-3.5599h-1.7573-.0003-2.1385-.0003-1.8597v1.4795l3.2133-.0001c.101 0 .1969.0397.2682.111l.621.6208c.085.085.1182.1918.1105.294 0 .0002 0 .0005-.0001.0007 0 .0004 0 .0008-.0001.0012v.0012c-.0064.0865-.0424.1713-.108.2382-.0004.0004-.0008.0009-.0013.0013-.0003.0004-.0007.0008-.0011.0011-.065.0661-.1556.1094-.2638.1108h-.0055c-.0971 0-.1941-.0365-.2684-.1108l-.5089-.509h-3.0558v1.7577 2.1388 2.1388 1.7577h3.03l.509-.509c.1486-.1486.3891-.1485.5377 0 .1485.1485.1485.3891 0 .5377l-.6208.6208c-.0713.0713-.1675.1109-.2684.1109h-3.1875v1.4794h1.8596 2.1388 1.7576l.0001-3.5598c0-.21.1702-.3802.3802-.3802.2099-.0001.3802.1703.3802.3802v3.5598h1.3783l.0001-3.0558-.5089-.509c-.1486-.1485-.1486-.389-.0001-.5376s.3891-.1485.5376 0l.62.6208c.0713.0713.1118.1674.1118.2684v3.2132h1.7576 1.8596v-1.8596-2.1379-1.7585l-3.0547-.0001-.509.509c-.0742.0743-.1723.1109-.2694.1109-.016 0-.0321-.001-.048-.003l-.0019-.0002c-.0042-.0006-.0085-.0012-.0127-.0019-.0755-.0124-.1484-.0475-.2067-.1058-.1475-.1485-.1475-.3891 0-.5377l.6209-.6209c.0713-.0713.1683-.1108.2683-.1108l3.2132-.0001z" fill="#a5d6a7"/></g></g></svg>