<svg id="Capa_1" enable-background="new 0 0 512 512" height="512" viewBox="0 0 512 512" width="512" xmlns="http://www.w3.org/2000/svg"><g><g><path d="m488.605 139.928c5.743 5.743 8.619 13.27 8.619 20.796 0 7.537-2.876 15.064-8.619 20.806l-52.005 52.005-40.051 12.598 11.839-40.811 13.72-13.72c4.941-4.941 7.416-11.425 7.416-17.91 0-6.484-2.475-12.969-7.416-17.91-9.892-9.891-25.927-9.891-35.819 0l-13.72 13.72-99.06-11.826 4.992-82.242 58.399-58.398c11.776-11.776 30.868-11.776 42.644 0 5.893 5.883 8.829 13.6 8.829 21.317s-2.937 15.434-8.829 21.327l-7.958 7.958c-8.9 8.9-8.9 23.342 0 32.241 4.45 4.46 10.293 6.685 16.126 6.685s11.666-2.225 16.116-6.685l50.452-50.442c11.485-11.495 30.116-11.495 41.602 0 5.753 5.743 8.619 13.27 8.619 20.806 0 7.526-2.866 15.053-8.619 20.796l-7.276 7.286c-11.497 11.486-11.497 30.108-.001 41.603z" fill="#3b66c1"/><path d="m452.893 249.836-104.502 104.502c-39.856 39.856-104.473 39.848-144.328-.007l-41.848-5.259-5.267-41.856c-39.856-39.856-39.863-104.473-.007-144.328l104.502-104.503z" fill="#f6f9f9"/><path d="m316.047 35.767h48.176v270.752h-48.176z" fill="#d5dff4" transform="matrix(.707 -.707 .707 .707 -21.393 290.639)"/><path d="m168.578 318.839 3.962 31.529-10.332-1.303-5.265-41.85c-39.848-39.859-39.859-104.48 0-144.328l104.5-104.5 11.625 11.625-104.5 104.5c-39.849 39.858-39.849 104.478.01 144.327z" fill="#d5dff4"/><path d="m162.215 349.071-50.236-12.366-91.517 91.517c-17.284 17.284-17.284 45.304.007 62.595 17.284 17.284 45.304 17.284 62.587 0l91.517-91.517zm-121.945 121.945c-6.35-6.35-6.358-16.643-.007-22.994 6.357-6.357 16.651-6.35 23.001 0s6.357 16.644 0 23.001c-6.351 6.351-16.644 6.344-22.994-.007z" fill="#a77d73"/><path d="m174.574 399.3-15.189 15.188-62.595-62.595 15.189-15.188 50.236 12.366z" fill="#98695e"/><path d="m37.149 444.909 91.517-91.517-16.687-16.687-91.517 91.517c-17.284 17.284-17.284 45.304.007 62.595 2.888 2.888 6.081 5.296 9.471 7.216-9.587-16.891-7.187-38.728 7.209-53.124z" fill="#98695e"/><path d="m183.793 408.517-81.032-81.032c-10.458-10.458-10.458-27.415 0-37.873 10.458-10.458 27.415-10.458 37.873 0l81.032 81.032c10.458 10.458 10.458 27.415 0 37.873-10.458 10.458-27.414 10.458-37.873 0z" fill="#a77d73"/><path d="m127.96 352.679-25.191-25.191c-10.46-10.46-10.46-27.424-.007-37.877 5.23-5.23 12.083-7.849 18.942-7.842 6.852 0 13.712 2.612 18.942 7.842l25.191 25.191c-5.23-5.23-12.09-7.842-18.942-7.842s-13.705 2.619-18.935 7.849c-10.453 10.454-10.461 27.41 0 37.87z" fill="#98695e"/></g><g><path d="m28.001 459.517c0 6.347 2.472 12.315 6.96 16.803s10.455 6.96 16.803 6.96 12.314-2.472 16.803-6.959h.001c9.264-9.265 9.264-24.34-.001-33.606-4.488-4.488-10.455-6.959-16.803-6.959s-12.314 2.472-16.802 6.959c-4.489 4.487-6.961 10.455-6.961 16.802zm17.567-6.196c1.654-1.655 3.854-2.566 6.195-2.566s4.542.912 6.196 2.566c3.417 3.417 3.417 8.976 0 12.393-1.655 1.655-3.855 2.566-6.196 2.566s-4.541-.911-6.196-2.567c-1.655-1.655-2.566-3.855-2.566-6.196s.911-4.541 2.567-6.196z"/><path d="m487.482 119.125c0-5.855 2.28-11.36 6.421-15.5l7.284-7.285c6.973-6.985 10.813-16.257 10.813-26.109 0-9.858-3.842-19.128-10.817-26.104-6.974-6.974-16.244-10.814-26.103-10.814s-19.13 3.84-26.104 10.814l-50.449 50.45c-2.886 2.885-6.727 4.474-10.817 4.474s-7.932-1.589-10.82-4.476c-2.891-2.888-4.482-6.728-4.482-10.814s1.592-7.926 4.489-10.82l7.947-7.957c7.117-7.118 11.036-16.576 11.036-26.633 0-10.051-3.919-19.505-11.037-26.623-14.675-14.675-38.56-14.675-53.246 0l-53.097 53.106-11.756-11.756c-1.407-1.407-3.314-2.197-5.304-2.197s-3.897.791-5.304 2.197l-104.5 104.509c-31.216 31.216-39.92 77.562-24.661 117.086-1.731-.266-3.493-.405-5.277-.405-9.157 0-17.766 3.566-24.239 10.041-6.476 6.475-10.042 15.083-10.042 24.24s3.566 17.766 10.041 24.24l3.915 3.915-41.266 41.275c-2.929 2.929-2.929 7.678.001 10.606 1.465 1.464 3.384 2.196 5.303 2.196 1.92 0 3.84-.732 5.304-2.197l41.265-41.274 51.992 51.993-86.217 86.207c-6.94 6.945-16.171 10.769-25.99 10.769s-19.05-3.824-25.994-10.773c-6.946-6.939-10.771-16.17-10.771-25.995 0-9.818 3.825-19.046 10.773-25.987l23.73-23.73c2.929-2.929 2.929-7.678 0-10.606-2.929-2.929-7.677-2.929-10.607 0l-23.728 23.727c-9.78 9.771-15.168 22.769-15.168 36.596 0 13.834 5.388 26.835 15.165 36.602 9.774 9.78 22.772 15.166 36.6 15.166s26.826-5.386 36.598-15.164l86.216-86.206 3.911 3.911h.001c6.683 6.683 15.461 10.024 24.239 10.024 8.779 0 17.558-3.342 24.241-10.024 8.03-8.03 11.229-19.085 9.61-29.532 12.709 4.912 26.121 7.357 39.515 7.357 28.255 0 56.412-10.826 77.598-32.011l104.5-104.5c2.929-2.929 2.929-7.678 0-10.606l-10.988-10.988 36.098-36.106c2.929-2.929 2.929-7.678-.001-10.606-2.932-2.93-7.681-2.928-10.606.001l-36.097 36.105-17.608-17.608 8.421-8.42c6.198-6.2 9.612-14.443 9.612-23.213s-3.414-17.013-9.613-23.213c-12.799-12.799-33.625-12.798-46.426 0l-8.42 8.42-83.46-83.46 53.095-53.104c8.837-8.828 23.208-8.83 32.035-.002 4.284 4.284 6.644 9.973 6.644 16.017 0 6.051-2.359 11.743-6.646 16.03l-7.943 7.954c-5.729 5.721-8.883 13.331-8.883 21.426s3.154 15.705 8.88 21.424c5.718 5.717 13.326 8.866 21.423 8.866s15.705-3.149 21.424-8.867l50.45-50.45c4.14-4.14 9.644-6.42 15.496-6.42s11.356 2.28 15.496 6.42c4.142 4.142 6.423 9.646 6.423 15.497 0 5.85-2.283 11.358-6.424 15.506l-7.28 7.28c-6.973 6.974-10.813 16.245-10.813 26.107 0 9.863 3.842 19.133 10.81 26.095 4.145 4.152 6.428 9.661 6.428 15.511 0 1.992-.266 3.947-.789 5.81-1.121 3.987 1.202 8.129 5.189 9.25.68.191 1.362.282 2.034.282 3.276 0 6.286-2.164 7.216-5.472.896-3.185 1.35-6.505 1.35-9.87 0-9.852-3.84-19.125-10.819-26.116-4.14-4.134-6.42-9.635-6.42-15.489zm-271.12 284.089c-3.642 3.642-8.482 5.647-13.633 5.647-5.149 0-9.991-2.005-13.634-5.647h.001l-81.032-81.032c-3.642-3.641-5.647-8.483-5.647-13.633s2.006-9.992 5.648-13.633c3.642-3.642 8.482-5.647 13.633-5.647s9.991 2.005 13.633 5.647l81.032 81.031c7.518 7.517 7.518 19.749-.001 27.267zm126.724-54.186c-33.272 33.271-86.438 36.931-123.836 8.591l-65.631-65.63c-28.297-37.403-24.628-90.542 8.625-123.795l65.129-65.134 180.841 180.84zm75.735-75.735-180.842-180.84 23.462-23.464 180.842 180.842zm-27.228-112.207c6.951-6.951 18.263-6.95 25.212 0 3.366 3.366 5.22 7.843 5.22 12.606s-1.854 9.24-5.219 12.606l-8.421 8.42-25.213-25.213z"/></g></g></svg>