<svg id="Capa_1" enable-background="new 0 0 512.706 512.706" height="512" viewBox="0 0 512.706 512.706" width="512" xmlns="http://www.w3.org/2000/svg"><g><g><g><g><g><circle cx="481.268" cy="31.234" fill="#7ca1b1" r="23.739"/></g><g><circle cx="31.438" cy="31.234" fill="#7ca1b1" r="23.739"/></g></g><g><g><circle cx="481.268" cy="481.472" fill="#7ca1b1" r="23.739"/></g><g><circle cx="31.438" cy="481.472" fill="#7ca1b1" r="23.739"/></g></g></g><g><g><g><path d="m505.008 31.235c0 13.112-10.634 23.736-23.736 23.736-10.514 0-19.429-6.826-22.547-16.301 3.438 1.949 7.416 3.058 11.643 3.058 13.112 0 23.736-10.634 23.736-23.736 0-2.598-.42-5.097-1.199-7.436 7.226 4.058 12.103 11.794 12.103 20.679z" fill="#678d98"/></g><g><path d="m55.181 31.235c0 13.112-10.634 23.736-23.746 23.736-10.504 0-19.429-6.826-22.537-16.301 3.438 1.949 7.406 3.058 11.633 3.058 13.112 0 23.746-10.634 23.746-23.736 0-2.598-.42-5.097-1.199-7.436 7.226 4.058 12.103 11.794 12.103 20.679z" fill="#678d98"/></g></g><g><g><path d="m505.008 481.472c0 13.112-10.634 23.736-23.736 23.736-10.514 0-19.429-6.826-22.547-16.3 3.438 1.949 7.416 3.058 11.643 3.058 13.112 0 23.736-10.624 23.736-23.736 0-2.598-.42-5.097-1.199-7.436 7.226 4.057 12.103 11.793 12.103 20.678z" fill="#678d98"/></g><g><path d="m55.181 481.472c0 13.112-10.634 23.736-23.746 23.736-10.504 0-19.429-6.826-22.537-16.3 3.438 1.949 7.406 3.058 11.633 3.058 13.112 0 23.746-10.624 23.746-23.736 0-2.598-.42-5.097-1.199-7.436 7.226 4.057 12.103 11.793 12.103 20.678z" fill="#678d98"/></g></g></g></g><g><g><path d="m427.571 438.395h-342.437c-10.56 0-19.12-8.56-19.12-19.12v-325.844c0-10.56 8.56-19.12 19.12-19.12h342.437c10.56 0 19.12 8.56 19.12 19.12v325.844c0 10.56-8.561 19.12-19.12 19.12z" fill="#deecf1"/></g><g><path d="m446.692 93.429v325.848c0 10.557-8.566 19.113-19.124 19.113h-27.974c10.557 0 19.113-8.556 19.113-19.113v-325.848c0-10.557-8.556-19.113-19.113-19.113h27.974c10.558 0 19.124 8.556 19.124 19.113z" fill="#cbe5e8"/></g><g><path d="m226.918 287.086 90.862-51.906c11.71-6.689 26.153-6.38 37.565.805l91.345 57.508v125.783c0 10.56-8.56 19.12-19.12 19.12h-200.652z" fill="#a6e7f0"/></g><g><path d="m446.692 293.494v125.783c0 10.557-8.566 19.113-19.124 19.113h-27.974c10.557 0 19.113-8.556 19.113-19.113v-143.4z" fill="#6bd9e7"/></g><g><path d="m66.014 256.353 80.808-44.606c12.738-7.032 28.436-5.829 39.954 3.061l157.896 121.863c11.137 8.596 17.66 21.869 17.66 35.937v65.787h-277.198c-10.56 0-19.12-8.56-19.12-19.12z" fill="#03bed7"/></g><g><path d="m362.338 350.295v88.095h-36.382v-53.231c0-14.677-6.805-28.525-18.424-37.492l-157.133-121.269c-5.079-3.92-10.958-6.343-17.048-7.218l13.476-7.439c12.738-7.028 28.427-5.827 39.954 3.066z" fill="#07b2cd"/></g><g><circle cx="358.821" cy="149.154" fill="#fea613" r="37.49"/></g><g><path d="m396.307 149.156c0 20.704-16.784 37.488-37.488 37.488-16.921 0-31.23-11.221-35.887-26.625 6.427 5.184 14.614 8.281 23.507 8.281 20.704 0 37.488-16.784 37.488-37.488 0-3.772-.558-7.418-1.591-10.852 8.524 6.87 13.971 17.396 13.971 29.196z" fill="#fb8801"/></g><g><path d="m481.268 62.468c17.223 0 31.235-14.011 31.235-31.234s-14.012-31.234-31.235-31.234c-17.222 0-31.234 14.011-31.234 31.235 0 17.222 14.012 31.233 31.234 31.233zm0-47.477c8.957 0 16.243 7.287 16.243 16.243s-7.287 16.242-16.243 16.242-16.242-7.287-16.242-16.242c0-8.956 7.286-16.243 16.242-16.243z"/><path d="m107.487 474.726h-24.812c-4.14 0-7.496 3.355-7.496 7.496s3.355 7.496 7.496 7.496h24.812c4.14 0 7.496-3.355 7.496-7.496s-3.356-7.496-7.496-7.496z"/><path d="m301.013 474.726h-24.812c-4.14 0-7.496 3.355-7.496 7.496s3.355 7.496 7.496 7.496h24.812c4.14 0 7.496-3.355 7.496-7.496s-3.356-7.496-7.496-7.496z"/><path d="m171.995 474.726h-24.811c-4.14 0-7.496 3.355-7.496 7.496s3.355 7.496 7.496 7.496h24.811c4.14 0 7.496-3.355 7.496-7.496s-3.356-7.496-7.496-7.496z"/><path d="m236.504 474.726h-24.811c-4.14 0-7.496 3.355-7.496 7.496s3.355 7.496 7.496 7.496h24.811c4.14 0 7.496-3.355 7.496-7.496s-3.356-7.496-7.496-7.496z"/><path d="m430.03 474.726h-24.81c-4.14 0-7.496 3.355-7.496 7.496s3.355 7.496 7.496 7.496h24.811c4.14 0 7.496-3.355 7.496-7.496s-3.356-7.496-7.497-7.496z"/><path d="m365.521 474.726h-24.811c-4.14 0-7.496 3.355-7.496 7.496s3.355 7.496 7.496 7.496h24.811c4.14 0 7.496-3.355 7.496-7.496s-3.356-7.496-7.496-7.496z"/><path d="m37.981 276.202c0-4.14-3.355-7.496-7.496-7.496s-7.496 3.355-7.496 7.496v24.812c0 4.14 3.355 7.496 7.496 7.496s7.496-3.355 7.496-7.496z"/><path d="m37.981 211.694c0-4.14-3.355-7.496-7.496-7.496s-7.496 3.355-7.496 7.496v24.811c0 4.14 3.355 7.496 7.496 7.496s7.496-3.355 7.496-7.496z"/><path d="m37.981 340.711c0-4.14-3.355-7.496-7.496-7.496s-7.496 3.355-7.496 7.496v24.811c0 4.14 3.355 7.496 7.496 7.496s7.496-3.355 7.496-7.496z"/><path d="m30.486 397.725c-4.14 0-7.496 3.355-7.496 7.496v24.811c0 4.14 3.355 7.496 7.496 7.496s7.496-3.355 7.496-7.496v-24.812c-.001-4.14-3.356-7.495-7.496-7.495z"/><path d="m37.981 82.675c0-4.14-3.355-7.496-7.496-7.496s-7.496 3.355-7.496 7.496v24.812c0 4.14 3.355 7.496 7.496 7.496s7.496-3.355 7.496-7.496z"/><path d="m37.981 147.185c0-4.14-3.355-7.496-7.496-7.496s-7.496 3.355-7.496 7.496v24.812c0 4.14 3.355 7.496 7.496 7.496s7.496-3.355 7.496-7.496z"/><path d="m147.185 37.981h24.811c4.14 0 7.496-3.355 7.496-7.496s-3.355-7.496-7.496-7.496h-24.811c-4.14 0-7.496 3.355-7.496 7.496s3.356 7.496 7.496 7.496z"/><path d="m405.22 37.981h24.812c4.14 0 7.496-3.355 7.496-7.496s-3.355-7.496-7.496-7.496h-24.812c-4.14 0-7.496 3.355-7.496 7.496s3.356 7.496 7.496 7.496z"/><path d="m211.693 37.981h24.812c4.14 0 7.496-3.355 7.496-7.496s-3.355-7.496-7.496-7.496h-24.812c-4.14 0-7.496 3.355-7.496 7.496s3.356 7.496 7.496 7.496z"/><path d="m276.202 37.981h24.811c4.14 0 7.496-3.355 7.496-7.496s-3.355-7.496-7.496-7.496h-24.811c-4.14 0-7.496 3.355-7.496 7.496s3.356 7.496 7.496 7.496z"/><path d="m340.712 37.981h24.811c4.14 0 7.496-3.355 7.496-7.496s-3.355-7.496-7.496-7.496h-24.811c-4.14 0-7.496 3.355-7.496 7.496s3.355 7.496 7.496 7.496z"/><path d="m82.676 37.981h24.811c4.14 0 7.496-3.355 7.496-7.496s-3.355-7.496-7.496-7.496h-24.811c-4.14 0-7.496 3.355-7.496 7.496s3.356 7.496 7.496 7.496z"/><path d="m489.717 276.202c0-4.14-3.355-7.496-7.496-7.496s-7.496 3.355-7.496 7.496v24.811c0 4.14 3.355 7.496 7.496 7.496s7.496-3.355 7.496-7.496z"/><path d="m489.717 211.693c0-4.14-3.355-7.496-7.496-7.496s-7.496 3.355-7.496 7.496v24.812c0 4.14 3.355 7.496 7.496 7.496s7.496-3.355 7.496-7.496z"/><path d="m482.222 397.724c-4.14 0-7.496 3.355-7.496 7.496v24.812c0 4.14 3.355 7.496 7.496 7.496s7.496-3.355 7.496-7.496v-24.812c-.001-4.141-3.356-7.496-7.496-7.496z"/><path d="m489.717 340.71c0-4.14-3.355-7.496-7.496-7.496s-7.496 3.355-7.496 7.496v24.812c0 4.14 3.355 7.496 7.496 7.496s7.496-3.355 7.496-7.496z"/><path d="m489.717 147.185c0-4.14-3.355-7.496-7.496-7.496s-7.496 3.355-7.496 7.496v24.811c0 4.14 3.355 7.496 7.496 7.496s7.496-3.355 7.496-7.496z"/><path d="m489.717 82.675c0-4.14-3.355-7.496-7.496-7.496s-7.496 3.355-7.496 7.496v24.811c0 4.14 3.355 7.496 7.496 7.496s7.496-3.355 7.496-7.496z"/><path d="m31.438 62.468c17.222 0 31.234-14.011 31.234-31.234s-14.011-31.234-31.234-31.234-31.235 14.011-31.235 31.235c0 17.222 14.012 31.233 31.235 31.233zm0-47.477c8.956 0 16.242 7.287 16.242 16.243s-7.287 16.242-16.242 16.242c-8.957 0-16.243-7.287-16.243-16.242 0-8.956 7.286-16.243 16.243-16.243z"/><path d="m481.268 450.238c-17.222 0-31.234 14.011-31.234 31.234s14.011 31.235 31.234 31.235 31.235-14.011 31.235-31.235c0-17.223-14.012-31.234-31.235-31.234zm0 47.477c-8.956 0-16.242-7.287-16.242-16.243s7.287-16.242 16.242-16.242c8.957 0 16.243 7.287 16.243 16.242.001 8.956-7.286 16.243-16.243 16.243z"/><path d="m31.438 450.238c-17.223 0-31.235 14.011-31.235 31.234s14.011 31.235 31.235 31.235c17.222 0 31.234-14.011 31.234-31.235 0-17.223-14.011-31.234-31.234-31.234zm0 47.477c-8.957 0-16.243-7.287-16.243-16.243s7.287-16.242 16.243-16.242 16.242 7.287 16.242 16.242c.001 8.956-7.286 16.243-16.242 16.243z"/><path d="m454.186 93.431c0-14.676-11.939-26.615-26.615-26.615h-342.437c-14.676 0-26.615 11.939-26.615 26.615v26.527c0 4.14 3.355 7.496 7.496 7.496s7.496-3.355 7.496-7.496v-26.527c0-6.409 5.215-11.624 11.624-11.624h342.437c6.409 0 11.624 5.215 11.624 11.624v186.485l-31.403-19.77c-3.502-2.204-8.132-1.154-10.337 2.349-2.206 3.504-1.154 8.132 2.349 10.337l39.39 24.798v121.646c0 6.409-5.215 11.624-11.624 11.624h-57.743v-58.291c0-16.276-7.692-31.929-20.576-41.872l-78.109-60.283 50.355-28.766c9.326-5.328 20.765-5.083 29.853.64l18.802 11.837c3.504 2.205 8.133 1.154 10.337-2.349 2.206-3.504 1.154-8.131-2.349-10.337l-18.802-11.837c-13.785-8.68-31.135-9.051-45.276-.971l-55.774 31.862-66.932-51.658c-13.889-10.72-32.79-12.171-48.156-3.69l-69.69 38.47v-88.241c0-4.14-3.355-7.496-7.496-7.496s-7.496 3.355-7.496 7.496v263.863c0 14.676 11.939 26.615 26.615 26.615h342.437c14.676 0 26.615-11.939 26.615-26.615zm-99.349 337.469h-269.703c-6.409 0-11.624-5.215-11.624-11.624v-158.499l76.935-42.468c10.128-5.591 22.591-4.637 31.753 2.433l157.896 121.862c9.232 7.125 14.743 18.342 14.743 30.004z"/><path d="m358.821 194.139c24.805 0 44.985-20.181 44.985-44.985s-20.181-44.985-44.985-44.985-44.985 20.181-44.985 44.985 20.18 44.985 44.985 44.985zm0-74.979c16.539 0 29.994 13.455 29.994 29.994s-13.455 29.994-29.994 29.994-29.994-13.455-29.994-29.994 13.455-29.994 29.994-29.994z"/></g></g></g></svg>