<svg id="Capa_1" enable-background="new 0 0 512 512" height="512" viewBox="0 0 512 512" width="512" xmlns="http://www.w3.org/2000/svg"><g><g><path d="m91.816 379.284-84.316 84.316 40.311 40.311.589.589 84.316-84.316z" fill="#516a80"/><path d="m370.2 46.187h133.383v57.842h-133.383z" fill="#516a80" transform="matrix(.707 -.707 .707 .707 74.853 330.928)"/><path d="m50.666 420.434c5.118 8.054 11.18 15.677 18.202 22.699 6.964 6.964 14.566 13.056 22.672 18.228l41.177-41.177-40.9-40.9z" fill="#475c70"/><path d="m107.718 258.843-17.638 17.637c-40.162 40.162-40.162 105.277 0 145.439 40.162 40.162 105.277 40.162 145.439 0l17.637-17.638z" fill="#ffa875"/><path d="m128.839 279.965-21.122-21.122-17.637 17.637c-40.162 40.162-40.162 105.277 0 145.439 1.278 1.277 2.581 2.514 3.908 3.71-14.281-46.454-2.135-102.233 34.851-145.664z" fill="#ff995d"/><path d="m226.869 205.865c-10.594-10.594-27.771-10.594-38.365 0l-60.027 60.027 38.365 38.365 60.027-60.027c10.595-10.594 10.595-27.771 0-38.365z" fill="#a6b6c4"/><path d="m306.135 285.131c-10.594-10.595-27.771-10.595-38.365 0l-60.027 60.027 38.365 38.365 60.027-60.026c10.594-10.595 10.594-27.772 0-38.366z" fill="#a6b6c4"/><path d="m453.939 98.961c-1.868-2.177-3.833-4.3-5.894-6.362l-28.644-28.644c-2.056-2.056-4.179-4.021-6.361-5.896l-43.756 43.756 40.9 40.9z" fill="#475c70"/><path d="m426.831 113.813-28.644-28.644c-32.252-32.252-84.543-32.252-116.795 0l-34.889 34.889 145.439 145.439 34.889-34.889c32.252-32.252 32.252-84.543 0-116.795z" fill="#ffa875"/><path d="m408.223 150.381-46.603-46.604c-7.146-7.146-18.731-7.146-25.877 0s-7.146 18.731 0 25.876l46.603 46.604c7.146 7.146 18.731 7.146 25.877 0 7.146-7.145 7.146-18.731 0-25.876z" fill="#516a80"/><path d="m277.693 371.819-137.512-137.512c-10.275-10.275-26.934-10.275-37.209 0l-6.079 6.08c-10.275 10.275-10.275 26.934 0 37.209l137.512 137.512c10.275 10.275 26.934 10.275 37.209 0l6.079-6.079c10.275-10.276 10.275-26.935 0-37.21z" fill="#516a80"/><path d="m284.026 123.637c29.217-29.217 65.742-45.697 101.467-48.868-32.081-21.361-75.803-17.898-104.101 10.4l-34.889 34.889 21.701 21.701c4.776-6.283 10.047-12.347 15.822-18.122z" fill="#ff995d"/><path d="m405.697 243.815-137.512-137.512c-10.275-10.275-26.934-10.275-37.209 0l-6.079 6.079c-10.275 10.275-10.275 26.934 0 37.209l137.512 137.512c10.275 10.275 26.934 10.275 37.209 0l6.079-6.079c10.275-10.275 10.275-26.934 0-37.209z" fill="#516a80"/><g fill="#475c70"><path d="m116.111 296.814c6.452-9.694 14.006-18.964 22.65-27.608 6.186-6.186 12.696-11.804 19.449-16.87l-18.029-18.028c-10.275-10.275-26.934-10.275-37.209 0l-6.079 6.08c-10.275 10.275-10.275 26.934 0 37.209z"/><path d="m284.026 123.637c.25-.25.504-.491.755-.738l-16.596-16.596c-10.275-10.275-26.934-10.275-37.209 0l-6.079 6.079c-10.275 10.275-10.275 26.934 0 37.209l24.106 24.106c8.22-17.892 19.917-34.954 35.023-50.06z"/></g></g><g><path d="m93.29 342.845c2.928 2.928 7.678 2.929 10.606 0l7.289-7.289c2.929-2.929 2.929-7.678 0-10.606-2.929-2.93-7.678-2.93-10.606 0l-7.289 7.289c-2.929 2.928-2.929 7.676 0 10.606z"/><path d="m179.763 418.71 7.289-7.289c2.929-2.929 2.929-7.677 0-10.606s-7.678-2.929-10.606 0l-7.289 7.289c-2.929 2.929-2.929 7.677 0 10.606 2.928 2.93 7.677 2.929 10.606 0z"/><path d="m147.258 392.74c4.133-.284 7.252-3.864 6.969-7.996-.284-4.133-3.862-7.251-7.996-6.969-6.798.472-12.476-5.155-12.005-12.005.284-4.132-2.836-7.712-6.968-7.996-4.126-.284-7.712 2.835-7.997 6.968-1.098 15.961 12.17 29.1 27.997 27.998z"/><path d="m366.923 98.474c-10.08-10.082-26.4-10.084-36.483 0-10.082 10.082-10.083 26.4 0 36.483l46.603 46.604c16.151 16.15 44.039 4.677 44.039-18.242 0-6.891-2.683-13.369-7.556-18.241zm35.997 72.48c-4.21 4.21-11.06 4.21-15.271 0l-46.603-46.604c-2.04-2.039-3.163-4.75-3.163-7.635 0-9.531 11.608-14.459 18.433-7.635l46.604 46.604c4.21 4.21 4.21 11.06 0 15.27z"/><path d="m43.097 509.804c2.928 2.928 7.679 2.928 10.606 0l61.162-61.162c39.788 19.218 90.501 13.516 125.362-20.838 12.234 4.976 26.794 2.502 36.69-7.393l6.079-6.079c13.213-13.213 13.216-34.601 0-47.816l-4.637-4.637 33.08-33.08c13.533-13.533 13.535-35.437 0-48.972-13.533-13.533-35.437-13.535-48.972 0l-33.079 33.08-30.294-30.294 33.079-33.079c21.983-21.983 5.985-59.115-24.486-59.115-9.25 0-17.946 3.603-24.486 10.143l-33.079 33.079-4.637-4.637c-13.183-13.183-34.633-13.183-47.816 0-2.739 3.592-15.982 11.758-15.982 29.987 0 4.46.861 8.787 2.498 12.794-33.485 33.997-40.413 84.485-20.788 125.311l-61.2 61.2c-2.929 2.929-2.929 7.677 0 10.606zm150.711-298.636c3.708-3.708 8.637-5.75 13.879-5.75 17.444 0 26.161 21.227 13.879 33.508l-33.079 33.079-27.759-27.758zm79.265 79.266c7.653-7.653 20.106-7.653 27.759 0 7.671 7.672 7.671 20.087 0 27.759l-33.08 33.08c-10.178-10.178-17.474-17.474-27.759-27.759zm-180.1-6.151 77.372 77.372c2.929 2.929 7.678 2.929 10.606 0 2.929-2.929 2.929-7.677 0-10.606-82.783-82.84-79.474-79.113-81.245-81.843-4.733-7.285-3.912-17.114 2.49-23.516l6.079-6.079c7.334-7.334 19.268-7.334 26.603 0 0 0 121.339 121.34 137.512 137.513 7.351 7.35 7.353 19.249 0 26.603l-6.079 6.079c-7.418 7.418-19.364 7.235-26.603 0l-38.238-38.238c-3.152-3.153-8.324-2.868-11.121.57-2.408 2.952-2.225 7.297.515 10.037l36.855 36.855c-37.535 34.93-96.19 33.733-132.334-2.411-36.28-36.29-37.212-94.941-2.412-132.336zm-21.868 126.319c7.672 11.476 17.996 22.041 30.282 30.306l-52.986 52.986-30.294-30.294z"/><path d="m509.804 43.097-40.9-40.9c-2.929-2.929-7.678-2.929-10.606 0l-67.272 67.272c-34.854-24.208-83.429-21.11-114.936 10.397l-13.738 13.738c-12.221-4.967-26.78-2.502-36.68 7.396l-6.079 6.079c-13.213 13.213-13.216 34.601 0 47.816l36.165 36.165c2.928 2.928 7.677 2.929 10.606 0s2.929-7.677 0-10.606l-36.164-36.166c-7.351-7.35-7.353-19.249 0-26.603l6.079-6.079c7.329-7.329 19.271-7.328 26.603 0 145.892 145.948 138.234 137.881 139.996 140.591 4.72 7.286 3.896 17.144-2.484 23.524l-6.079 6.079c-7.334 7.334-19.268 7.334-26.603 0l-80.322-80.323c-2.928-2.929-7.677-2.929-10.606 0s-2.929 7.677 0 10.606l80.322 80.323c13.182 13.182 34.633 13.183 47.816 0l6.079-6.08c9.899-9.898 12.364-24.458 7.397-36.679l13.737-13.737c17.015-17.015 26.386-39.638 26.386-63.701 0-18.581-5.609-36.291-15.989-51.235l67.272-67.272c2.927-2.924 2.929-7.677 0-10.605zm-88.275 182.207-11.868 11.868-134.833-134.833 11.868-11.868c27.54-27.54 70.941-29.163 100.349-5.258 5.518 4.48 36.422 35.903 37.273 36.853 26.606 29.651 25.508 74.941-2.789 103.238zm11.425-115.964c-.633-.649-29.679-29.695-30.293-30.294l60.94-60.939 30.293 30.293z"/></g></g></svg>